<?xml version="1.0" encoding="UTF-8"?><svg id="Layer_1" xmlns="http://www.w3.org/2000/svg" viewBox="0 0 281.64 131.38"><defs><style>.cls-1{fill:#5ea7ee;}.cls-1,.cls-2,.cls-3{stroke:#fff;stroke-miterlimit:10;}.cls-2{fill:#ddf0ff;}.cls-3{fill:#c8e6f8;}</style></defs><g id="day_simple_"><path class="cls-1" d="M281.14,65.48v.03c0,.28-.01.56-.02.83-.01.28-.01.56-.02.83v.1c0,.14,0,.28,0,.42-.01.34-.03.68-.04,1.01-.03.6-.07,1.19-.11,1.78h0c-.09,1.07-.19,2.13-.32,3.17h0c-.14,1.06-.29,2.09-.47,3.12-.1.52-.19,1.04-.29,1.56-.21,1.02-.44,2.03-.69,3.03h0c-.31,1.24-.65,2.45-1.03,3.65-.75,2.39-1.64,4.73-2.65,6.99-1.19,2.65-2.54,5.2-4.05,7.64t0,0c-.81,1.28-1.64,2.54-2.52,3.76-.3.41-.6.82-.9,1.23-1.83,2.4-3.81,4.68-5.94,6.81-11.76,11.76-28.01,19.04-45.96,19.04h-.53c.09.01.18.01.28.01h.1c.06.01.11.01.17.01h-34.76c-.19,0-.37,0-.55-.01-.19,0-.38,0-.56-.01h-114.14c-.28,0-.56,0-.84-.01-.19,0-.37-.01-.57-.01-.19-.01-.38-.01-.57-.01-.08,0-.15,0-.23,0s-.15-.01-.23-.01c-.53-.02-1.06-.05-1.59-.08-.35-.02-.69-.04-1.04-.07-.12-.01-.23-.02-.35-.03-.22-.02-.45-.04-.67-.06h-.03c-.29-.03-.58-.06-.87-.09-.45-.05-.9-.1-1.35-.16-.65-.08-1.3-.17-1.94-.27-1.03-.17-2.04-.35-3.05-.56-.51-.11-1.01-.22-1.51-.34-.03,0-.05-.01-.08-.02-.19-.04-.37-.08-.56-.13-.04-.01-.08-.02-.11-.03-.13-.03-.27-.06-.4-.1-.02,0-.03-.01-.05-.01-.18-.05-.35-.09-.53-.14-.13-.03-.27-.07-.4-.11-.02,0-.04,0-.06-.01-.21-.05-.43-.11-.64-.17-.05-.02-.1-.03-.15-.05-.49-.13-.97-.28-1.46-.43-.02,0-.04,0-.05,0-.38-.12-.77-.24-1.14-.37-.09-.03-.17-.06-.26-.09-.02,0-.03-.01-.04-.01-.12-.04-.24-.08-.36-.13-.47-.16-.94-.33-1.4-.5-.11-.03-.21-.07-.31-.12-.13-.05-.25-.09-.37-.13-.13-.04-.25-.09-.37-.14-.25-.09-.49-.19-.73-.29-.25-.1-.5-.2-.75-.3-.91-.39-1.81-.79-2.7-1.21-.02-.01-.04-.02-.07-.03-.88-.42-1.76-.86-2.62-1.32-.88-.47-1.76-.96-2.62-1.47-.28-.16-.55-.33-.83-.5-.2-.12-.4-.24-.6-.37s-.4-.25-.6-.38c-.45-.29-.9-.58-1.34-.89-.28-.18-.56-.37-.83-.57-.3-.21-.6-.42-.9-.64-.37-.27-.74-.54-1.1-.81-.04-.03-.07-.06-.1-.08-.79-.61-1.57-1.23-2.34-1.87-.14-.12-.28-.23-.41-.35-.51-.43-1.01-.87-1.5-1.32-.11-.1-.23-.2-.34-.31-.36-.33-.72-.67-1.07-1.01t-.02-.01c-.35-.34-.7-.68-1.03-1.02-.16-.15-.31-.31-.46-.47-.72-.73-1.42-1.48-2.09-2.24-.18-.2-.36-.4-.54-.61-.32-.38-.64-.75-.96-1.14-.28-.34-.56-.68-.83-1.02-.3-.39-.61-.78-.91-1.18-.19-.25-.38-.5-.56-.76-.15-.2-.3-.4-.44-.6-.29-.4-.58-.81-.86-1.23-.28-.41-.56-.83-.83-1.25-.35-.53-.69-1.07-1.01-1.61-.2-.31-.39-.63-.57-.95-2.16-3.68-3.95-7.58-5.35-11.67-.09-.25-.17-.49-.25-.74-.09-.26-.18-.52-.26-.79-.07-.21-.13-.43-.2-.64-.02-.05-.03-.1-.04-.15-.14-.45-.27-.9-.39-1.36-.14-.49-.27-.99-.4-1.49-.12-.5-.24-1-.36-1.5-.11-.5-.22-.99-.32-1.49-.01-.05-.02-.1-.03-.14-.09-.47-.18-.95-.26-1.42-.09-.5-.17-1.01-.25-1.52-.03-.19-.06-.39-.08-.59-.05-.31-.09-.64-.13-.95-.02-.15-.04-.31-.06-.47,0-.07-.02-.14-.02-.21-.09-.7-.15-1.4-.21-2.1-.03-.26-.05-.51-.07-.76v-.06c-.02-.23-.05-.45-.06-.68,0-.04-.01-.09-.01-.13,0-.09,0-.17,0-.26v-.09s-.01-.11-.01-.16c0-.08,0-.16-.01-.23-.01-.11-.01-.21-.01-.32,0-.06-.01-.12-.01-.18v-.02c-.01-.06-.01-.12-.01-.18v-.14s0-.05,0-.07c0-.04,0-.08,0-.12v-.14c-.01-.09-.01-.18-.01-.27v-.44l.05-4.25v-.47c.01-.1.01-.2.02-.3,0-.03,0-.06,0-.08,0-.05.01-.1.01-.15,0-.04,0-.08.01-.12.01-.24.03-.49.05-.73.04-.48.08-.96.12-1.44.1-.97.21-1.92.34-2.87.06-.39.12-.79.18-1.18,0-.06.01-.13.03-.19.08-.48.16-.97.25-1.46.18-.94.37-1.87.58-2.8.01-.05.02-.11.04-.16.03-.17.07-.34.12-.51.03-.12.06-.23.09-.34.02-.12.06-.24.09-.35.08-.34.17-.68.26-1.02.03-.11.06-.23.1-.34.13-.45.26-.9.39-1.35s.27-.89.42-1.34c.15-.44.3-.89.45-1.33s.31-.88.48-1.31c.16-.44.33-.87.5-1.3.17-.43.35-.86.53-1.29.16-.37.32-.74.48-1.1.09-.2.18-.4.27-.6.08-.18.16-.36.25-.54.24-.51.49-1.02.75-1.53.21-.41.42-.82.63-1.23.44-.81.89-1.62,1.35-2.41.02-.06.06-.11.09-.16.19-.34.4-.68.62-1.02.01-.03.02-.05.04-.08.22-.36.45-.72.69-1.09.21-.34.44-.68.68-1.03.03-.06.08-.12.13-.19.14-.2.27-.39.4-.58.12-.19.25-.38.39-.57.25-.35.49-.68.75-1.02.07-.1.14-.21.22-.31.07-.11.15-.21.23-.31.12-.16.24-.32.37-.47.29-.38.58-.76.88-1.13.24-.29.47-.59.73-.88,0-.02.03-.03.04-.05.08-.09.15-.19.24-.28.09-.12.19-.23.29-.35.08-.11.17-.21.27-.31.05-.06.11-.12.17-.18.29-.35.59-.69.9-1.03.66-.73,1.34-1.44,2.03-2.13,1.37-1.37,2.81-2.69,4.31-3.92,1.49-1.26,3.04-2.44,4.64-3.54,2-1.39,4.08-2.67,6.23-3.84t0,0c1.06-.58,2.14-1.13,3.24-1.63.23-.12.47-.23.71-.34,1.53-.69,3.1-1.33,4.69-1.9h.01c1.06-.39,2.14-.74,3.22-1.07h0c.54-.17,1.09-.32,1.64-.47.55-.15,1.1-.29,1.65-.43.56-.14,1.12-.27,1.68-.39.54-.12,1.08-.23,1.62-.34.07-.02.14-.03.21-.03.52-.1,1.04-.19,1.57-.28,1.14-.19,2.3-.35,3.46-.47.58-.06,1.16-.12,1.75-.16.51-.05,1.03-.08,1.55-.11.41-.03.83-.04,1.24-.06.08,0,.16,0,.24-.01h.16c.22-.01.44-.02.66-.02.19,0,.38-.02.57-.02.3-.01.59-.01.89-.01h149.99c.14,0,.28,0,.42.01h.12c.1,0,.18,0,.28.01h.02c3.37.04,6.68.34,9.91.88.85.14,1.7.3,2.53.47,20.21,4.19,36.98,17.77,45.56,35.95.43.93.85,1.87,1.24,2.81.66,1.59,1.25,3.2,1.78,4.84.22.69.43,1.38.63,2.08.08.28.16.56.24.84.33,1.23.63,2.46.89,3.72.13.6.25,1.21.36,1.82.21,1.16.39,2.34.53,3.53.06.49.11.98.16,1.48.01.06.02.12.02.18.01.17.04.34.05.52.01.12.01.25.02.37.03.33.06.65.09.97,0,.04,0,.09,0,.13,0,.05.01.1.01.15.01.14.02.27.02.4.01.12.01.24.02.37,0,.1,0,.19,0,.29.02.26.03.51.04.77,0,.06.01.13.01.19,0,.14,0,.28,0,.43v.11c0,.12,0,.24.01.35,0,.11,0,.23.01.34v.13h0c.01.28.02.56.02.84Z"/><g id="clouds"><path id="down" class="cls-2" d="M170.07,98.25h-.02c-1.72-.47-3.5-.71-5.32-.71-1.26,0-2.51.12-3.71.34-.12.02-.25.05-.37.08-5.86,1.2-11.07,4.93-15,10.36-.09-.02-.19-.03-.28-.04h-.01c-.64-.07-1.29-.11-1.95-.11h-.01c-3.37,0-6.56.93-9.39,2.58-.27-1.39-.61-2.76-1.02-4.08-1.63-5.39-4.26-10.17-7.59-14-1.82-2.08-3.83-3.87-6.03-5.32-1.57-1.06-3.22-1.92-4.95-2.61-2.79-1.1-5.76-1.69-8.84-1.69-3.86,0-7.56.94-10.93,2.64-2.33,1.16-4.52,2.7-6.51,4.54-2.88-1.95-6.16-3.12-9.67-3.29-.64-3.47-1.91-6.68-3.65-9.46-3.99-6.36-10.5-10.51-17.85-10.51-1.93,0-3.81.28-5.6.83-2.51.75-4.84,2-6.91,3.64-1.89-1.89-4.06-3.4-6.43-4.43.45-2.69.68-5.48.68-8.36,0-3.28-.31-6.46-.89-9.5h0c-1.89-9.97-6.69-18.4-13.13-23.62-2.19-1.77-4.57-3.18-7.08-4.14-.31.34-.61.68-.92,1.03-.25.28-.49.56-.73.85-.09.09-.16.19-.24.28-.01.02-.03.03-.04.05-.04.06-.09.11-.13.17-.5.6-1,1.23-1.49,1.85-.28.36-.55.72-.83,1.1-.26.34-.5.67-.75,1.03-.14.19-.27.38-.39.57-.13.19-.26.38-.4.58-.05.07-.1.13-.13.19-.24.35-.47.69-.68,1.04-.24.39-.49.78-.73,1.18-.22.34-.43.68-.62,1.03-.03.05-.07.1-.09.16-.46.78-.92,1.6-1.36,2.42-.21.41-.42.83-.63,1.24-.26.51-.51,1.03-.75,1.54-.09.18-.17.36-.25.54-.09.2-.18.4-.27.6-.16.36-.32.73-.48,1.11-.18.43-.36.87-.53,1.3s-.34.87-.5,1.31c-.17.43-.33.88-.48,1.32-.15.44-.3.9-.45,1.34-.15.45-.29.9-.42,1.35s-.26.91-.39,1.36-.25.92-.36,1.37c-.03.11-.07.23-.09.35-.03.11-.06.22-.09.34-.05.17-.09.34-.12.51-.02.05-.03.11-.04.16-.21.94-.4,1.87-.58,2.82-.09.49-.17.99-.25,1.47-.02.06-.03.13-.03.19-.06.39-.12.8-.18,1.19-.13.96-.24,1.91-.34,2.89-.04.48-.08.97-.12,1.45-.02.24-.04.49-.05.73-.01.04-.01.08-.01.12,0,.05-.01.1-.01.15-.01.15-.02.3-.02.46-.01.04-.01.09-.01.13v.26l-.05,4.28v.44c0,.09,0,.18.01.27,0,.08.01.17.01.26-.01.02,0,.05,0,.07,0,.06.01.12.01.19v.15c0,.06.01.12.01.18,0,.11,0,.21.01.32.01.07.01.15.01.23,0,.05,0,.11.01.16.02.39.05.77.08,1.17v.06c.02.25.04.5.07.76.06.7.12,1.41.21,2.11,0,.07.01.14.02.21.02.16.04.32.06.47.04.31.08.64.13.96.02.2.05.4.08.59.08.51.16,1.03.25,1.53.18,1.04.38,2.05.61,3.07l.36,1.51c.13.5.26,1.01.4,1.5.12.46.25.92.39,1.37.01.04.02.08.04.12.06.22.13.45.2.67.08.27.17.53.26.8.08.25.16.49.25.74,1.41,4.12,3.21,8.04,5.38,11.73.18.32.37.64.57.96.32.54.66,1.09,1.02,1.62.27.42.55.85.84,1.26.28.42.57.84.87,1.24.14.2.29.4.44.6.18.26.37.51.56.76.3.4.61.8.92,1.19.27.34.55.68.84,1.03.32.39.64.76.97,1.15.18.21.36.41.54.61.67.76,1.38,1.52,2.1,2.25.15.16.3.32.46.47.33.34.68.68,1.04,1.03t.02.01s.03.04.05.06c.34.32.68.64,1.03.96.11.11.23.21.34.31.49.45,1,.9,1.51,1.33.13.12.27.23.41.35.77.64,1.56,1.27,2.35,1.88.03.02.06.05.1.08.36.27.73.54,1.11.82.3.22.6.43.91.64.27.2.55.39.84.57.44.31.9.6,1.35.9.2.13.4.25.6.38.2.13.4.25.6.37.28.17.55.34.84.5.87.51,1.75,1.01,2.64,1.48.87.46,1.75.91,2.64,1.33.03.01.05.02.07.03.9.42,1.8.83,2.72,1.22.25.1.5.2.75.3.24.1.48.2.73.29.12.05.24.1.37.14.02.01.04.01.06.03t.02.01s.03.01.04.02h.02c.06.02.12.04.19.07h.02c.1.05.18.09.29.12.23.09.47.17.71.25.22.09.46.17.69.25.01,0,.01.01.02,0,.02.01.04.02.05.02.1.05.19.08.29.11h.02s.01.01.02.01c.09.03.17.06.26.09.19.07.37.13.57.19h.02l.57.18s.03,0,.05.01h.02c.24.07.47.15.71.22h.01s0,.01.01.01c.02.01.04.01.05.02h.02c.21.06.43.12.64.18,0,0,.01.01.02.01.04.02.07.03.11.04.09.03.18.05.27.07h.02c.12.04.25.07.37.1.02.01.04.01.06.01.13.04.27.08.4.11.18.05.35.09.53.14.02,0,.03.01.05.01.13.04.27.07.4.1.03.01.07.02.11.03.19.05.37.09.56.13.03.01.05.02.08.02.5.12,1.01.23,1.52.34,1.02.21,2.03.39,3.07.56.64.1,1.3.19,1.95.27.45.06.91.11,1.36.16.29.03.58.06.88.09h.03c.22.02.45.04.67.06.12.01.23.02.35.03.06.01.12.01.18.01.29.03.57.04.87.06h.02c.41.02.83.05,1.24.07.08,0,.17.01.25.01h.09c.08,0,.15.01.23.01s.15,0,.23.01c.19,0,.38,0,.57.01h.02c.1,0,.2,0,.29.01h.26c.28.01.56.01.85.01h114.87c.18.01.37.01.56.01h9.9c-.63-16.18-9.49-29.48-21.12-32.64Z"/><path id="up" class="cls-3" d="M216.67,130.87c-.85-3.63-2.17-7.04-3.9-10.18-.6-1.1-1.26-2.16-1.97-3.19h0c-.8-1.18-1.65-2.28-2.57-3.34-4.25-4.92-9.68-8.62-15.82-10.59-3.2-1.03-6.6-1.58-10.11-1.58-.6,0-1.2.02-1.78.05-.05,0-.09,0-.14.01,0-.04.01-.07.01-.11h0c.17-1.41.26-2.83.26-4.27,0-12.81-6.68-24.06-16.77-30.44h0c-.78-.5-1.6-.98-2.43-1.41-.02-.01-.03-.02-.05-.03-.02-.01-.04-.02-.07-.03-1.54-.81-3.14-1.51-4.79-2.08-1.64-.58-3.34-1.05-5.08-1.38-1.3-.25-2.63-.43-3.98-.54-.96-.07-1.91-.11-2.88-.11-3.11,0-6.09.39-8.97,1.14h-.03c-.55.13-1.1.29-1.63.45h-.02c-.45.14-.9.29-1.34.45-.44.15-.9.32-1.34.5h-.02c-.47.18-.94.38-1.39.58-5.01,2.24-9.42,5.61-12.9,9.76-.08.1-.17.2-.25.3-.5.61-1,1.26-1.47,1.91-1.87-3.9-5.01-6.85-8.75-8.07-1.24-.41-2.55-.63-3.89-.63-.81,0-1.58.08-2.35.23-1.86-13.89-10.45-25.13-21.68-28.83-2.58-.87-5.3-1.32-8.11-1.32-.94,0-1.87.05-2.79.15-1.89.21-3.73.62-5.51,1.23-2.28.76-4.46,1.84-6.48,3.2-1.08-2.42-2.62-4.49-4.49-6.06-1.36-1.13-2.89-1.99-4.53-2.53-.53-.18-1.09-.32-1.65-.42.16-1.55.24-3.14.24-4.75,0-5.18-.85-10.11-2.41-14.64h0c-1.02-3.02-2.35-5.85-3.94-8.42-.01,0-.01.01-.02.01h0c-.24.1-.48.21-.72.32-.24.12-.48.23-.71.35-.33.15-.67.32-1.01.49-.51.26-1.02.52-1.53.8h-.01c-.54.3-1.08.6-1.61.91-.53.3-1.07.62-1.59.95-1.04.64-2.05,1.32-3.06,2.01-1.61,1.12-3.17,2.3-4.67,3.56-1.51,1.26-2.95,2.58-4.33,3.95-.69.69-1.38,1.41-2.04,2.14,2.52.96,4.89,2.36,7.08,4.14,6.44,5.22,11.24,13.65,13.13,23.61h0c.57,3.05.89,6.23.89,9.51,0,2.88-.23,5.68-.68,8.36,2.37,1.03,4.54,2.54,6.43,4.43,2.07-1.64,4.41-2.89,6.91-3.64,1.78-.54,3.66-.83,5.6-.83,7.36,0,13.87,4.15,17.85,10.51,1.74,2.78,3.01,5.99,3.65,9.46,3.51.17,6.79,1.34,9.67,3.29,1.99-1.84,4.18-3.38,6.51-4.54,3.37-1.7,7.06-2.64,10.93-2.64,3.08,0,6.05.59,8.84,1.69,1.73.68,3.38,1.55,4.95,2.61,2.19,1.45,4.21,3.24,6.03,5.32,3.33,3.82,5.96,8.6,7.59,14,.4,1.32.74,2.69,1.02,4.08,2.83-1.65,6.02-2.58,9.39-2.58h.01c.66,0,1.31.04,1.95.11h.01c.09.01.19.02.28.04,3.93-5.42,9.15-9.16,15-10.36.12-.03.25-.06.37-.08,1.23-.29,2.51-.43,3.8-.43,1.8,0,3.55.28,5.23.81h.02c11.63,3.16,20.49,16.45,21.12,32.64h25.34c-.09,0-.18,0-.26-.01h.39Z"/></g></g></svg>