<?xml version="1.0" encoding="UTF-8"?>
<svg id="Layer_1" data-name="Layer 1" xmlns="http://www.w3.org/2000/svg" viewBox="0 0 600 240">
  <defs>
    <style>
      .cls-1 {
        fill: #d3e9fa;
      }

      .cls-2 {
        fill: #6db0f2;
      }

      .cls-3 {
        fill: #fdd22f;
      }

      .cls-4 {
        fill: #5ea7ee;
      }

      .cls-5 {
        fill: #fdf96a;
      }

      .cls-6 {
        fill: #78b8f2;
      }

      .cls-7 {
        fill: #fab51d;
      }

      .cls-8 {
        fill: #84bef4;
      }

      .cls-9 {
        fill: #65a1df;
      }

      .cls-10 {
        fill: #b9dcf8;
      }
    </style>
  </defs>
  <g id="day">
    <g id="gradient">
      <path class="cls-9" d="M117.49,0h365.01c64.89,0,117.5,52.73,117.5,117.78v4.43c0,65.05-52.61,117.79-117.5,117.79H117.49C52.6,240,0,187.26,0,122.21v-4.43C0,52.73,52.6,0,117.49,0ZM120.79,235.53h358.42c31.82,0,60.64-12.93,81.49-33.84,20.86-20.9,33.76-49.79,33.76-81.69,0-63.81-51.6-115.52-115.25-115.52H120.79c-31.82,0-60.64,12.93-81.49,33.83C18.44,59.21,5.54,88.1,5.54,119.99c0,63.81,51.6,115.53,115.25,115.53Z"/>
      <path class="cls-2" d="M213.01,235.53h72.45c-42.02-76.26-41.84-154.82.53-231.06h-72.56c-32.56,76.24-32.71,154.8-.42,231.06Z"/>
      <path class="cls-4" d="M5.54,119.99c0,63.81,51.6,115.53,115.25,115.53h92.22c-32.29-76.26-32.14-154.82.42-231.06h-92.64c-31.82,0-60.64,12.93-81.49,33.83C18.44,59.21,5.54,88.1,5.54,119.99Z"/>
      <path class="cls-6" d="M285.46,235.53h77.49c-12.18-15.71-21.84-31.52-28.98-47.38-.82-1.82-1.61-3.65-2.36-5.47-24.54-59.37-13.84-119.48,32.09-178.21h-77.71c-42.37,76.24-42.55,154.8-.53,231.06Z"/>
      <path class="cls-8" d="M331.61,182.68c.75,1.82,1.54,3.65,2.36,5.47,7.14,15.86,16.8,31.67,28.98,47.38h116.26c31.82,0,60.64-12.93,81.49-33.84,20.86-20.9,33.76-49.79,33.76-81.69,0-63.81-51.6-115.52-115.25-115.52h-115.51c-45.93,58.72-56.63,118.84-32.09,178.21Z"/>
    </g>
    <g id="clounds">
      <path class="cls-10" d="M5.54,119.68h0c0,63.82,51.6,115.54,115.25,115.54h358.42c31.82,0,60.64-12.93,81.49-33.84,5.61-5.62,10.64-11.81,14.99-18.49,11.87-18.16,18.77-39.88,18.77-63.21s-6.9-45.04-18.76-63.2c-.51-.01-1.02-.02-1.53-.02-22.41,0-42.1,11.72-53.27,29.38-12.99-18.51-35.12-30.69-60.22-30.69-40,0-72.43,30.93-72.43,69.07,0,2.01.09,4,.27,5.96-.9-.09-1.81-.13-2.73-.13-9.01,0-17.09,3.92-22.66,10.15-13.25-16.06-33.83-26.37-56.93-26.37-24.4,0-45.99,11.5-59.11,29.13-4.59-11.01-15.44-18.75-28.09-18.75-1.68,0-3.32.14-4.93.4-4.77-30.17-30.84-53.24-62.28-53.24-11.23,0-21.76,2.94-30.89,8.1-4.41-8.38-12.61-14.46-22.31-15.93.34-2.75.51-5.55.51-8.4,0-16.99-6.12-32.55-16.28-44.58-16.55,5.78-31.39,15.25-43.52,27.41C18.44,58.9,5.54,87.78,5.54,119.68Z"/>
      <path class="cls-1" d="M5.54,119.99c0,20.44,5.3,39.65,14.6,56.31,19.71,35.34,57.4,59.23,100.65,59.23h358.42c14.28,0,27.96-2.61,40.59-7.39,10.63-3.99,20.51-9.53,29.37-16.34,4.06-3.11,7.92-6.5,11.53-10.11,1.99-1.99,3.9-4.05,5.74-6.19.33-.38.66-.77.98-1.16.36-.42.72-.85,1.06-1.28.18-.2.34-.41.51-.62.48-.59.95-1.18,1.4-1.78.13-.16.26-.32.37-.48.4-.51.79-1.03,1.16-1.55.33-.42.64-.85.94-1.28.23-.3.44-.6.65-.91.29-.41.58-.82.85-1.23.4-.57.78-1.14,1.15-1.72.12-.15.22-.31.31-.46.28-.43.56-.87.84-1.31.79-1.23,1.54-2.48,2.27-3.74.23-.4.46-.81.7-1.22,2.14-3.79,4.07-7.72,5.77-11.76.34-.81.67-1.62,1-2.45.04-.09.08-.19.11-.28.33-.83.64-1.67.95-2.52.33-.89.64-1.77.94-2.68.27-.8.54-1.61.8-2.44.04-.15.09-.3.14-.45.52-1.69,1-3.4,1.44-5.12.19-.71.37-1.42.53-2.14.11-.42.2-.84.3-1.26.22-.97.43-1.94.61-2.92.14-.65.26-1.3.38-1.95.06-.35.13-.7.18-1.05.06-.33.12-.66.16-.99.1-.51.18-1.04.25-1.56.13-.81.24-1.63.34-2.45.11-.87.21-1.75.3-2.64.02-.15.04-.3.05-.46.09-.9.17-1.81.24-2.73.07-.92.13-1.83.18-2.76.01-.19.02-.37.02-.56.05-.8.08-1.59.09-2.41,0-.1,0-.21,0-.32.03-.94.04-1.89.04-2.85s-.01-1.89-.04-2.84c0-.12,0-.24,0-.35-.01-.79-.04-1.57-.09-2.36,0-.2-.01-.4-.02-.6-.04-.84-.1-1.67-.16-2.52,0-.07-.01-.15-.02-.23-.06-.88-.14-1.77-.24-2.66-.01-.22-.03-.43-.06-.64-.08-.78-.17-1.56-.27-2.34,0-.08-.01-.15-.03-.23-.1-.8-.21-1.6-.33-2.41-.05-.34-.1-.69-.16-1.03h0c-11.07-11.6-26.33-18.77-43.17-18.77-24.01,0-44.79,14.56-54.81,35.73-5.3-1.57-10.88-2.42-16.65-2.42-33.79,0-61.18,28.83-61.18,64.39,0,4.89.52,9.66,1.51,14.25-7.51-5.96-16.86-9.51-27-9.51-4.76,0-9.35.78-13.66,2.24-7.82-7.01-17.96-11.24-29.04-11.24-15.02,0-28.32,7.78-36.45,19.73-2.71-.52-5.51-.79-8.37-.79-7.04,0-13.7,1.64-19.62,4.56-6.57-28.1-30.67-48.94-59.4-48.94-13.66,0-26.27,4.71-36.45,12.67-6-3.44-12.87-5.51-20.2-5.81-4.43-20.15-22.88-35.26-44.98-35.26-9.71,0-18.71,2.92-26.13,7.9-3.95-3.35-8.49-6.01-13.44-7.83.94-4.75,1.43-9.69,1.43-14.77,0-33.01-20.83-60.57-48.57-67.07C17.43,61.52,5.54,89.37,5.54,119.99Z"/>
    </g>
    <g id="sun">
      <path class="cls-7" d="M579,126.01c0,57.36-48.35,103.86-107.99,103.86s-108.01-46.49-108.01-103.86,48.35-103.86,108.01-103.86,107.99,46.5,107.99,103.86Z"/>
      <path class="cls-5" d="M579,113.99c0,57.36-48.35,103.86-107.99,103.86s-108.01-46.49-108.01-103.86S411.35,10.13,471.01,10.13s107.99,46.5,107.99,103.86Z"/>
      <path class="cls-3" d="M579,120c0,57.36-48.35,103.86-107.99,103.86s-108.01-46.49-108.01-103.86,48.35-103.86,108.01-103.86,107.99,46.5,107.99,103.86Z"/>
    </g>
  </g>
</svg>