<?xml version="1.0" encoding="UTF-8"?><svg id="Layer_1" xmlns="http://www.w3.org/2000/svg" viewBox="0 0 280.05 130.01"><defs><style>.cls-1{fill:#c8e6f8;}.cls-2{fill:#6db0f2;}.cls-3{fill:#5ea7ee;}.cls-4{fill:#78bef4;}.cls-5{fill:#78b8f2;}.cls-6{fill:#ddf0ff;}</style></defs><g id="day"><path class="cls-3" d="M152.34,5.93s.07-.11.11-.16c-.04.05-.08.11-.12.16-21.94,9.87-37.1,31.02-37.1,55.51,0,.6.03,1.19.05,1.78-.02.59-.05,1.18-.05,1.78s.03,1.19.05,1.78c-.02.59-.05,1.18-.05,1.78,0,24.26,14.88,45.24,36.49,55.23.05.08.11.16.18.24-.06-.08-.12-.16-.17-.24,7.36,3.4,15.49,5.52,24.09,6.06.03.05.07.1.11.15H54.8C24.54,130,0,100.89,0,64.99,0,47.05,6.14,30.79,16.06,19.03,25.96,7.28,39.67,0,54.8,0h121.57s-.06.08-.09.12c-8.53.48-16.61,2.52-23.94,5.81Z"/><path class="cls-3" d="M180.24,0c-1.33,0-2.65.04-3.96.12.03-.04.06-.08.09-.12h3.87Z"/><path class="cls-3" d="M180.24,130h-4.31s-.08-.1-.11-.15c1.46.1,2.93.15,4.42.15Z"/><path class="cls-3" d="M151.9,124.03c-.07-.08-.13-.16-.18-.24h.01c.05.08.11.16.17.24Z"/><path class="cls-3" d="M152.45,5.77c-.04.05-.08.11-.11.16h-.01s.08-.11.12-.16Z"/><path class="cls-3" d="M151.9,124.03c-.07-.08-.13-.16-.18-.24h.01c.05.08.11.16.17.24Z"/><path class="cls-3" d="M152.45,5.77c-.04.05-.08.11-.11.16h-.01s.08-.11.12-.16Z"/><path class="cls-4" d="M280,63.23c.02.59.05,1.17.05,1.77h0c0,.61-.03,1.2-.05,1.79,0,.17,0,.34.02.52.01.42.03.84.03,1.26,0,9.78-2.41,19.02-6.72,27.22-2.61,5.6-5.92,10.71-9.8,15.17-10.2,11.77-24.31,19.05-39.88,19.05h-8.6c-2.95,0-5.85-.19-8.69-.55-2.96-.37-5.87-.93-8.69-1.68-20.22-5.28-36.48-19.57-43.65-38.01-2.57-6.61-3.97-13.75-3.97-21.2,0-.6.03-1.19.04-1.78-.01-.59-.04-1.18-.04-1.78s.03-1.19.04-1.78c-.01-.59-.04-1.18-.04-1.78,0-8.05,1.64-15.75,4.62-22.79,7.47-17.67,23.37-31.29,43-36.42,2.82-.75,5.73-1.31,8.69-1.68,2.84-.36,5.74-.55,8.69-.55h8.6c21.48,0,40.16,13.84,49.68,34.21,4.3,8.2,6.72,17.45,6.72,27.23,0,.42-.01.84-.03,1.25-.01.18-.01.35-.02.53Z"/><path class="cls-5" d="M206.36,129.46c2.84.36,5.74.55,8.69.55h-17.38c-2.95,0-5.85-.19-8.69-.55-5.87-.74-11.49-2.22-16.75-4.34-23.26-9.35-39.56-31.15-39.56-56.55,0-.6.02-1.19.04-1.78-.02-.59-.04-1.18-.04-1.78s.02-1.19.04-1.78c-.02-.59-.04-1.18-.04-1.78,0-25.61,16.57-47.56,40.14-56.78,5.09-2,10.52-3.4,16.17-4.11,2.84-.36,5.74-.55,8.69-.55h17.38c-2.95,0-5.85.19-8.69.55-2.96.37-5.87.93-8.69,1.68-19.63,5.13-35.53,18.75-43,36.42-2.98,7.04-4.62,14.74-4.62,22.79,0,.6.03,1.19.04,1.78-.01.59-.04,1.18-.04,1.78s.03,1.19.04,1.78c-.01.59-.04,1.18-.04,1.78,0,7.45,1.4,14.59,3.97,21.2,7.17,18.44,23.43,32.73,43.65,38.01,2.82.75,5.73,1.31,8.69,1.68Z"/><path class="cls-2" d="M188.98,129.46c2.84.36,5.74.55,8.69.55h-17.38c-1.49,0-2.96-.05-4.42-.15-8.6-.54-16.73-2.66-24.09-6.06h-.01c-21.61-9.99-36.49-30.97-36.49-55.23,0-.6.03-1.19.05-1.78-.02-.59-.05-1.18-.05-1.78s.03-1.19.05-1.78c-.02-.59-.05-1.18-.05-1.78,0-24.49,15.16-45.64,37.1-55.51h.01c7.33-3.29,15.41-5.33,23.94-5.81,1.31-.08,2.63-.12,3.96-.12h17.38c-2.95,0-5.85.19-8.69.55-5.65.71-11.08,2.11-16.17,4.11-23.57,9.22-40.14,31.17-40.14,56.78,0,.6.02,1.19.04,1.78-.02.59-.04,1.18-.04,1.78s.02,1.19.04,1.78c-.02.59-.04,1.18-.04,1.78,0,25.4,16.3,47.2,39.56,56.55,5.26,2.12,10.88,3.6,16.75,4.34Z"/><g id="clounds"><path class="cls-1" d="M214.87,130.01H54.82C24.56,130.01.02,100.9.02,64.99.02,47.04,6.17,30.79,16.08,19.04c5.76-6.84,12.82-12.16,20.69-15.42,4.83,6.77,7.74,15.52,7.74,25.08,0,1.6-.08,3.18-.24,4.73,4.61.83,8.51,4.25,10.6,8.96,4.34-2.9,9.35-4.56,14.69-4.56,14.95,0,27.34,12.98,29.61,29.96.77-.15,1.54-.23,2.34-.23,5.74,0,10.69,3.96,13.03,9.69.12.28.23.57.33.86,4.47-7.1,10.99-12.43,18.59-14.89.03-.01.06-.02.1-.03,2.96-.87,6.08-1.34,9.31-1.34,4.23,0,8.28.8,12.04,2.27.02.01.05.02.08.03,5.98,2.52,11.18,6.85,15.05,12.41.11-.15.23-.3.36-.45,4.82,6.49,7.7,14.72,7.7,23.68,0,.54-.01,1.08-.04,1.61.87-.06,1.74-.1,2.63-.1,16.49,0,30.34,12.21,34.17,28.71Z"/><path class="cls-6" d="M188.29,130.01H54.83c-20.56,0-38.48-13.45-47.85-33.33C2.55,87.3.02,76.49.02,64.99.02,47.77,5.69,32.09,14.92,20.46c13.19,3.66,23.09,19.17,23.09,37.74,0,2.86-.23,5.64-.68,8.31,2.36,1.02,4.51,2.52,6.39,4.4,3.53-2.8,7.81-4.44,12.43-4.44,10.5,0,19.28,8.5,21.38,19.84,3.49.17,6.75,1.33,9.61,3.27,4.84-4.48,10.83-7.13,17.33-7.13,13.66,0,25.11,11.72,28.24,27.53,2.81-1.64,5.98-2.56,9.33-2.56,1.36,0,2.69.15,3.97.44,3.06-5.32,7.66-9.17,12.98-10.54,1.4-.37,2.86-.56,4.35-.56,5.27,0,10.09,2.38,13.81,6.33.2-.08.41-.16.61-.23,5.73,6.05,9.73,15.84,10.54,27.14Z"/></g></g></svg>