<?xml version="1.0" encoding="UTF-8"?><svg id="Layer_1" xmlns="http://www.w3.org/2000/svg" viewBox="0 0 280 130"><defs><style>.cls-1{fill:#c8e6f8;}.cls-2{fill:#6db0f2;}.cls-3{fill:#5ea7ee;}.cls-4{fill:#78bef4;}.cls-5{fill:#78b8f2;}.cls-6{fill:#ddf0ff;}</style></defs><g id="day"><path class="cls-3" d="M86.65,128.45c.24.52.48,1.03.72,1.55h-32.58C24.53,130,0,100.89,0,64.99,0,47.04,6.13,30.79,16.05,19.03,25.96,7.28,39.66,0,54.79,0h32.84c-.25.52-.48,1.03-.73,1.55-.7,1.5-1.38,3.01-2.03,4.53-.29.64-.56,1.29-.83,1.94-.29.7-.59,1.4-.87,2.11-.28.67-.54,1.35-.8,2.03-.27.67-.52,1.35-.77,2.03-.29.75-.55,1.5-.82,2.27-.22.6-.43,1.2-.63,1.79-.2.59-.4,1.16-.59,1.75-.48,1.45-.93,2.91-1.36,4.36-.2.68-.4,1.36-.59,2.04-.12.43-.25.87-.36,1.3-.12.43-.24.87-.34,1.29-.24.9-.47,1.8-.68,2.7-.03.1-.05.21-.08.31-.09.36-.16.71-.25,1.07-.29,1.2-.54,2.38-.79,3.58-.12.61-.25,1.22-.36,1.81-.02.08-.04.16-.05.26-.12.66-.25,1.32-.36,1.98-.25,1.36-.47,2.73-.67,4.09-.1.68-.2,1.36-.29,2.04-.1.69-.18,1.37-.26,2.05-.16,1.36-.3,2.73-.43,4.1-.06.68-.11,1.36-.16,2.05-.06.74-.1,1.49-.15,2.24-.04.62-.07,1.24-.1,1.86-.03.69-.06,1.37-.08,2.05-.04,1.36-.06,2.73-.06,4.09v.02c0,.67,0,1.35.02,2.02,0,.52.02,1.04.03,1.56v.04c.02.63.04,1.27.07,1.9.04,1.15.1,2.31.18,3.46.04.59.08,1.16.12,1.74.02.33.05.66.08,1,.07.71.12,1.43.2,2.14.02.28.06.55.09.81.03.27.06.54.09.81.09.74.17,1.47.27,2.22.09.7.18,1.4.29,2.1.08.59.17,1.19.27,1.77.1.73.23,1.46.35,2.19.11.66.23,1.32.35,1.98.09.49.19,1.01.29,1.5,0,.03,0,.05.02.08.55,2.82,1.2,5.64,1.92,8.45.15.55.29,1.09.44,1.63.15.57.3,1.12.47,1.68.16.56.32,1.12.48,1.68.15.54.31,1.07.48,1.6.33,1.07.67,2.13,1.03,3.21.2.63.42,1.26.64,1.89.19.58.4,1.15.6,1.73.33.92.68,1.85,1.02,2.76.18.46.36.94.54,1.4.25.66.5,1.31.78,1.97.25.62.49,1.23.75,1.85.21.51.43,1.01.65,1.52.29.67.58,1.34.87,2.01.24.54.48,1.07.72,1.61,0,.03.03.05.04.08.11.26.23.52.35.77Z"/><path class="cls-4" d="M280,64.99c0,.56,0,1.12-.02,1.68-.03,1.11-.08,2.23-.14,3.32-1.06,15.97-7.11,30.31-16.36,40.96-10.2,11.77-24.3,19.05-39.88,19.05h-47.67c-.41-.52-.82-1.03-1.22-1.55-6.49-8.34-11.69-16.71-15.59-25.11-.48-1.03-.94-2.05-1.37-3.08-14.02-32.87-8.23-66.18,17.38-98.72.4-.52.81-1.03,1.23-1.55h47.23c29.69,0,54.03,26.44,56.25,59.99.07,1.1.11,2.21.14,3.32,0,.56.02,1.12.02,1.68Z"/><path class="cls-5" d="M174.71,128.45c.4.52.81,1.03,1.22,1.55h-42.92c-.31-.52-.64-1.03-.94-1.55-2.14-3.55-4.09-7.1-5.85-10.67-.27-.53-.52-1.05-.78-1.57-1.06-2.22-2.06-4.44-2.99-6.66-.24-.56-.47-1.11-.68-1.67-.19-.46-.37-.93-.55-1.38-.21-.55-.42-1.09-.62-1.64-.19-.52-.38-1.02-.56-1.53-.13-.38-.27-.75-.4-1.13-.44-1.25-.85-2.5-1.24-3.75-.15-.49-.3-.99-.45-1.48-.2-.64-.38-1.29-.55-1.93-.33-1.14-.63-2.3-.91-3.44-.14-.56-.27-1.11-.4-1.67-.1-.44-.2-.88-.29-1.32-.11-.51-.22-1.02-.32-1.54-.1-.51-.21-1.01-.29-1.52-.12-.61-.23-1.22-.33-1.82-.02-.08-.04-.15-.05-.24-.1-.56-.18-1.12-.27-1.69-.06-.31-.1-.62-.14-.93-.09-.58-.16-1.15-.24-1.73-.09-.66-.17-1.32-.24-1.98-.08-.58-.13-1.16-.18-1.74-.04-.4-.08-.79-.1-1.2-.04-.34-.06-.69-.09-1.03-.29-3.98-.37-7.95-.22-11.93.02-.56.05-1.11.08-1.68,0-.22.02-.43.04-.65.03-.63.08-1.25.12-1.88.06-.69.11-1.37.18-2.05.05-.59.1-1.18.18-1.75.05-.47.1-.94.17-1.41.27-2.2.61-4.39,1.03-6.59.1-.53.2-1.05.3-1.58.17-.87.35-1.73.56-2.6.08-.36.16-.72.25-1.08.1-.45.22-.92.33-1.37.13-.55.27-1.08.42-1.62.12-.49.26-.99.4-1.48.4-1.45.84-2.92,1.31-4.37.2-.62.4-1.24.61-1.86.22-.67.46-1.33.69-2,.24-.66.48-1.32.73-1.99.22-.61.46-1.21.69-1.81.54-1.4,1.12-2.8,1.74-4.21.57-1.31,1.16-2.61,1.77-3.92.36-.76.73-1.54,1.11-2.31.28-.55.55-1.1.84-1.65.33-.66.68-1.32,1.03-1.98.35-.66.7-1.32,1.06-1.98s.73-1.32,1.1-1.98.75-1.32,1.14-1.98c.38-.66.77-1.31,1.18-1.97.3-.52.62-1.03.94-1.55h43.03c-.42.52-.83,1.03-1.23,1.55-25.61,32.54-31.4,65.85-17.38,98.72.43,1.03.88,2.05,1.37,3.08,3.9,8.4,9.09,16.77,15.59,25.11Z"/><path class="cls-2" d="M132.06,128.45c.3.52.63,1.03.94,1.55h-45.63c-.25-.52-.48-1.03-.72-1.55-.12-.26-.24-.52-.35-.77,0-.03-.03-.05-.04-.08-.25-.54-.48-1.07-.72-1.61-.29-.67-.59-1.34-.87-2.01-.22-.51-.44-1.01-.65-1.52-.26-.62-.5-1.23-.75-1.85-.27-.66-.52-1.31-.78-1.97-.18-.46-.36-.94-.54-1.4-.34-.92-.68-1.85-1.02-2.76-.2-.58-.41-1.15-.6-1.73-.22-.63-.44-1.26-.64-1.89-.36-1.07-.69-2.13-1.03-3.21-.16-.53-.32-1.06-.48-1.6-.16-.56-.32-1.12-.48-1.68-.16-.56-.31-1.11-.47-1.68-.14-.54-.29-1.08-.44-1.63-.72-2.81-1.37-5.63-1.92-8.45,0-.03,0-.05-.02-.08-.1-.49-.2-1.01-.29-1.5-.12-.66-.24-1.32-.35-1.98-.12-.72-.25-1.45-.35-2.19-.1-.59-.19-1.19-.27-1.77-.1-.7-.2-1.4-.29-2.1-.1-.74-.18-1.47-.27-2.22-.03-.28-.06-.55-.09-.81-.03-.27-.07-.54-.09-.81-.08-.71-.13-1.43-.2-2.14-.03-.34-.06-.67-.08-1-.05-.58-.09-1.15-.12-1.74-.08-1.15-.14-2.31-.18-3.46-.03-.63-.05-1.27-.07-1.9v-.04c0-.52-.02-1.04-.03-1.56,0-.67-.02-1.35-.02-2.02v-.02c0-1.36.02-2.73.06-4.09.02-.68.05-1.36.08-2.05.03-.62.06-1.24.1-1.86.05-.74.1-1.49.15-2.24.05-.69.1-1.37.16-2.05.12-1.37.27-2.74.43-4.1.08-.68.16-1.36.26-2.05.09-.68.18-1.36.29-2.04.2-1.36.42-2.73.67-4.09.11-.66.24-1.32.36-1.98,0-.09.03-.18.05-.26.11-.6.24-1.21.36-1.81.25-1.2.5-2.38.79-3.58.09-.36.16-.71.25-1.07.03-.1.05-.21.08-.31.22-.9.45-1.8.68-2.7.1-.42.22-.86.34-1.29.11-.43.24-.87.36-1.3.19-.68.39-1.36.59-2.04.43-1.45.88-2.91,1.36-4.36.19-.59.39-1.16.59-1.75.2-.6.41-1.2.63-1.79.27-.76.53-1.52.82-2.27.25-.68.5-1.36.77-2.03.26-.68.52-1.36.8-2.03.28-.71.57-1.41.87-2.11.27-.65.54-1.3.83-1.94.65-1.52,1.32-3.02,2.03-4.53.25-.52.48-1.03.73-1.55h45.7c-.32.52-.64,1.03-.94,1.55-.41.66-.8,1.31-1.18,1.97-.39.66-.77,1.32-1.14,1.98-.38.66-.75,1.32-1.1,1.98-.37.66-.72,1.32-1.06,1.98-.36.66-.7,1.32-1.03,1.98-.29.55-.57,1.1-.84,1.65-.38.77-.75,1.55-1.11,2.31-.62,1.31-1.21,2.61-1.77,3.92-.62,1.4-1.2,2.8-1.74,4.21-.24.61-.48,1.21-.69,1.81-.26.66-.5,1.33-.73,1.99-.24.67-.48,1.33-.69,2-.21.62-.42,1.24-.61,1.86-.48,1.45-.91,2.92-1.31,4.37-.14.49-.28.99-.4,1.48-.15.54-.29,1.07-.42,1.62-.11.45-.23.92-.33,1.37-.09.36-.17.72-.25,1.08-.21.87-.39,1.73-.56,2.6-.1.53-.21,1.05-.3,1.58-.42,2.2-.76,4.39-1.03,6.59-.07.47-.12.94-.17,1.41-.08.58-.13,1.16-.18,1.75-.07.68-.12,1.36-.18,2.05-.05.63-.1,1.25-.12,1.88-.02.22-.03.43-.04.65-.03.57-.06,1.12-.08,1.68-.15,3.98-.08,7.95.22,11.93.03.34.05.69.09,1.03.03.4.07.79.1,1.2.05.58.1,1.16.18,1.74.07.66.15,1.32.24,1.98.08.58.15,1.15.24,1.73.04.31.09.62.14.93.09.57.17,1.13.27,1.69,0,.08.03.15.05.24.1.61.21,1.22.33,1.82.09.51.19,1.01.29,1.52.1.52.21,1.03.32,1.54.1.44.19.88.29,1.32.13.56.26,1.11.4,1.67.29,1.14.58,2.3.91,3.44.17.64.35,1.29.55,1.93.14.49.29.99.45,1.48.39,1.25.8,2.5,1.24,3.75.13.38.27.75.4,1.13.18.51.37,1.01.56,1.53.2.55.41,1.09.62,1.64.18.45.36.92.55,1.38.22.56.45,1.11.68,1.67.92,2.22,1.92,4.44,2.99,6.66.26.52.51,1.04.78,1.57,1.76,3.57,3.71,7.12,5.85,10.67Z"/><g id="clounds"><path class="cls-1" d="M214.84,130H54.8C24.54,130,0,100.89,0,64.99,0,47.04,6.14,30.79,16.06,19.03c5.76-6.84,12.82-12.16,20.69-15.42,4.83,6.77,7.74,15.52,7.74,25.08,0,1.6-.08,3.18-.24,4.73,4.61.83,8.51,4.25,10.6,8.96,4.34-2.9,9.35-4.56,14.69-4.56,14.95,0,27.34,12.98,29.61,29.96.77-.15,1.54-.23,2.34-.23,5.74,0,10.69,3.96,13.03,9.69.12.28.23.57.33.86,4.47-7.1,10.99-12.43,18.59-14.89.03-.01.06-.02.1-.03,2.96-.87,6.08-1.34,9.31-1.34,4.23,0,8.28.8,12.04,2.27.02.01.05.02.08.03,5.98,2.52,11.18,6.85,15.05,12.41.11-.15.23-.3.36-.45,4.82,6.49,7.7,14.72,7.7,23.68,0,.54-.01,1.08-.04,1.61.87-.06,1.74-.1,2.63-.1,16.49,0,30.34,12.21,34.17,28.71Z"/><path class="cls-6" d="M188.27,130H54.8c-20.56,0-38.48-13.45-47.85-33.33-4.43-9.37-6.95-20.18-6.95-31.68,0-17.23,5.66-32.9,14.89-44.53,13.19,3.66,23.09,19.17,23.09,37.74,0,2.86-.23,5.64-.68,8.31,2.36,1.02,4.51,2.52,6.39,4.4,3.53-2.8,7.81-4.44,12.43-4.44,10.5,0,19.28,8.5,21.38,19.84,3.49.17,6.75,1.33,9.61,3.27,4.84-4.48,10.83-7.13,17.33-7.13,13.66,0,25.11,11.72,28.24,27.53,2.81-1.64,5.98-2.56,9.33-2.56,1.36,0,2.69.15,3.97.44,3.06-5.32,7.66-9.17,12.98-10.54,1.4-.37,2.86-.56,4.35-.56,5.27,0,10.09,2.38,13.81,6.33.2-.08.41-.16.61-.23,5.73,6.05,9.73,15.84,10.54,27.14Z"/></g></g></svg>