<?xml version="1.0" encoding="UTF-8"?><svg id="Layer_1" xmlns="http://www.w3.org/2000/svg" viewBox="0 0 300 130"><defs><style>.cls-1{fill:#d3e9fa;}.cls-2{fill:#6db0f2;}.cls-3{fill:#5ea7ee;}.cls-4{fill:#78b8f2;}.cls-5{fill:#84bef4;}.cls-6{fill:#b9dcf8;}</style></defs><g id="day"><path class="cls-3" d="M92.83,128.45c.25.52.51,1.03.77,1.55h-34.9C26.29,130,0,100.89,0,64.99,0,47.04,6.57,30.79,17.2,19.03,27.81,7.28,42.49,0,58.7,0h35.19c-.26.52-.52,1.03-.78,1.55-.75,1.5-1.48,3.01-2.17,4.53-.31.64-.6,1.29-.89,1.94-.32.7-.63,1.4-.93,2.11-.3.67-.58,1.35-.86,2.03-.29.67-.56,1.35-.83,2.03-.31.75-.59,1.5-.88,2.27-.23.6-.46,1.2-.67,1.79-.21.59-.43,1.16-.63,1.75-.51,1.45-1,2.91-1.46,4.36-.21.68-.43,1.36-.63,2.04-.13.43-.26.87-.39,1.3-.13.43-.25.87-.37,1.29-.25.9-.5,1.8-.73,2.7-.03.1-.05.21-.08.31-.09.36-.17.71-.26,1.07-.31,1.2-.58,2.38-.85,3.58-.13.61-.26,1.22-.39,1.81-.02.08-.04.16-.05.26-.13.66-.26,1.32-.39,1.98-.26,1.36-.5,2.73-.71,4.09-.11.68-.21,1.36-.31,2.04-.1.69-.19,1.37-.28,2.05-.17,1.36-.33,2.73-.46,4.1-.06.68-.12,1.36-.17,2.05-.06.74-.11,1.49-.16,2.24-.04.62-.07,1.24-.1,1.86-.03.69-.06,1.37-.08,2.05-.04,1.36-.06,2.73-.06,4.09v.02c0,.67.01,1.35.02,2.02.01.52.02,1.04.03,1.56v.04c.02.63.04,1.27.07,1.9.04,1.15.11,2.31.19,3.46.04.59.08,1.16.13,1.74.02.33.05.66.08,1,.07.71.13,1.43.21,2.14.02.28.06.55.09.81.03.27.06.54.09.81.09.74.18,1.47.29,2.22.09.7.19,1.4.31,2.1.08.59.18,1.19.29,1.77.11.73.24,1.46.38,2.19.12.66.24,1.32.38,1.98.09.49.2,1.01.31,1.5.01.03.01.05.02.08.59,2.82,1.28,5.64,2.06,8.45.16.55.32,1.09.47,1.63.16.57.33,1.12.5,1.68.17.56.35,1.12.52,1.68.16.54.34,1.07.51,1.6.36,1.07.71,2.13,1.1,3.21.21.63.45,1.26.68,1.89.2.58.43,1.15.64,1.73.36.92.72,1.85,1.09,2.76.19.46.39.94.58,1.4.26.66.54,1.31.84,1.97.26.62.53,1.23.8,1.85.22.51.46,1.01.69,1.52.31.67.62,1.34.94,2.01.25.54.51,1.07.77,1.61.01.03.03.05.04.08.12.26.24.52.38.77Z"/><path class="cls-5" d="M300,64.99c0,.56-.01,1.12-.02,1.68-.03,1.11-.08,2.23-.15,3.32-1.13,15.97-7.62,30.31-17.53,40.96-10.93,11.77-26.04,19.05-42.73,19.05h-51.07c-.44-.52-.88-1.03-1.3-1.55-6.96-8.34-12.52-16.71-16.7-25.11-.52-1.03-1.01-2.05-1.47-3.08-15.02-32.87-8.81-66.18,18.62-98.72.43-.52.87-1.03,1.31-1.55h50.6c31.81,0,57.89,26.44,60.26,59.99.07,1.1.12,2.21.15,3.32.01.56.02,1.12.02,1.68Z"/><path class="cls-4" d="M187.19,128.45c.43.52.87,1.03,1.3,1.55h-45.99c-.34-.52-.68-1.03-1.01-1.55-2.29-3.55-4.38-7.1-6.27-10.67-.29-.53-.56-1.05-.84-1.57-1.14-2.22-2.21-4.44-3.2-6.66-.25-.56-.5-1.11-.73-1.67-.2-.46-.4-.93-.59-1.38-.22-.55-.45-1.09-.66-1.64-.2-.52-.41-1.02-.6-1.53-.14-.38-.29-.75-.43-1.13-.47-1.25-.91-2.5-1.32-3.75-.16-.49-.33-.99-.48-1.48-.21-.64-.41-1.29-.59-1.93-.36-1.14-.67-2.3-.98-3.44-.15-.56-.29-1.11-.43-1.67-.11-.44-.21-.88-.32-1.32-.12-.51-.23-1.02-.35-1.54-.11-.51-.22-1.01-.32-1.52-.13-.61-.24-1.22-.36-1.82-.02-.08-.04-.15-.05-.24-.1-.56-.19-1.12-.29-1.69-.06-.31-.11-.62-.15-.93-.09-.58-.17-1.15-.25-1.73-.09-.66-.18-1.32-.25-1.98-.08-.58-.14-1.16-.19-1.74-.04-.4-.08-.79-.11-1.2-.04-.34-.06-.69-.09-1.03-.32-3.98-.4-7.95-.23-11.93.02-.56.05-1.11.08-1.68.01-.22.02-.43.04-.65.03-.63.08-1.25.13-1.88.06-.69.12-1.37.19-2.05.05-.59.11-1.18.19-1.75.05-.47.11-.94.18-1.41.29-2.2.65-4.39,1.1-6.59.1-.53.21-1.05.33-1.58.18-.87.38-1.73.6-2.6.08-.36.17-.72.26-1.08.11-.45.23-.92.36-1.37.14-.55.29-1.08.45-1.62.13-.49.28-.99.43-1.48.43-1.45.9-2.92,1.41-4.37.21-.62.43-1.24.65-1.86.23-.67.49-1.33.74-2,.25-.66.51-1.32.78-1.99.23-.61.49-1.21.74-1.81.58-1.4,1.2-2.8,1.86-4.21.61-1.31,1.24-2.61,1.9-3.92.39-.76.78-1.54,1.19-2.31.3-.55.59-1.1.9-1.65.36-.66.72-1.32,1.1-1.98.38-.66.75-1.32,1.14-1.98s.78-1.32,1.18-1.98.8-1.32,1.22-1.98c.41-.66.83-1.31,1.26-1.97.33-.52.66-1.03,1.01-1.55h46.1c-.45.52-.89,1.03-1.31,1.55-27.44,32.54-33.64,65.85-18.62,98.72.46,1.03.95,2.05,1.47,3.08,4.18,8.4,9.74,16.77,16.7,25.11Z"/><path class="cls-2" d="M141.49,128.45c.33.52.67,1.03,1.01,1.55h-48.89c-.26-.52-.52-1.03-.77-1.55-.13-.26-.25-.52-.38-.77-.01-.03-.03-.05-.04-.08-.26-.54-.52-1.07-.77-1.61-.32-.67-.63-1.34-.94-2.01-.23-.51-.47-1.01-.69-1.52-.28-.62-.54-1.23-.8-1.85-.29-.66-.56-1.31-.84-1.97-.19-.46-.39-.94-.58-1.4-.37-.92-.73-1.85-1.09-2.76-.21-.58-.44-1.15-.64-1.73-.23-.63-.47-1.26-.68-1.89-.39-1.07-.74-2.13-1.1-3.21-.17-.53-.35-1.06-.51-1.6-.17-.56-.35-1.12-.52-1.68-.17-.56-.34-1.11-.5-1.68-.15-.54-.31-1.08-.47-1.63-.77-2.81-1.47-5.63-2.06-8.45-.01-.03-.01-.05-.02-.08-.1-.49-.21-1.01-.31-1.5-.13-.66-.25-1.32-.38-1.98-.13-.72-.26-1.45-.38-2.19-.1-.59-.2-1.19-.29-1.77-.11-.7-.21-1.4-.31-2.1-.1-.74-.19-1.47-.29-2.22-.03-.28-.06-.55-.09-.81-.03-.27-.07-.54-.09-.81-.08-.71-.14-1.43-.21-2.14-.03-.34-.06-.67-.08-1-.05-.58-.09-1.15-.13-1.74-.08-1.15-.15-2.31-.19-3.46-.03-.63-.05-1.27-.07-1.9v-.04c-.01-.52-.02-1.04-.03-1.56-.01-.67-.02-1.35-.02-2.02v-.02c0-1.36.02-2.73.06-4.09.02-.68.05-1.36.08-2.05.03-.62.06-1.24.1-1.86.05-.74.1-1.49.16-2.24.05-.69.11-1.37.17-2.05.13-1.37.29-2.74.46-4.1.08-.68.17-1.36.28-2.05.09-.68.19-1.36.31-2.04.21-1.36.45-2.73.71-4.09.12-.66.25-1.32.39-1.98.01-.09.03-.18.05-.26.12-.6.25-1.21.39-1.81.26-1.2.54-2.38.85-3.58.09-.36.17-.71.26-1.07.03-.1.05-.21.08-.31.23-.9.48-1.8.73-2.7.11-.42.23-.86.37-1.29.12-.43.25-.87.39-1.3.2-.68.42-1.36.63-2.04.46-1.45.95-2.91,1.46-4.36.2-.59.42-1.16.63-1.75.21-.6.44-1.2.67-1.79.29-.76.57-1.52.88-2.27.26-.68.54-1.36.83-2.03.28-.68.56-1.36.86-2.03.3-.71.61-1.41.93-2.11.29-.65.58-1.3.89-1.94.69-1.52,1.42-3.02,2.17-4.53.26-.52.52-1.03.78-1.55h48.96c-.35.52-.68,1.03-1.01,1.55-.44.66-.86,1.31-1.26,1.97-.42.66-.83,1.32-1.22,1.98-.41.66-.8,1.32-1.18,1.98-.4.66-.77,1.32-1.14,1.98-.39.66-.75,1.32-1.1,1.98-.32.55-.61,1.1-.9,1.65-.41.77-.8,1.55-1.19,2.31-.66,1.31-1.29,2.61-1.9,3.92-.66,1.4-1.28,2.8-1.86,4.21-.25.61-.51,1.21-.74,1.81-.28.66-.54,1.33-.78,1.99-.25.67-.51,1.33-.74,2-.22.62-.45,1.24-.65,1.86-.51,1.45-.98,2.92-1.41,4.37-.15.49-.3.99-.43,1.48-.16.54-.31,1.07-.45,1.62-.12.45-.24.92-.36,1.37-.09.36-.18.72-.26,1.08-.22.87-.42,1.73-.6,2.6-.11.53-.22,1.05-.33,1.58-.45,2.2-.82,4.39-1.1,6.59-.07.47-.13.94-.18,1.41-.08.58-.14,1.16-.19,1.75-.07.68-.13,1.36-.19,2.05-.05.63-.1,1.25-.13,1.88-.02.22-.03.43-.04.65-.03.57-.06,1.12-.08,1.68-.16,3.98-.08,7.95.23,11.93.03.34.05.69.09,1.03.03.4.07.79.11,1.2.05.58.11,1.16.19,1.74.07.66.16,1.32.25,1.98.08.58.16,1.15.25,1.73.04.31.09.62.15.93.09.57.18,1.13.29,1.69.01.08.03.15.05.24.11.61.22,1.22.36,1.82.09.51.2,1.01.32,1.52.11.52.22,1.03.35,1.54.1.44.2.88.32,1.32.14.56.28,1.11.43,1.67.31,1.14.62,2.3.98,3.44.18.64.38,1.29.59,1.93.15.49.32.99.48,1.48.42,1.25.86,2.5,1.32,3.75.14.38.29.75.43,1.13.19.51.4,1.01.6,1.53.21.55.44,1.09.66,1.64.19.45.39.92.59,1.38.23.56.48,1.11.73,1.67.99,2.22,2.06,4.44,3.2,6.66.28.52.55,1.04.84,1.57,1.88,3.57,3.97,7.12,6.27,10.67Z"/><g id="clounds"><path class="cls-6" d="M0,64.82h0c0,35.9,26.29,65.01,58.71,65.01h182.58c16.21,0,30.89-7.28,41.51-19.04,2.86-3.16,5.42-6.64,7.64-10.4,6.05-10.22,9.56-22.44,9.56-35.56s-3.51-25.34-9.56-35.56c-.26,0-.52-.01-.78-.01-11.42,0-21.45,6.59-27.14,16.53-6.62-10.41-17.89-17.26-30.68-17.26-20.38,0-36.9,17.4-36.9,38.86,0,1.13.05,2.25.14,3.36-.46-.05-.92-.07-1.39-.07-4.59,0-8.71,2.21-11.54,5.71-6.75-9.04-17.23-14.84-29-14.84-12.43,0-23.43,6.47-30.11,16.39-2.34-6.19-7.87-10.55-14.31-10.55-.86,0-1.69.08-2.51.23-2.43-16.98-15.71-29.95-31.73-29.95-5.72,0-11.08,1.65-15.74,4.56-2.25-4.72-6.42-8.13-11.36-8.96.17-1.55.26-3.12.26-4.73,0-9.56-3.12-18.31-8.29-25.08-8.43,3.25-15.99,8.58-22.17,15.42C6.57,30.62,0,46.87,0,64.82Z"/><path class="cls-1" d="M0,65c0,11.5,2.7,22.31,7.44,31.68,10.04,19.88,29.24,33.32,51.27,33.32h182.58c7.27,0,14.24-1.47,20.68-4.16,5.41-2.24,10.45-5.36,14.96-9.19,2.07-1.75,4.03-3.65,5.87-5.69,1.01-1.12,1.99-2.28,2.92-3.48.17-.21.34-.43.5-.65.18-.24.37-.48.54-.72.09-.11.17-.23.26-.35.24-.33.48-.67.71-1,.07-.09.13-.18.19-.27.2-.29.4-.58.59-.87.17-.24.33-.48.48-.72.12-.17.22-.34.33-.51.15-.23.3-.46.43-.69.2-.32.4-.64.59-.97.06-.08.11-.17.16-.26.14-.24.29-.49.43-.74.4-.69.78-1.39,1.16-2.1.12-.23.23-.46.36-.69,1.09-2.13,2.07-4.34,2.94-6.62.17-.46.34-.91.51-1.38.02-.05.04-.11.06-.16.17-.47.33-.94.48-1.42.17-.5.33-1,.48-1.51.14-.45.28-.91.41-1.37.02-.08.05-.17.07-.25.26-.95.51-1.91.73-2.88.1-.4.19-.8.27-1.2.06-.24.1-.47.15-.71.11-.55.22-1.09.31-1.64.07-.37.13-.73.19-1.1.03-.2.07-.39.09-.59.03-.19.06-.37.08-.56.05-.29.09-.59.13-.88.07-.46.12-.92.17-1.38.06-.49.11-.99.15-1.48.01-.08.02-.17.03-.26.05-.51.09-1.02.12-1.53.04-.52.07-1.03.09-1.55,0-.11.01-.21.01-.32.03-.45.04-.9.05-1.35,0-.06,0-.12,0-.18.02-.53.02-1.07.02-1.6s0-1.07-.02-1.6c0-.07,0-.14,0-.2,0-.45-.02-.89-.05-1.33,0-.11,0-.23-.01-.34-.02-.47-.05-.94-.08-1.42,0-.04,0-.08-.01-.13-.03-.5-.07-1-.12-1.49,0-.12-.02-.24-.03-.36-.04-.44-.09-.88-.14-1.31,0-.05,0-.08-.02-.13-.05-.45-.11-.9-.17-1.35-.03-.19-.05-.39-.08-.58h0c-5.64-6.53-13.41-10.56-21.99-10.56-12.23,0-22.82,8.19-27.92,20.1-2.7-.89-5.54-1.36-8.48-1.36-17.21,0-31.17,16.22-31.17,36.23,0,2.75.26,5.44.77,8.01-3.83-3.36-8.59-5.35-13.75-5.35-2.42,0-4.76.44-6.96,1.26-3.98-3.94-9.15-6.32-14.79-6.32-7.65,0-14.43,4.38-18.57,11.1-1.38-.29-2.81-.45-4.26-.45-3.59,0-6.98.92-9.99,2.57-3.35-15.81-15.62-27.54-30.26-27.54-6.96,0-13.38,2.65-18.57,7.13-3.06-1.93-6.56-3.1-10.29-3.27-2.26-11.34-11.66-19.84-22.91-19.84-4.95,0-9.53,1.64-13.31,4.44-2.01-1.88-4.32-3.38-6.85-4.4.48-2.67.73-5.45.73-8.31,0-18.57-10.61-34.08-24.74-37.74C6.06,32.1,0,47.77,0,65Z"/></g></g></svg>