<?xml version="1.0" encoding="UTF-8"?>
<svg id="Layer_1" data-name="Layer 1" xmlns="http://www.w3.org/2000/svg" viewBox="0 0 600 240">
  <defs>
    <style>
      .cls-1 {
        fill: #373c4b;
      }

      .cls-2 {
        fill: #5e626d;
      }

      .cls-3 {
        fill: #212736;
      }

      .cls-4 {
        stroke: #a2aec1;
        stroke-miterlimit: 10;
      }

      .cls-4, .cls-5 {
        fill: #d1d6e0;
      }

      .cls-6 {
        fill: #4c505c;
      }

      .cls-7 {
        fill: #a2aec1;
      }
    </style>
  </defs>
  <g id="night">
    <g id="gradient">
      <path class="cls-7" d="M482.51.3H117.5C52.61.3,0,52.89,0,117.79v4.42C0,187.1,52.61,239.7,117.5,239.7h365.01c64.89,0,117.49-52.61,117.49-117.5v-4.42C600,52.89,547.4.3,482.51.3ZM479.21,235.24H120.79c-31.82,0-60.64-12.9-81.49-33.76C18.44,180.63,5.54,151.81,5.54,119.99,5.54,56.35,57.14,4.75,120.79,4.75h358.42c31.82,0,60.64,12.9,81.49,33.75,20.86,20.85,33.76,49.67,33.76,81.49,0,63.65-51.6,115.25-115.25,115.25Z"/>
      <path class="cls-1" d="M386.99,235.24h-72.45c42.02-76.07,41.84-154.44-.53-230.49h72.56c32.56,76.05,32.71,154.42.42,230.49Z"/>
      <path class="cls-3" d="M594.46,119.99c0,63.65-51.6,115.25-115.25,115.25h-92.22c32.29-76.07,32.14-154.44-.42-230.49h92.64c31.82,0,60.64,12.9,81.49,33.75,20.86,20.85,33.76,49.67,33.76,81.49Z"/>
      <path class="cls-6" d="M314.54,235.24h-77.49c12.18-15.67,21.84-31.44,28.98-47.26.82-1.82,1.61-3.64,2.36-5.46,24.54-59.22,13.84-119.19-32.09-177.77h77.71c42.37,76.05,42.55,154.42.53,230.49Z"/>
      <path class="cls-2" d="M268.39,182.52c-.75,1.82-1.54,3.64-2.36,5.46-7.14,15.82-16.8,31.59-28.98,47.26h-116.26c-31.82,0-60.64-12.9-81.49-33.76C18.44,180.63,5.54,151.81,5.54,119.99,5.54,56.35,57.14,4.75,120.79,4.75h115.51c45.93,58.58,56.63,118.55,32.09,177.77Z"/>
    </g>
    <g id="stars">
      <polygon class="cls-4" points="477.29 52 453.47 57.49 476.76 64.9 482.25 88.71 489.66 65.43 513.47 59.94 490.19 52.53 484.7 28.71 477.29 52"/>
      <polygon class="cls-4" points="560.91 119.6 557.44 113.6 553.98 119.6 547.05 119.6 550.51 125.6 547.05 131.6 553.98 131.6 557.44 137.6 560.91 131.6 567.84 131.6 564.37 125.6 567.84 119.6 560.91 119.6"/>
      <polygon class="cls-4" points="327.41 74.93 323.94 68.93 320.47 74.93 313.55 74.93 317.01 80.93 313.55 86.93 320.47 86.93 323.94 92.93 327.41 86.93 334.33 86.93 330.87 80.93 334.33 74.93 327.41 74.93"/>
      <polygon class="cls-4" points="251.17 43.01 245.17 39.55 245.17 46.48 239.17 49.94 245.17 53.41 245.17 60.33 251.17 56.87 257.17 60.33 257.17 53.41 263.17 49.94 257.17 46.48 257.17 39.55 251.17 43.01"/>
      <polygon class="cls-4" points="381.62 35.89 375.62 32.43 375.62 39.36 369.62 42.82 375.62 46.29 375.62 53.22 381.62 49.75 387.62 53.22 387.63 46.29 393.62 42.82 387.63 39.36 387.62 32.43 381.62 35.89"/>
      <polygon class="cls-4" points="261.95 116.82 258.93 108.99 255.99 116.85 247.97 117.44 254.18 122.8 252.24 130.99 259.02 126.45 265.84 130.92 263.82 122.75 269.97 117.32 261.95 116.82"/>
      <polygon class="cls-4" points="487.7 190.68 484.68 198.5 481.75 190.65 473.73 190.05 479.93 184.69 477.99 176.5 484.77 181.04 491.59 176.57 489.57 184.74 495.73 190.17 487.7 190.68"/>
      <polygon class="cls-4" points="280.9 179.65 257.08 185.14 280.37 192.55 285.86 216.36 293.27 193.07 317.08 187.58 293.8 180.17 288.31 156.36 280.9 179.65"/>
      <polygon class="cls-4" points="385.44 136.74 381.98 130.75 378.51 136.74 371.59 136.75 375.05 142.75 371.59 148.75 378.51 148.75 381.98 154.75 385.44 148.75 392.37 148.75 388.91 142.75 392.37 136.75 385.44 136.74"/>
      <polygon class="cls-4" points="94.81 95.51 71 101 94.29 108.41 99.78 132.22 107.19 108.93 131 103.44 107.71 96.03 102.22 72.22 94.81 95.51"/>
      <polygon class="cls-4" points="171.71 67.9 168.7 60.08 165.76 67.93 157.74 68.53 163.95 73.89 162.01 82.08 168.78 77.54 175.61 82.01 173.58 73.84 179.74 68.41 171.71 67.9"/>
      <polygon class="cls-4" points="67.56 157.4 61.56 153.94 61.56 160.87 55.56 164.33 61.56 167.8 61.56 174.72 67.56 171.26 73.56 174.72 73.56 167.8 79.56 164.33 73.56 160.87 73.56 153.94 67.56 157.4"/>
      <polygon class="cls-4" points="157.35 153.06 154.33 160.88 151.39 153.03 143.37 152.43 149.58 147.07 147.64 138.88 154.42 143.42 161.24 138.95 159.22 147.12 165.37 152.55 157.35 153.06"/>
    </g>
    <g id="moon">
      <path class="cls-5" d="M226.68,119.99c0,57.22-46.38,103.6-103.59,103.6S19.49,177.21,19.49,119.99,65.87,16.39,123.09,16.39s103.59,46.39,103.59,103.6Z"/>
      <ellipse class="cls-7" cx="71.86" cy="118.75" rx="31.1" ry="31.05"/>
      <ellipse class="cls-7" cx="161.36" cy="157.95" rx="22.37" ry="22.33"/>
      <ellipse class="cls-7" cx="117.83" cy="65.44" rx="15.52" ry="15.5"/>
    </g>
  </g>
</svg>