<?xml version="1.0" encoding="UTF-8"?><svg id="Layer_1" xmlns="http://www.w3.org/2000/svg" viewBox="0 0 280.05 130.01"><defs><style>.cls-1{fill:#32374d;}.cls-2{fill:#212736;}.cls-3{fill:#373c54;}.cls-4{fill:#282c41;}.cls-5{fill:#a2aec1;}</style></defs><g id="night"><path class="cls-2" d="M280.03,65.01c0,35.9-24.53,65-54.79,65h-122.28c.07-.09.14-.17.2-.26,10.86-.94,20.95-4.56,29.61-10.19,0,0,0,0,0,0,17.84-11.58,29.64-31.68,29.64-54.54s-12-43.29-30.08-54.82c0-.01,0-.01,0-.01C123.64,4.62,113.54,1.09,102.68.22c-.06-.07-.11-.14-.17-.21h122.73c15.13,0,28.83,7.28,38.74,19.04,9.92,11.76,16.05,28.01,16.05,45.96Z"/><path class="cls-3" d="M130.02,65c0,8.55-1.65,16.7-4.65,24.17-7.62,19.05-24,33.63-44.15,38.8-2.64.67-5.34,1.2-8.1,1.53-2.65.33-5.36.5-8.1.5h-11.03c-14.9,0-28.4-7.27-38.15-19.03C6.37,99.57.4,83.97.04,66.68c-.01-.56-.02-1.12-.02-1.68s.01-1.12.02-1.68C.78,28.2,24.65,0,53.99,0h11.03c2.74,0,5.45.17,8.1.5,2.76.35,5.46.86,8.1,1.55,19.6,5.01,35.63,18.95,43.51,37.24,3.41,7.88,5.29,16.57,5.29,25.71Z"/><path class="cls-3" d="M103.16,129.75c-.06.09-.13.17-.2.26h-5.54c1.93,0,3.85-.08,5.74-.26Z"/><path class="cls-4" d="M162.42,65.01c0,22.86-11.8,42.96-29.64,54.54,0,0,0,0,0,0-8.66,5.63-18.75,9.25-29.61,10.19-1.89.18-3.81.26-5.74.26h-16.19c2.74,0,5.45-.17,8.1-.5,6.24-.77,12.21-2.44,17.77-4.86,23.02-10,39.12-32.94,39.12-59.64S129.84,14.97,106.5,5.11c-5.39-2.28-11.15-3.85-17.17-4.6C86.68.18,83.97,0,81.23,0h16.19c1.77,0,3.53.07,5.26.21,10.86.87,20.96,4.4,29.65,9.96,0,0,0,0,0,.01,18.08,11.53,30.08,31.77,30.08,54.82Z"/><path class="cls-1" d="M146.21,65c0,26.7-16.1,49.64-39.12,59.64-5.56,2.42-11.53,4.09-17.77,4.86-2.65.33-5.36.5-8.1.5h-16.2c2.74,0,5.45-.17,8.1-.5,2.76-.33,5.46-.86,8.1-1.53,20.15-5.17,36.53-19.75,44.15-38.8,3-7.47,4.65-15.62,4.65-24.17,0-9.14-1.88-17.83-5.29-25.71-7.88-18.29-23.91-32.23-43.51-37.24-2.64-.69-5.34-1.2-8.1-1.55C70.47.17,67.76,0,65.02,0h16.2c2.74,0,5.45.17,8.1.5,6.02.75,11.78,2.32,17.17,4.61,23.34,9.86,39.72,32.95,39.72,59.89Z"/><g id="stars"><polygon class="cls-5" points="228.15 26.55 221.32 28.56 228 31.28 229.58 40.01 231.7 31.47 238.54 29.46 231.86 26.74 230.28 18.01 228.15 26.55"/><polygon class="cls-5" points="263.83 63.98 262.59 61.23 261.34 63.98 258.86 63.98 260.1 66.73 258.86 69.48 261.34 69.48 262.59 72.23 263.83 69.48 266.31 69.48 265.07 66.73 266.31 63.98 263.83 63.98"/><polygon class="cls-5" points="160.74 38.79 159.5 36.04 158.25 38.79 155.77 38.79 157.01 41.54 155.77 44.29 158.25 44.29 159.5 47.04 160.74 44.29 163.23 44.29 161.98 41.54 163.23 38.79 160.74 38.79"/><polygon class="cls-5" points="127.37 20.73 125.11 19.06 125.11 22.39 122.85 24.06 125.11 25.73 125.11 29.06 127.37 27.4 129.63 29.06 129.63 25.73 131.89 24.06 129.63 22.39 129.63 19.06 127.37 20.73"/><polygon class="cls-5" points="184.96 16.71 182.7 15.05 182.7 18.38 180.44 20.05 182.7 21.71 182.7 25.05 184.96 23.38 187.22 25.05 187.22 21.71 189.48 20.05 187.22 18.38 187.22 15.05 184.96 16.71"/><polygon class="cls-5" points="131.87 62.13 130.8 58.57 129.75 62.14 126.9 62.41 129.11 64.85 128.42 68.57 130.83 66.51 133.26 68.54 132.54 64.82 134.73 62.36 131.87 62.13"/><polygon class="cls-5" points="231.54 103.09 230.47 106.64 229.42 103.07 226.57 102.8 228.78 100.37 228.09 96.64 230.5 98.71 232.92 96.68 232.21 100.39 234.4 102.86 231.54 103.09"/><polygon class="cls-5" points="141.45 98.54 134.61 100.55 141.3 103.27 142.87 112 145 103.46 151.84 101.45 145.15 98.73 143.58 90 141.45 98.54"/><polygon class="cls-5" points="186.36 73.65 185.12 70.9 183.88 73.65 181.39 73.65 182.63 76.4 181.39 79.15 183.88 79.15 185.12 81.9 186.36 79.15 188.85 79.15 187.61 76.4 188.85 73.65 186.36 73.65"/><polygon class="cls-5" points="56.51 78.67 49.67 80.69 56.36 83.4 57.93 92.13 60.06 83.6 66.9 81.58 60.21 78.87 58.64 70.13 56.51 78.67"/><polygon class="cls-5" points="73.61 43.34 72.54 39.79 71.49 43.36 68.64 43.63 70.85 46.06 70.16 49.79 72.57 47.72 75 49.75 74.28 46.04 76.47 43.57 73.61 43.34"/><polygon class="cls-5" points="30.17 50.9 27.91 49.24 27.91 52.57 25.65 54.24 27.91 55.9 27.91 59.24 30.17 57.57 32.43 59.24 32.43 55.9 34.69 54.24 32.43 52.57 32.43 49.24 30.17 50.9"/><polygon class="cls-5" points="81.24 102.45 80.16 106 79.12 102.43 76.26 102.16 78.47 99.72 77.78 96 80.19 98.07 82.62 96.03 81.9 99.75 84.09 102.22 81.24 102.45"/></g></g></svg>