<?xml version="1.0" encoding="UTF-8"?><svg id="Layer_1" xmlns="http://www.w3.org/2000/svg" viewBox="0 0 280.01 130"><defs><style>.cls-1{fill:#212736;}.cls-2{fill:#a2aec1;}</style></defs><g id="night_simple_"><rect class="cls-1" y="0" width="280" height="130" rx="65" ry="65"/><g id="stars"><polygon class="cls-2" points="227.11 25.32 216.4 28.34 226.88 32.41 229.35 45.51 232.68 32.7 243.4 29.68 232.92 25.61 230.45 12.51 227.11 25.32"/><polygon class="cls-2" points="263.46 64.73 262.55 62.73 261.65 64.73 259.84 64.73 260.74 66.73 259.84 68.73 261.65 68.73 262.55 70.73 263.46 68.73 265.26 68.73 264.36 66.73 265.26 64.73 263.46 64.73"/><polygon class="cls-2" points="160.37 39.54 159.47 37.54 158.57 39.54 156.76 39.54 157.66 41.54 156.76 43.54 158.57 43.54 159.47 45.54 160.37 43.54 162.18 43.54 161.28 41.54 162.18 39.54 160.37 39.54"/><polygon class="cls-2" points="127.35 21.39 125.54 20.06 125.54 22.73 123.73 24.06 125.54 25.4 125.54 28.06 127.35 26.73 129.15 28.06 129.15 25.4 130.96 24.06 129.15 22.73 129.15 20.06 127.35 21.39"/><polygon class="cls-2" points="184.94 17.38 183.13 16.05 183.13 18.71 181.32 20.05 183.13 21.38 183.13 24.05 184.94 22.72 186.74 24.05 186.74 21.38 188.55 20.05 186.74 18.71 186.74 16.05 184.94 17.38"/><polygon class="cls-2" points="131.64 62.41 130.78 59.57 129.94 62.42 127.66 62.64 129.43 64.59 128.87 67.57 130.8 65.92 132.75 67.54 132.17 64.57 133.92 62.6 131.64 62.41"/><polygon class="cls-2" points="231.3 102.79 230.44 105.63 229.6 102.78 227.32 102.56 229.09 100.61 228.53 97.63 230.46 99.29 232.4 97.66 231.83 100.63 233.58 102.6 231.3 102.79"/><polygon class="cls-2" points="141.42 98.53 134.59 100.54 141.27 103.26 142.85 111.99 144.98 103.45 151.81 101.44 145.13 98.72 143.55 89.99 141.42 98.53"/><polygon class="cls-2" points="186 74.4 185.09 72.4 184.19 74.4 182.38 74.4 183.28 76.4 182.38 78.4 184.19 78.4 185.09 80.4 186 78.4 187.8 78.4 186.9 76.4 187.8 74.4 186 74.4"/><polygon class="cls-2" points="56.81 79.11 51.22 80.76 56.69 82.98 57.98 90.13 59.72 83.14 65.31 81.49 59.84 79.27 58.55 72.13 56.81 79.11"/><polygon class="cls-2" points="73.38 43.63 72.52 40.79 71.69 43.64 69.4 43.86 71.17 45.81 70.62 48.79 72.55 47.13 74.49 48.76 73.91 45.79 75.67 43.81 73.38 43.63"/><polygon class="cls-2" points="30.16 51.57 28.35 50.23 28.35 52.9 26.54 54.23 28.35 55.57 28.35 58.23 30.16 56.9 31.97 58.23 31.97 55.57 33.77 54.23 31.97 52.9 31.97 50.23 30.16 51.57"/><polygon class="cls-2" points="81 102.15 80.14 104.99 79.31 102.13 77.02 101.92 78.79 99.97 78.24 96.99 80.17 98.64 82.11 97.02 81.54 99.99 83.29 101.96 81 102.15"/></g></g></svg>