<?xml version="1.0" encoding="UTF-8"?><svg id="Layer_1" xmlns="http://www.w3.org/2000/svg" viewBox="0 0 280 130"><defs><style>.cls-1{fill:#373c4b;}.cls-2{fill:#5e626d;}.cls-3{fill:#212736;}.cls-4{fill:#4c505c;}.cls-5{fill:#d1d6e0;}.cls-6{fill:#a2aec1;}</style></defs><g id="night"><path class="cls-3" d="M280,65c0,35.9-24.53,65-54.79,65h-32.34c.33-.7.66-1.38.97-2.08,19.15-41.57,19.06-84.3-.26-125.85-.32-.7-.65-1.39-.98-2.08h32.61c15.13,0,28.83,7.28,38.74,19.04,9.92,11.76,16.05,28.01,16.05,45.96Z"/><path class="cls-2" d="M121.32,100.26c-.44,1.03-.9,2.06-1.38,3.08-3.86,8.23-8.99,16.42-15.37,24.57-.54.69-1.09,1.38-1.65,2.08h-48.96c-14.9,0-28.39-7.27-38.15-19.04C6.04,99.2,0,82.95,0,65,0,29.1,24.16,0,53.96,0h48.51c.57.7,1.12,1.39,1.67,2.08,25.56,32.39,31.28,65.49,17.17,98.19Z"/><path class="cls-4" d="M166.82,68.27c-.02,1-.07,2-.12,3,0,.03,0,.07,0,.1-1.09,18.95-7.24,37.86-18.44,56.55-.42.7-.84,1.38-1.26,2.08h-44.07c.56-.7,1.11-1.39,1.65-2.08,6.38-8.15,11.51-16.35,15.37-24.57.48-1.03.94-2.06,1.38-3.08,14.11-32.7,8.39-65.8-17.17-98.19-.55-.69-1.1-1.38-1.67-2.08h44.19c.43.69.86,1.38,1.27,2.08,10.98,18.17,17.19,36.57,18.62,55,.05.58.09,1.17.11,1.77.03.42.05.84.07,1.26.05.86.08,1.72.1,2.59.05,1.86.04,3.72,0,5.59Z"/><path class="cls-1" d="M193.84,127.92c-.31.7-.64,1.38-.97,2.08h-45.87c.43-.7.85-1.38,1.26-2.08,11.2-18.69,17.34-37.6,18.44-56.55,0-.03,0-.07,0-.1.06-1,.1-2,.12-3,.06-1.86.06-3.73,0-5.59-.02-.86-.05-1.72-.1-2.59-.02-.42-.04-.84-.07-1.26-.03-.59-.07-1.18-.11-1.77-1.43-18.43-7.64-36.83-18.62-55-.42-.7-.85-1.39-1.27-2.08h45.94c.33.69.66,1.38.98,2.08,19.31,41.55,19.41,84.28.26,125.85Z"/><g id="stars"><polygon class="cls-5" points="232.24 26.65 221.72 29.74 232 33.92 234.43 47.35 237.7 34.22 248.21 31.12 237.93 26.94 235.51 13.51 232.24 26.65"/><polygon class="cls-5" points="269.15 64.77 267.62 61.39 266.09 64.77 263.04 64.77 264.56 68.16 263.04 71.54 266.09 71.54 267.62 74.93 269.15 71.54 272.21 71.54 270.68 68.16 272.21 64.77 269.15 64.77"/><polygon class="cls-5" points="166.06 39.58 164.53 36.2 163 39.58 159.95 39.58 161.48 42.97 159.95 46.35 163 46.35 164.53 49.73 166.06 46.35 169.12 46.35 167.59 42.97 169.12 39.58 166.06 39.58"/><polygon class="cls-5" points="132.41 21.58 129.76 19.63 129.76 23.53 127.11 25.49 129.76 27.44 129.76 31.35 132.41 29.4 135.06 31.35 135.06 27.44 137.71 25.49 135.06 23.53 135.06 19.63 132.41 21.58"/><polygon class="cls-5" points="190 17.56 187.35 15.61 187.35 19.52 184.7 21.47 187.35 23.43 187.35 27.33 190 25.38 192.65 27.33 192.65 23.43 195.3 21.47 192.65 19.52 192.65 15.61 190 17.56"/><polygon class="cls-5" points="137.17 63.2 135.83 58.79 134.54 63.22 131 63.56 133.74 66.58 132.88 71.2 135.87 68.64 138.88 71.16 137.99 66.55 140.71 63.49 137.17 63.2"/><polygon class="cls-5" points="236.83 104.86 235.5 109.27 234.2 104.84 230.66 104.51 233.4 101.48 232.55 96.87 235.54 99.43 238.55 96.91 237.66 101.51 240.38 104.58 236.83 104.86"/><polygon class="cls-5" points="145.53 98.64 135.02 101.74 145.3 105.92 147.72 119.35 151 106.21 161.51 103.12 151.23 98.94 148.8 85.51 145.53 98.64"/><polygon class="cls-5" points="191.69 74.44 190.16 71.06 188.63 74.44 185.57 74.44 187.1 77.83 185.57 81.21 188.63 81.21 190.16 84.6 191.69 81.21 194.75 81.21 193.22 77.83 194.75 74.44 191.69 74.44"/><polygon class="cls-5" points="60.59 78.77 50.08 81.87 60.36 86.05 62.78 99.48 66.05 86.35 76.57 83.25 66.29 79.07 63.86 65.64 60.59 78.77"/><polygon class="cls-5" points="78.91 44.42 77.57 40.01 76.28 44.44 72.74 44.77 75.48 47.8 74.62 52.42 77.61 49.86 80.62 52.37 79.73 47.77 82.45 44.71 78.91 44.42"/><polygon class="cls-5" points="35.21 51.75 32.56 49.8 32.56 53.71 29.91 55.66 32.56 57.62 32.56 61.52 35.21 59.57 37.86 61.52 37.86 57.62 40.51 55.66 37.86 53.71 37.86 49.8 35.21 51.75"/><polygon class="cls-5" points="86.53 104.22 85.2 108.63 83.9 104.2 80.36 103.87 83.1 100.84 82.24 96.22 85.23 98.78 88.25 96.26 87.35 100.87 90.07 103.93 86.53 104.22"/></g><g id="moon"><path class="cls-5" d="M119.9,65c0,30.38-24.62,55-55,55S9.9,95.38,9.9,65,34.52,10,64.9,10s55,24.63,55,55Z"/><ellipse class="cls-6" cx="37.7" cy="64.34" rx="16.51" ry="16.48"/><ellipse class="cls-6" cx="85.21" cy="85.15" rx="11.87" ry="11.85"/><ellipse class="cls-6" cx="62.11" cy="36.04" rx="8.24" ry="8.23"/></g></g></svg>