<?xml version="1.0" encoding="UTF-8"?><svg id="Layer_1" xmlns="http://www.w3.org/2000/svg" viewBox="0 0 300 130"><defs><style>.cls-1{fill:#373c4b;}.cls-2{fill:#5e626d;}.cls-3{fill:#212736;}.cls-4{fill:#4c505c;}.cls-5{fill:#d1d6e0;}</style></defs><g id="night"><path class="cls-3" d="M300,65c0,35.9-26.29,65-58.7,65h-34.65c.36-.7.7-1.38,1.04-2.08,20.52-41.57,20.42-84.3-.28-125.85-.35-.7-.69-1.39-1.05-2.08h34.94c16.21,0,30.89,7.28,41.51,19.04,10.63,11.76,17.2,28.01,17.2,45.96Z"/><path class="cls-2" d="M129.99,100.26c-.47,1.03-.97,2.06-1.48,3.08-4.14,8.23-9.63,16.42-16.46,24.57-.58.69-1.17,1.38-1.77,2.08h-52.46c-15.96,0-30.42-7.27-40.87-19.04C6.47,99.2,0,82.95,0,65,0,29.1,25.89,0,57.82,0h51.98c.61.7,1.2,1.39,1.79,2.08,27.39,32.39,33.52,65.49,18.4,98.19Z"/><path class="cls-4" d="M178.74,68.27c-.02,1-.07,2-.13,3,0,.03-.01.07,0,.1-1.17,18.95-7.75,37.86-19.75,56.55-.45.7-.9,1.38-1.36,2.08h-47.22c.6-.7,1.19-1.39,1.77-2.08,6.84-8.15,12.33-16.35,16.46-24.57.51-1.03,1.01-2.06,1.48-3.08,15.12-32.7,8.99-65.8-18.4-98.19-.59-.69-1.18-1.38-1.79-2.08h47.34c.46.69.92,1.38,1.37,2.08,11.77,18.17,18.42,36.57,19.95,55,.05.58.09,1.17.12,1.77.03.42.05.84.07,1.26.05.86.08,1.72.1,2.59.05,1.86.04,3.72-.01,5.59Z"/><path class="cls-1" d="M207.69,127.92c-.34.7-.68,1.38-1.04,2.08h-49.15c.46-.7.91-1.38,1.36-2.08,12-18.69,18.58-37.6,19.75-56.55-.01-.03,0-.07,0-.1.06-1,.11-2,.13-3,.06-1.86.06-3.73.01-5.59-.02-.86-.05-1.72-.1-2.59-.02-.42-.04-.84-.07-1.26-.03-.59-.07-1.18-.12-1.77-1.53-18.43-8.18-36.83-19.95-55-.45-.7-.91-1.39-1.37-2.08h49.22c.36.69.7,1.38,1.05,2.08,20.69,41.55,20.79,84.28.28,125.85Z"/><g id="stars"><polygon class="cls-5" points="240.31 26.65 228.18 29.74 240.04 33.92 242.84 47.35 246.61 34.22 258.74 31.12 246.88 26.94 244.09 13.51 240.31 26.65"/><polygon class="cls-5" points="282.91 64.77 281.14 61.39 279.38 64.77 275.85 64.77 277.61 68.16 275.85 71.54 279.38 71.54 281.14 74.93 282.91 71.54 286.44 71.54 284.67 68.16 286.44 64.77 282.91 64.77"/><polygon class="cls-5" points="163.96 39.58 162.2 36.2 160.43 39.58 156.9 39.58 158.66 42.97 156.9 46.35 160.43 46.35 162.2 49.73 163.96 46.35 167.49 46.35 165.73 42.97 167.49 39.58 163.96 39.58"/><polygon class="cls-5" points="125.12 21.58 122.07 19.63 122.07 23.53 119.01 25.49 122.07 27.44 122.07 31.35 125.12 29.4 128.18 31.35 128.18 27.44 131.24 25.49 128.18 23.53 128.18 19.63 125.12 21.58"/><polygon class="cls-5" points="191.58 17.56 188.52 15.61 188.52 19.52 185.47 21.47 188.52 23.43 188.52 27.33 191.58 25.38 194.64 27.33 194.64 23.43 197.69 21.47 194.64 19.52 194.64 15.61 191.58 17.56"/><polygon class="cls-5" points="130.62 63.2 129.08 58.79 127.58 63.22 123.5 63.56 126.66 66.58 125.67 71.2 129.12 68.64 132.6 71.16 131.57 66.55 134.7 63.49 130.62 63.2"/><polygon class="cls-5" points="245.62 104.86 244.08 109.27 242.58 104.84 238.5 104.51 241.66 101.48 240.67 96.87 244.12 99.43 247.6 96.91 246.57 101.51 249.7 104.58 245.62 104.86"/><polygon class="cls-5" points="140.27 98.64 128.14 101.74 140 105.92 142.8 119.35 146.57 106.21 158.7 103.12 146.84 98.94 144.04 85.51 140.27 98.64"/><polygon class="cls-5" points="193.53 74.44 191.76 71.06 189.99 74.44 186.47 74.44 188.23 77.83 186.47 81.21 189.99 81.21 191.76 84.6 193.53 81.21 197.05 81.21 195.29 77.83 197.05 74.44 193.53 74.44"/><polygon class="cls-5" points="45.48 51.19 33.35 54.28 45.21 58.46 48 71.89 51.78 58.76 63.91 55.66 52.05 51.48 49.25 38.05 45.48 51.19"/><polygon class="cls-5" points="84.65 35.62 83.11 31.21 81.62 35.64 77.53 35.97 80.69 38.99 79.71 43.61 83.16 41.05 86.63 43.57 85.6 38.96 88.74 35.9 84.65 35.62"/><polygon class="cls-5" points="31.59 86.09 28.54 84.14 28.54 88.05 25.48 90 28.54 91.96 28.54 95.86 31.59 93.91 34.65 95.86 34.65 91.96 37.71 90 34.65 88.05 34.65 84.14 31.59 86.09"/><polygon class="cls-5" points="77.33 83.64 75.8 88.06 74.3 83.63 70.21 83.29 73.38 80.27 72.39 75.65 75.84 78.21 79.31 75.69 78.28 80.3 81.42 83.36 77.33 83.64"/></g></g></svg>