<?xml version="1.0" encoding="UTF-8"?><svg id="Layer_1" xmlns="http://www.w3.org/2000/svg" viewBox="0 0 130 700"><defs><style>.cls-1{fill:#a25831;}.cls-2{fill:#cb8e3e;}.cls-3{fill:#c07d4e;}.cls-4{fill:#b17328;}.cls-5{fill:#c37c32;}.cls-6{fill:#a45c34;}.cls-7{fill:#dfb376;}.cls-8{fill:#a35a33;}.cls-9{fill:#ab6521;}.cls-10{fill:#513423;}.cls-11{fill:#cf903a;}.cls-12{fill:#f8ddc0;}.cls-13{fill:#cc8f3d;}.cls-14{fill:#e4bb84;}.cls-15{fill:#e2b77d;}</style></defs><path class="cls-4" d="M35.05,578.74c.92.8,2.75,1.25,3.71,2.15-.09,0-.65.63-1.76.54-1-.08-2.07-.71-3.01-1.08-.2-.14-.34-.38-.53-.54,2.15.31-.56-1.39,1.59-1.08Z"/><path class="cls-2" d="M38.76,580.89c.98.02,2.33.3,3.18.8-2.8,2.12-5.73.26-7.95-1.34.94.36,2.01.99,3.01,1.08,1.11.09,1.67-.54,1.76-.54Z"/><path class="cls-14" d="M127.32,451.15c-.98-3.24-.53-7.32-.53-10.77,1.04,3.27.44,7.29.53,10.77Z"/><path class="cls-14" d="M126.79,430.69c0-3.26-.45-7.17.53-10.23.52,1.6.03,8.29-.53,10.23Z"/><path class="cls-13" d="M45.12,177.12l.53.54c.08.19.43.35.53.54,3.28,5.96,8.52,11.37,11.94,17.75,2.55,4.76,9.27,19.66,9.8,24.5.68,6.24-1.29,16.44-1.61,23.13-.52,11.03-.54,22.1-1.04,33.13l-9.64-16.32c-3.66-4.73-6.67-10.06-10.35-14.76-.34-.43-.38-1.53-1.22-.4,6.96,12.1,14.8,23.65,21.21,36.08-.46,7.95-.92,16.22-1.08,24.19s.16,15.64.02,23.44c-2.67-1.93-3.51-5.62-6.35-7.27,1.18,3.57,6.4,8.34,6.4,11.85,0,1.52-.82,3.01-.58,4.58-2.64-2.8-3.85-7.57-6.2-10.63-.34-.44-.38-1.52-1.22-.41,1.84,4.59,6.87,11.36,7.44,16.13,1.41,11.7-.51,27.78-.57,39.83-.07,13.14.24,26.25.58,39.3.11,4.39-.12,8.82-.03,13.21l-10.32-20.47c-8.77-17.37-18.86-33.76-29.97-49.52-4.23-6-8.16-12.22-12.98-17.79,3.35-33.04,5.91-66.74,10.4-99.77,1.54-11.32,3.49-23.22,5.93-34.36.32-1.47,2.51-12.28,3.28-12.27l8.22,8.6c-.18-3.54-7.52-10.42-7.94-12.66s.3-10.08.53-12.9c.47-5.98,1.35-12.6,2.12-18.58,2.62,2.23,5.44,4.38,7.96,6.72.81.75,3.93,4.58,4.23,4.58ZM44.33,198.11v.54c.34-.18.34-.36,0-.54ZM45.65,199.19c-.75-.77-2.13.92.27,1.6.09-.29-.22-1.54-.27-1.6ZM47.24,201.35c-2.86.31-.16,1.15.03,1.43.56.79-.02,2.17,1.56,1.79l-1.6-3.23ZM44.33,203.5v.54c.34-.18.34-.36,0-.54ZM45.64,204.58c-2.75.24-.23,1.14-.02,1.49,3.58,6.1,7.28,12.31,11.7,17.89l-1.67-3.94-10-15.44ZM49.1,205.12c0,.9,1.07,1.99,1.6,2.67.14-.99-.97-2.03-1.6-2.67ZM39.29,211.57c.38-.76-.34-1.44-.52-1.07-.38.76.34,1.44.52,1.07ZM44.32,213.2c-.52.37.29.74.54,1.06.53-.35-.25-.71-.54-1.06ZM45.39,214.8v.54c.34-.18.34-.36,0-.54ZM46.71,215.88c-2.75.23-.22,1.15-.03,1.49s1.18,3.88,2.16,2.81l-2.13-4.3ZM51.49,224.49l-2.39-3.75.5,1.92,1.89,1.83ZM28.95,272.96l-.25.25,1.32,1.34.25-.25-1.32-1.34ZM32.4,277.25c.39.44,1.31,2.75,1.59,2.15.35-1.29-1.06-1.52-1.59-2.15-.34-.41-.37-1.72-1.86-2.14-.42,1.57,1.75,2.02,1.86,2.14ZM37.43,277.27l-.25.25,1.85,1.88.25-.25-1.85-1.88ZM50.42,298.79c.58-.57-8.6-11.07-9.27-12.39-1.09-.48-5.62-7.43-6.63-6.45l14.04,17.77c.31.46,1.43,1.49,1.86,1.07ZM45.85,287.29c-1.24-1.73-2.8-4.09-4.2-5.7-.58-.67-1.54-.92-2.09-1.64,1.67,3.06,4.42,5.63,6.41,8.56l1.81.85c-.32-.96-1.55-1.57-1.92-2.08ZM48.04,290.19c-.52.37.29.74.54,1.06.53-.35-.25-.71-.54-1.06ZM51.01,299.92c-.26.26-.26.68,0,.94s.67.26.93,0,.26-.68,0-.94-.67-.26-.93,0c.06-.18-.14-.61-.32-.59-.58.04.02.79.32.59ZM53.08,301.48c-.75-.77-2.13.92.27,1.6.09-.29-.22-1.54-.27-1.6ZM53.87,303.63v.54c.34-.18.34-.36,0-.54ZM21.26,314.4c.38-.76-.34-1.44-.52-1.07-.38.76.34,1.44.52,1.07ZM25.5,318.71c.33.47,1.05,2.42,2.12,2.69,0-2.01-1.35-2.16-2.12-2.69-.09-.12.01-.65-.27-1.06-.53-.76-2.59-1.56-3.18-2.7.33.76,1.66,2.77,2.16,3.21.62.55,1.13.43,1.3.54ZM30.07,324.3c.47.53.96,1.98,1.79,1.69-1.35-1.41-1.5-3.18-3.44-4.03-.25,1.17,1.14,1.78,1.65,2.35ZM30.97,329.32c-.46-.52-.48-1.41-.98-1.96-1.2-1.32-3.22-2.42-4.23-4.33,1.7,3.44,4.71,6.08,6.91,9.14,2.51-.38-1.27-2.35-1.7-2.85ZM55.21,324.63c-.17.79.22,1.12.8,1.6.23-.54-.55-2.12-.8-1.6ZM35.74,335.24c-.3-.42-1.38-3.47-2.28-2.53-.46.48,2.72,3.04,2.64,4.05l1.07-.54c-.28-.5-1.16-.59-1.42-.97ZM27.09,338.09c.16-.74-.29-1.43-1.05-1.61v1.61s1.05,0,1.05,0ZM38.22,337.55c-2.7.02.51,1.79.81,2.68l-.81-2.68ZM27.36,338.63v.54c.34-.18.34-.36,0-.54ZM41.72,357.7c.48.52,1,1.95,1.8,1.66-4.55-6.86-9.05-14.09-15.11-19.64.51,1.13,1.67,3.03,2.39,4.01,3.23,4.4,7.31,10.02,10.92,13.97ZM26.03,342.94c-.74-.39-1.41.34-1.06.53.74.39,1.41-.34,1.06-.53ZM53.6,383.31c-.14-1.75-1.39-3.48-2.22-5.01-3.04-5.61-6.92-11.48-10.6-16.7-4.14-5.87-8.85-12.05-13.96-17.05l26.78,38.75ZM43.8,360.16v.54c.34-.18.34-.36,0-.54Z"/><path class="cls-13" d="M23.91,516.29c-3.4-4.16-7.06-8.03-10.19-12.53-2.95-4.24-12.64-19.08-13.66-23.28-.07-.3-.15-.88.25-.79l3.99,2.95-3.57-8.51c9.4-27.39.47-55.53,3.04-83.54.93-10.08,3.12-26.55,5.79-36.11.19-.69.05-1.37.83-1.84,8.52,12.15,18.03,23.74,26.25,36.06,8.49,12.73,16.78,28.29,22.52,42.55,3.93,9.76,4.28,12.43,5.06,22.86,1.09,14.62,2.13,29.26,3.17,43.88-2.31-1.35-3.93-5.91-5.81-7.28-.68-.5-1.28-.5-1.07.55.96,1.31,7.42,9.6,7.42,10.24v8.34l-9.12-14.7c-1.42-1.25-2.32-4.24-4.13-4.42,3.22,5.13,6.82,10.13,9.63,15.53,5.73,11.01,5.52,20.61,6.29,32.92.04.58.34,2.04-.54,1.9-4.51-9.2-9.95-18.38-15.8-26.76-2.5-3.59-5.38-6.84-8.08-10.24-.9-1.14-1.99-3.59-3.69-4.18,9.47,13.13,20.2,27.05,26.23,42.28,3.89,9.84,3.53,19.65,3.45,30.14l-22.8-29.61c.6.54,1.22.96,1.86,1.6,2.74,2.74,6.04,8.27,8.73,10.52.38.32,1.07.51,1.08-.02-7.04-11.3-15.97-21.42-24.66-31.5-5.97-6.94-12.11-13.99-18.29-20.73-.36-.4-2.8-3.44-3.19-1.88,1.01-.12.97.5,1.35,1.05,6.42,9.27,13.73,18.48,20.92,26.96-1.03-.07-1.81-.84-2.42-1.59-2.73-3.37-3.88-5.58-7.65-8.1-.12-.08-.6.1-.9-.16-.29-.25-.08-.82-.16-.92-.15-.71-.28-1.93-1.06-2.15-.43-.12-1.11-.06-1.06.54ZM19.34,397.09l-1.25-1.13c8.29,12.69,15.94,26.04,24.69,38.45,2.37,3.36,5.19,7.26,7.85,10.34.45.52,0,1.36,1.38,1.01l-3.49-6.41c-9.12-14.5-18.87-28.64-29.18-42.26ZM19.33,425.12c-.38-.43-.44-1.09-.99-1.41.04.47.71,2.58.81,2.68.26.26,1.34.2,1.06-.8-.14-.49-.61-.17-.87-.46ZM21.25,426.93c-1.73-.24-1.05.69-.42,1.78,3.77,6.59,13.31,19.89,18.35,25.52.52.58.56,1.5,1.7,1.23l-19.63-28.53ZM36.9,433.92v.54c.34-.18.34-.36,0-.54ZM41.09,440.19c-1.23-1.72-2.11-3.7-3.66-5.18l3.46,6.45c2.77-.26.28-1.15.2-1.26ZM42.21,442v.54c.34-.18.34-.36,0-.54ZM53.21,446.83c0-.37-.29-.66-.65-.66s-.65.3-.65.66.29.66.65.66.65-.3.65-.66ZM28.42,452.22v.54c.34-.18.34-.36,0-.54ZM30.17,453.95c-.05-.05-1.26-.63-1.47-.39.56,1.03.84,1.31,1.85,1.88.24-.21-.33-1.44-.38-1.49ZM31.86,456c-.75-.77-2.13.92.27,1.6.09-.29-.22-1.54-.27-1.6ZM42.47,457.6c.54-.56-1.05-2.16-1.59-1.61s1.05,2.16,1.59,1.61ZM34.72,460.64c-.4-.49-1.82-4.22-2.32-1.7l12.72,15.88-1.59-2.83c-3.09-3.66-5.78-7.64-8.82-11.36ZM6.68,479.68v.54c.34-.18.34-.36,0-.54ZM38.23,517.37c5.01,6.68,9.93,13.44,14.84,20.2l1.07-.54c-3.74-4.71-6.86-9.9-10.38-14.77-5.08-7.03-10.58-13.87-16.13-20.5-2.61-3.12-4.13-4.8-6.89-7.54-3.43-3.39-6.63-7.42-10.07-10.51-1-.9-2.52-2.07-3.71-2.69,9.78,10.96,19.36,22.08,28.1,33.92l3.18,2.43ZM4.29,485.06c.38-.76-.34-1.44-.52-1.07-.38.76.34,1.44.52,1.07ZM8.53,489.37c.6.74,1.07,1.57,1.86,2.14l.25-.25-2.11-1.89c-.31-.39-.32-.83-1.19-1.74-.45-.47-1.83-1.71-2.51-1.76l3.7,3.5ZM60.64,489.36c0-.37-.29-.66-.65-.66s-.65.3-.65.66.29.66.65.66.65-.3.65-.66ZM54.4,489.37v.54c.34-.18.34-.36,0-.54ZM28.15,510.9c.37-.37-2.74-4.04-3.19-4.56-3.21-3.7-7.76-9.07-11.39-12.13-.6-.5-.86-1.31-1.85-1.07-.23,1.01.56,1.28,1.06,1.88,3.21,3.91,6.87,7.89,10.33,11.58.6.64,4.43,4.9,5.04,4.3ZM31.6,498.53c-.52.37.29.74.54,1.06.53-.35-.25-.71-.54-1.06ZM32.66,500.15l-.25.25,1.32,1.34.25-.25-1.32-1.34ZM35.58,502.83c-.06-.06-1.29-.37-1.58-.28.67,2.44,2.34,1.04,1.58.28ZM37.05,505.1c-.05-.06-1.26-.65-1.46-.39,1.21,1.74,2.85,3.35,3.7,5.26l2.65,2.55-1.59-2.83c-1.52-.76-2.44-3.66-3.3-4.59ZM28.41,511.46c-.09,1.42,1.2,1.98,2.13,2.67.09-1.42-1.2-1.98-2.13-2.67ZM43.4,513.73c-.05-.06-1.25-.69-1.44-.41l2.11,2.42c-.02-.66-.22-1.54-.66-2.02ZM31.6,514.67v.54c.34-.18.34-.36,0-.54ZM32.13,515.75v.54c.34-.18.34-.36,0-.54ZM55.34,538.89c0-.37-.29-.66-.65-.66s-.65.3-.65.66.29.66.65.66.65-.3.65-.66ZM61.29,555.6l-.25.25,1.32,1.34.25-.25-1.32-1.34Z"/><path class="cls-4" d="M97.09,48.99c.03.16-.61.86-.54,1.28.09.57,1.03.26,1.07.33.06.09-.02,1.46.25,2.14,2.54,6.3,4.7,12.79,7.7,18.85-.91,1.77-8.49,13.9-7.95,14.53.8.94,1.16-.73,1.37-1.02,2.72-3.75,4.65-6.7,7.65-10.29,1.74,4.89,3.55,8.44,1.06,13.46l2.11-.53c.44.55.74,10.27.51,11.55-.32,1.77-2.6,3.16-2.62,5.14.94.98,3.13-3.75,4.23-3.77.82,12.67,1.75,25.23,3.34,37.8.24,1.88,1.25,4.28,1.44,5.81.02.18-.11.73,0,1.62.09.69-.09,1.46,0,2.15l-35,48.99c.05-19.32.77-38.54.54-57.88-.01-.91.34-2.39-.54-2.95.29-4.37.88-8.82,1.08-13.17.1-2.21.33-5.26-.55-7.29.03-.35-.04-.72,0-1.08,1.73.54,1.03-2.68,1.06-4.31.3-14.17,1.51-28.33,1.06-42.53-.22-6.9-.6-14.95-1.66-21.73-.46-2.96-1.3-6.77-2.21-9.61-.18-.57-.13-1.63-.9-1.5.98,7.79,2.58,15.57,3.17,23.42.53,7.08.53,14.19,0,21.26-.1,1.39-.43,2.58-.53,3.77-.31,3.6-.68,7.18-1.06,10.77-1.51,14.17-3.43,28.33-4.77,42.53-.79,8.4-1.43,16.9-2.12,25.3-.89,2.74-1.08,6.02-1.06,8.88l-1.05.27-20.16-37.68c3.17,14.77,13.1,26.3,19.1,39.84l1.58-.54-3.71,40.37-6.61-14.54c-3.6-6.31-7.85-12.39-12.73-17.76-.93-1.03-2.01-2.47-3.45-2.68-.1-.19-.45-.35-.53-.54-.1-.23.08-.75-.01-1.09-.28.02-.48.55-.52.55-.31,0-3.42-3.83-4.23-4.58-2.52-2.34-5.34-4.5-7.96-6.72,4.45-34.61,18.64-58.55,30.09-90.31,7.91-21.95,13.01-44.94,11.81-68.5l1.06.8-.54-3.49c1.75,2.78,4.8,5.56,6.8,8.44,6.06,8.74,12.8,25.77,14.95,36.24ZM85.42,63.52c1.7-14.41,1.18-29.73-2.81-43.72-.16-.56-.13-1.63-.89-1.5,1.11,8.12,2.81,16.25,3.2,24.47.3,6.26-.28,12.6-.02,18.87.03.66-.4,2,.52,1.88ZM96.03,51.68c-.74-.39-1.41.34-1.06.53.74.39,1.41-.34,1.06-.53ZM80.65,85.05c-2.34-9.21-3.48-18.74-5.57-28-.13-.6,0-1.74-.79-1.61.7,9.78,2.14,19.05,5.24,28.34.28.83-.47,1.54,1.11,1.26ZM97.62,86.68c-1.56-.37-1.36,1.83-2.12,2.68,1.63.36.74-.72,1.21-1.44.23-.35,1.45.09.9-1.24ZM106.64,97.98l-18.56,35.53c1.41.3.91-.36,1.32-1.06,4.22-7.32,9.44-16.36,13.09-23.87,1.58-3.25,2.97-7.15,4.15-10.59ZM68.98,111.44c-.07-1.4-.91-2.85-1.5-4.12s-1.75-3.44-2.73-4.49l4.23,8.61ZM107.43,104.98v.54c.34-.18.34-.36,0-.54ZM62.62,108.74l-2.11-3.22c.43.85.7,3.56,2.11,3.22ZM63.68,109.29c-.26-.26-1.27-.27-1,.75s2.17,4,2.88,5.18c.17.29.49,2.07,1.31,1.06.24-.3-2.92-6.72-3.19-6.99ZM67.13,116.82v.54c.34-.18.34-.36,0-.54ZM67.66,117.9v.54c.34-.18.34-.36,0-.54ZM68.45,120.05c.38-.76-.34-1.44-.52-1.07-.38.76.34,1.44.52,1.07ZM107.18,127.05c-3.57,5.85-7.86,11.59-9.82,18.29,3.05-4.56,6.09-9.51,8.66-14.35.27-.51,2.18-3.7,1.16-3.93ZM88.07,135.12c.38-.76-.34-1.44-.52-1.07-.38.76.34,1.44.52,1.07ZM106.38,138.37c-.82,1.01-1.97,2.42-2.13,3.75.82-1.01,1.97-2.42,2.13-3.75ZM59.18,139.97v.54c.34-.18.34-.36,0-.54ZM59.45,141.05c-.17.79.22,1.12.8,1.6.23-.54-.55-2.12-.8-1.6ZM89.66,166.35l13.79-23.68-14.63,22.56c-.74.76.17,1.69.84,1.12ZM61.56,145.35c.12-.66-.78-2.76-1.05-2.15-.12.66.78,2.76,1.05,2.15ZM62.45,145.5l-.88.39,1.32,3.04.88-.39-1.32-3.04ZM96.83,145.89v.54c.34-.18.34-.36,0-.54ZM96.3,146.97v.54c.34-.18.34-.36,0-.54ZM95.5,149.66l.28-1.6c-.81.55-1.32,1.7-.28,1.6ZM65.8,153.43c.05-1.41-.95-3.51-2.11-4.3.33,1.43.68,3.58,2.11,4.3ZM52.81,158.81v.54c.34-.18.34-.36,0-.54ZM54.28,160.42c0-.37-.29-.66-.65-.66s-.65.3-.65.66.29.66.65.66.65-.3.65-.66ZM55.2,161.5c-1.08-1.17-1.54,1.33.27,2.15-.05-.46-.2-2.07-.27-2.15ZM56.93,164.72c0-.37-.29-.66-.65-.66s-.65.3-.65.66.29.66.65.66.65-.3.65-.66ZM57.06,165.81v.54c.34-.18.34-.36,0-.54ZM88.07,168.5l.28-1.6c-.81.55-1.32,1.7-.28,1.6Z"/><path class="cls-6" d="M46.19,178.19c1.44.22,2.52,1.66,3.45,2.68,4.88,5.38,9.13,11.45,12.73,17.76l6.61,14.54,3.71-40.37-1.58.54c-6-13.54-15.92-25.07-19.1-39.84l20.16,37.68,1.05-.27c-.02-2.87.16-6.14,1.06-8.88-11.38,137.99-12.54,273.54,1.59,411.31.11,1.09.49,2.27.53,2.69.07.7-.07,1.45,0,2.15.11,1.05.52,1.53.53,1.62.07.7-.07,1.45,0,2.15.1.97.51,2,.53,2.15.06.53-.06,1.09,0,1.62.11,1.05-.11,2.18,0,3.23.04.35-.04.73,0,1.08.08.7-.08,1.45,0,2.15-2.07-1.71-3.02-4.35-4.77-6.46.96-.11-.37-1.45-.58-1.71-3.19-3.99-5.91-8.86-9.55-12.5-6.35-6.34-15.99-10.16-24.87-10.02-.02-.8,1.89-.79,2.55-.91,1.77-.32,3.62-.47,5.41-.7.18,0,.36-.02.53,0,1.93.82,4.06.91,6.12,1.6,2.12.71,4.03,1.88,6.08,2.71.69-.71-6.18-8.39-7.14-9.17-.79-.64-1.19-1.27-2.41-1.06-1.02-1.19-1.68-2.01-2.65-3.23-1.21-1.53-1.44-.71-2.12-1.08-.21-.11-.36-.44-.53-.54.08-1.21-.82-1.39-1.52-1.96-3.87-3.17-9.01-5.98-13.86-7.2-.12-1,1.07-.4,1.61-.29,6.39,1.22,15.01,7.22,19.87,11.59,3.95,3.56,7.28,8.62,11.12,11.86.6.5.86,1.31,1.85,1.07.56-.57-5.59-8.42-6.38-9.4-2.21-2.74-4.26-5.1-6.87-7.29.01-1.06-.72-1.5-1.31-2.16-6.08-6.78-14.41-15.7-19.37-23.14-.67-1-1.49-1.94-1.59-3.23,3.77,2.52,4.92,4.73,7.65,8.1.61.75,1.4,1.53,2.42,1.59.36.43,1.06,1.03,1.59,1.62-.4,2.33,1.39,2.1,2.12,2.69.5.41.78.84,1.06,1.08-.31,2.05,1.6,2.66,2.65,3.77.49.51,1.53.99,1.59,1.08.12.17.09.92,1.06,2.15,1.12,1.42,1.62,1.16,2.12,1.62l22.8,29.61c.08-10.49.44-20.3-3.45-30.14-6.03-15.23-16.76-29.14-26.23-42.28,1.7.59,2.79,3.04,3.69,4.18,2.7,3.4,5.58,6.66,8.08,10.24,5.85,8.39,11.29,17.56,15.8,26.76.88.15.58-1.32.54-1.9-.78-12.31-.56-21.9-6.29-32.92-2.81-5.39-6.4-10.39-9.63-15.53,1.81.18,2.71,3.17,4.13,4.42l9.12,14.7v-8.34c0-.64-6.46-8.93-7.42-10.24-.2-1.05.39-1.04,1.07-.55,1.88,1.37,3.5,5.93,5.81,7.28-1.05-14.62-2.08-29.26-3.17-43.88-.78-10.43-1.13-13.1-5.06-22.86-5.74-14.26-14.03-29.81-22.52-42.55l-13.26-23.15c11.11,15.75,21.2,32.15,29.97,49.52l10.32,20.47c-.1-4.39.14-8.82.03-13.21-.34-13.06-.64-26.17-.58-39.3.06-12.04,1.98-28.12.57-39.83-.58-4.78-5.61-11.54-7.44-16.13.84-1.12.88-.03,1.22.41,2.36,3.05,3.57,7.82,6.2,10.63-.23-1.57.58-3.06.58-4.58,0-3.5-5.22-8.27-6.4-11.85,2.83,1.65,3.68,5.34,6.35,7.27.15-7.8-.17-15.64-.02-23.44s.62-16.23,1.08-24.19c-6.41-12.43-14.25-23.99-21.21-36.08.84-1.13.89-.02,1.22.4,3.68,4.71,6.69,10.03,10.35,14.76l9.64,16.32c.51-11.02.52-22.1,1.04-33.13.32-6.69,2.3-16.89,1.61-23.13-.53-4.85-7.25-19.74-9.8-24.5-3.42-6.38-8.67-11.79-11.94-17.75ZM59.18,564.2v.54c.34-.18.34-.36,0-.54ZM64.21,565.28c-2.7.02.51,1.79.81,2.68l-.81-2.68Z"/><path class="cls-2" d="M10.12,558.28c2.35,1.99,4.91,3.37,7.42,5.12-7.88,1.4-14.85-7.41-13.66-14.95,1.97-12.53,22.24-13.29,30.9-7.94l.26-.8c-9.34-8.86-18.49-17.86-26.5-28.02L.05,500.14l24.65,24.79c8.38,7.34,16.15,15.46,24.67,22.59,2.61,2.19,4.66,4.55,6.87,7.29.79.98,6.95,8.82,6.38,9.4-1,.23-1.26-.57-1.85-1.07-3.84-3.24-7.17-8.3-11.12-11.86-4.86-4.38-13.48-10.37-19.87-11.59-.55-.1-1.74-.71-1.61.29,4.85,1.22,9.99,4.03,13.86,7.2.7.57,1.6.75,1.52,1.96-2.21-1.25-5.21-3.11-7.46-4-.52-.21-1.62-.83-1.55.23.92-.08,1.44.28,2.15.79,5.71,4.12,11.42,8.56,16.15,13.75-.39-2.4-2.45-4.13-3.98-5.91,1.21-.21,1.62.41,2.41,1.06.96.78,7.82,8.46,7.14,9.17-2.05-.83-3.96-2-6.08-2.71-2.06-.69-4.19-.78-6.12-1.6.49.05,1.09.03,1.59,0s1.51.25.8-.54c-7.7-7.65-23.29-23.77-34.91-17.13-5.47,3.13-10.3,9.85-4.82,15.5.5.52,1.15.44,1.29.56Z"/><path class="cls-2" d="M45.65,559.9c-1.78.24-3.63.39-5.41.7-.66.12-2.57.1-2.55.91,8.87-.14,18.52,3.68,24.87,10.02,3.64,3.64,6.36,8.51,9.55,12.5.21.26,1.53,1.6.58,1.71-.16-.19-.36-.36-.53-.54-1.84-1.97-3.21-3.36-6.15-3.73-5.32-.65-13.44,4.74-8.94,10.17.88,1.06,1.29.74,1.83,1.09.29.77-.54,1.39,1.59,1.08,1.5.92,4.47-.49,5.83-1.61-1.52,5.8-8.74,4.25-11.88.49-6.32-7.55.95-15.14,8.7-16.65.1-.13-.81-1.29-1.06-1.61l-.53-.54c-.16-.19-.37-.34-.53-.54-3-3.74-6.79-7.14-11.63-8.38-7.32-1.86-18.9.72-17.54,10.53-.9,0-1.01-1.79-1.06-2.42-.17-2.05,0-4.16.27-6.18-2.56,2.48-1.94,6.13-.8,9.14-3.88-4.91-.78-12.04,4.41-14.63,3.92-1.95,7.04-1.64,10.97-1.52Z"/><path class="cls-8" d="M75.35,4.3c-.45-.72-2.42-3.76-1.07-4.3,1.11,2.31,3.44,4,5,5.96,6.5,8.19,12.44,19.04,16.09,28.88.77,2.08,3.54,9.76,3.6,11.41.03.98-1.35,1.95-1.89,2.73-2.15-10.47-8.89-27.5-14.95-36.24-2-2.88-5.05-5.66-6.8-8.44Z"/><path class="cls-8" d="M10.12,558.28c-.14-.12-.78-.04-1.29-.56-5.48-5.65-.65-12.37,4.82-15.5,11.62-6.65,27.21,9.48,34.91,17.13.71.8-.31.52-.8.54-1.49-1.74-3.32-3.36-5.05-4.83-8.17-6.93-19.93-18.67-30.73-9.69-4.59,3.82-5.11,7.88-1.87,12.91Z"/><path class="cls-8" d="M105.58,71.6c-3-6.06-5.16-12.55-7.7-18.85-.28-.68-.19-2.05-.25-2.14.6-1.2.71-1.39,1.52-.19,1.61,2.36,7.19,15.19,7.81,17.97.09.4.32.77.13,1.21-.16.82-1.2,1.43-1.5,2.01Z"/><path class="cls-8" d="M72.17,585.2c-4.18-2.36-8.61-4.68-12.54-.35-2.6,2.87-1.93,4.72-.72,7.89.52.34,1.26.87,1.59,1.08-2.13.31-1.3-.31-1.59-1.08-.54-.35-.95-.03-1.83-1.09-4.5-5.43,3.62-10.83,8.94-10.17,2.93.36,4.3,1.76,6.15,3.73Z"/><path class="cls-2" d="M24.97,515.75c-.39,1.4.67,1.61,1.06,2.15.07.1-.13.67.16.92.31.26.79.08.9.16.1,1.29.92,2.23,1.59,3.23-1.59-1.29-2.97-3-4.26-4.58-.38-.47-.38-1.19-.51-1.35-.04-.6.63-.66,1.06-.54Z"/><path class="cls-6" d="M30.28,576.05c-1.14-3.01-1.76-6.66.8-9.14-.27,2.02-.44,4.13-.27,6.18.05.63.16,2.41,1.06,2.42-1.36-9.81,10.22-12.39,17.54-10.53,4.85,1.23,8.64,4.64,11.63,8.38-5.47-5.15-11.96-8.73-19.76-7.41-5.24.89-11.57,8.13-6.22,12.79-2.15-.31.56,1.39-1.59,1.08-1.59-1.35-2.39-1.67-3.18-3.77Z"/><path class="cls-6" d="M62.09,574.43c-.15-.19-.37-.34-.53-.54l.53.54Z"/><path class="cls-15" d="M53.6,383.31l-26.78-38.75c5.11,4.99,9.82,11.18,13.96,17.05,3.68,5.21,7.56,11.09,10.6,16.7.83,1.53,2.08,3.26,2.22,5.01Z"/><path class="cls-15" d="M50.42,298.79c-.43.42-1.55-.6-1.86-1.07l-14.04-17.77c1.01-.98,5.54,5.97,6.63,6.45.67,1.32,9.85,11.82,9.27,12.39Z"/><path class="cls-7" d="M45.64,204.58l10,15.44,1.67,3.94c-4.42-5.58-8.11-11.79-11.7-17.89-.21-.35-2.73-1.25.02-1.49Z"/><path class="cls-7" d="M41.72,357.7c-3.61-3.95-7.69-9.57-10.92-13.97-.72-.98-1.88-2.88-2.39-4.01,6.05,5.55,10.56,12.78,15.11,19.64-.8.29-1.33-1.14-1.8-1.66Z"/><path class="cls-7" d="M45.85,287.29c.37.51,1.59,1.12,1.92,2.08l-1.81-.85c-1.99-2.93-4.73-5.5-6.41-8.56.55.72,1.51.97,2.09,1.64,1.4,1.6,2.96,3.97,4.2,5.7Z"/><path class="cls-6" d="M30.97,329.32c.43.49,4.21,2.47,1.7,2.85-2.2-3.05-5.21-5.7-6.91-9.14,1.01,1.91,3.03,3.01,4.23,4.33.49.55.52,1.44.98,1.96Z"/><path class="cls-7" d="M32.4,277.25c-.11-.12-2.28-.58-1.86-2.14,1.49.42,1.52,1.73,1.86,2.14Z"/><path class="cls-6" d="M30.07,324.3c-.51-.57-1.9-1.17-1.65-2.35,1.95.85,2.1,2.62,3.44,4.03-.82.29-1.32-1.16-1.79-1.69Z"/><path class="cls-6" d="M35.74,335.24c.26.38,1.14.47,1.42.97l-1.07.54c.08-1-3.1-3.57-2.64-4.05.9-.94,1.99,2.11,2.28,2.53Z"/><path class="cls-4" d="M25.5,318.71c-.16-.11-.68,0-1.3-.54-.49-.44-1.83-2.45-2.16-3.21.59,1.14,2.66,1.94,3.18,2.7.28.41.19.94.27,1.06Z"/><path class="cls-6" d="M46.71,215.88l2.13,4.3c-.98,1.07-1.97-2.47-2.16-2.81s-2.72-1.26.03-1.49Z"/><polygon class="cls-6" points="51.49 224.49 49.6 222.66 49.1 220.74 51.49 224.49"/><path class="cls-7" d="M27.09,338.09h-1.06s0-1.61,0-1.61c.77.18,1.22.87,1.05,1.61Z"/><ellipse class="cls-7" cx="51.48" cy="300.39" rx=".66" ry=".67"/><path class="cls-7" d="M53.08,301.48c.06.06.37,1.31.27,1.6-2.4-.68-1.03-2.37-.27-1.6Z"/><path class="cls-7" d="M45.65,199.19c.06.06.37,1.31.27,1.6-2.4-.68-1.03-2.37-.27-1.6Z"/><path class="cls-6" d="M25.5,318.71c.76.53,2.11.68,2.12,2.69-1.06-.27-1.79-2.22-2.12-2.69Z"/><path class="cls-7" d="M47.24,201.35l1.6,3.23c-1.59.38-1-1.01-1.56-1.79-.2-.28-2.89-1.13-.03-1.43Z"/><path class="cls-6" d="M38.22,337.55l.81,2.68c-.3-.89-3.5-2.66-.81-2.68Z"/><path class="cls-15" d="M26.03,342.94c.36.19-.31.91-1.06.53-.36-.19.31-.91,1.06-.53Z"/><path class="cls-6" d="M45.65,177.66l-.53-.54s.24-.52.52-.55c.09.33-.09.86.01,1.09Z"/><path class="cls-7" d="M49.1,205.12c.63.64,1.74,1.68,1.6,2.67-.54-.68-1.61-1.77-1.6-2.67Z"/><path class="cls-6" d="M55.21,324.63c.25-.52,1.02,1.07.8,1.6-.57-.48-.97-.81-.8-1.6Z"/><path class="cls-4" d="M21.26,314.4c-.18.37-.9-.32-.52-1.07.18-.37.9.32.52,1.07Z"/><path class="cls-15" d="M32.4,277.25c.53.63,1.93.86,1.59,2.15-.27.6-1.2-1.72-1.59-2.15Z"/><polygon class="cls-7" points="28.95 272.96 30.27 274.3 30.02 274.55 28.7 273.21 28.95 272.96"/><path class="cls-7" d="M43.8,360.16c.34.18.34.36,0,.54v-.54Z"/><path class="cls-7" d="M27.36,338.63c.34.18.34.36,0,.54v-.54Z"/><path class="cls-7" d="M44.33,198.11c.34.18.34.36,0,.54v-.54Z"/><path class="cls-7" d="M44.33,203.5c.34.18.34.36,0,.54v-.54Z"/><path class="cls-6" d="M44.32,213.2c.29.34,1.07.7.54,1.06-.26-.32-1.06-.68-.54-1.06Z"/><path class="cls-7" d="M53.87,303.63c.34.18.34.36,0,.54v-.54Z"/><path class="cls-15" d="M51.01,299.92c-.31.2-.9-.55-.32-.59.18-.01.38.42.32.59Z"/><path class="cls-6" d="M45.39,214.8c.34.18.34.36,0,.54v-.54Z"/><path class="cls-7" d="M48.04,290.19c.29.34,1.07.7.54,1.06-.26-.32-1.06-.68-.54-1.06Z"/><polygon class="cls-7" points="37.43 277.27 39.28 279.14 39.03 279.4 37.18 277.52 37.43 277.27"/><path class="cls-15" d="M37.17,528.67c-7.19-8.48-14.49-17.69-20.92-26.96-.38-.54-.34-1.16-1.35-1.05.39-1.56,2.83,1.48,3.19,1.88,6.18,6.74,12.31,13.8,18.29,20.73,8.68,10.08,17.61,20.2,24.66,31.5,0,.53-.69.34-1.08.02-2.69-2.25-5.99-7.78-8.73-10.52-.64-.64-1.27-1.06-1.86-1.6-.5-.46-1-.2-2.12-1.62.09-.98-.08-1.85-1.06-2.15-.06-.09-1.1-.57-1.59-1.08.25-1.9-1.44-2.75-2.65-3.77-.28-.24-.56-.67-1.06-1.08.06-1.54-1.42-1.92-2.12-2.69-.53-.58-1.23-1.19-1.59-1.62Z"/><path class="cls-8" d="M19.34,397.09c10.32,13.62,20.06,27.76,29.18,42.26l3.49,6.41c-1.37.35-.93-.49-1.38-1.01-2.66-3.09-5.49-6.99-7.85-10.34-8.75-12.41-16.4-25.76-24.69-38.45l1.25,1.13Z"/><path class="cls-15" d="M27.62,501.75c5.55,6.63,11.05,13.48,16.13,20.5,3.52,4.87,6.64,10.05,10.38,14.77l-1.07.54c-4.91-6.76-9.83-13.52-14.84-20.2-3.74-4.99-7.5-10-11.14-15.07l.53-.54Z"/><path class="cls-6" d="M20.73,494.22l6.36,8.08c3.63,5.07,7.39,10.08,11.14,15.07l-3.18-2.43c-8.73-11.84-18.32-22.96-28.1-33.92,1.19.62,2.7,1.79,3.71,2.69,3.44,3.09,6.64,7.11,10.07,10.51Z"/><path class="cls-7" d="M21.25,426.93l19.63,28.53c-1.14.27-1.18-.64-1.7-1.23-5.04-5.62-14.58-18.93-18.35-25.52-.63-1.1-1.31-2.02.42-1.78Z"/><path class="cls-6" d="M28.15,510.9c-.61.6-4.44-3.66-5.04-4.3-3.46-3.69-7.13-7.67-10.33-11.58-.5-.61-1.29-.87-1.06-1.88,1-.23,1.26.57,1.85,1.07,3.63,3.06,8.18,8.42,11.39,12.13.45.52,3.56,4.19,3.19,4.56Z"/><path class="cls-7" d="M27.62,501.75l-.53.54-6.36-8.08c2.77,2.74,4.28,4.42,6.89,7.54Z"/><path class="cls-7" d="M34.72,460.64c3.04,3.72,5.73,7.7,8.82,11.36l1.59,2.83-12.72-15.88c.49-2.53,1.92,1.21,2.32,1.7Z"/><path class="cls-6" d="M28.41,511.46c.93.69,2.22,1.25,2.13,2.67-.93-.69-2.22-1.25-2.13-2.67Z"/><path class="cls-4" d="M8.53,489.37l-3.7-3.5c.68.05,2.06,1.29,2.51,1.76.87.92.88,1.35,1.19,1.74Z"/><path class="cls-7" d="M42.47,457.6c-.53.55-2.13-1.05-1.59-1.61s2.13,1.05,1.59,1.61Z"/><path class="cls-6" d="M26.03,517.9c-.39-.55-1.45-.76-1.06-2.15.78.23.91,1.45,1.06,2.15Z"/><path class="cls-4" d="M41.09,440.19c.08.11,2.57,1.01-.2,1.26l-3.46-6.45c1.55,1.48,2.43,3.47,3.66,5.18Z"/><ellipse class="cls-8" cx="52.56" cy="446.83" rx=".65" ry=".66"/><path class="cls-7" d="M31.86,456c.06.06.37,1.31.27,1.6-2.4-.68-1.03-2.37-.27-1.6Z"/><ellipse class="cls-6" cx="59.98" cy="489.36" rx=".65" ry=".66"/><path class="cls-7" d="M35.58,502.83c.76.76-.91,2.16-1.58-.28.28-.09,1.52.22,1.58.28Z"/><path class="cls-7" d="M37.05,505.1c.86.93,1.77,3.83,3.3,4.59l1.59,2.83-2.65-2.55c-.85-1.91-2.49-3.52-3.7-5.26.21-.25,1.41.34,1.46.39Z"/><path class="cls-7" d="M43.4,513.73c.45.48.64,1.36.66,2.02l-2.11-2.42c.2-.28,1.39.35,1.44.41Z"/><ellipse class="cls-15" cx="54.68" cy="538.89" rx=".65" ry=".66"/><path class="cls-7" d="M30.17,453.95c.05.05.62,1.28.38,1.49-1.02-.57-1.29-.85-1.85-1.88.21-.25,1.42.33,1.47.39Z"/><path class="cls-7" d="M19.33,425.12c.27.29.73-.02.87.46.29,1-.8,1.06-1.06.8-.1-.1-.77-2.21-.81-2.68.55.33.61.99.99,1.41Z"/><path class="cls-4" d="M4.29,485.06c-.18.37-.9-.32-.52-1.07.18-.37.9.32.52,1.07Z"/><path class="cls-4" d="M36.9,433.92c.34.18.34.36,0,.54v-.54Z"/><path class="cls-4" d="M42.21,442c.34.18.34.36,0,.54v-.54Z"/><path class="cls-7" d="M28.42,452.22c.34.18.34.36,0,.54v-.54Z"/><path class="cls-6" d="M6.68,479.68c.34.18.34.36,0,.54v-.54Z"/><path class="cls-6" d="M8.53,489.37l2.11,1.89-.25.25c-.8-.57-1.26-1.41-1.86-2.14Z"/><path class="cls-6" d="M54.4,489.37c.34.18.34.36,0,.54v-.54Z"/><path class="cls-7" d="M31.6,498.53c.29.34,1.07.7.54,1.06-.26-.32-1.06-.68-.54-1.06Z"/><polygon class="cls-7" points="32.66 500.15 33.98 501.49 33.73 501.74 32.41 500.4 32.66 500.15"/><path class="cls-6" d="M31.6,514.67c.34.18.34.36,0,.54v-.54Z"/><path class="cls-6" d="M32.13,515.75c.34.18.34.36,0,.54v-.54Z"/><polygon class="cls-15" points="61.29 555.6 62.61 556.94 62.36 557.19 61.04 555.85 61.29 555.6"/><path class="cls-1" d="M85.42,63.52c-.93.13-.5-1.22-.52-1.88-.26-6.27.32-12.61.02-18.87-.39-8.22-2.09-16.35-3.2-24.47.77-.13.73.95.89,1.5,3.99,13.98,4.51,29.31,2.81,43.72Z"/><path class="cls-3" d="M84.37,67.83c-1.09,3-.38,6.78-.51,10-.04.96.44,2.03-1.08,1.84.52-7.07.53-14.18,0-21.26-.59-7.85-2.19-15.63-3.17-23.42.76-.13.72.93.9,1.5.91,2.84,1.74,6.65,2.21,9.61,1.06,6.79,1.45,14.83,1.66,21.73Z"/><path class="cls-8" d="M80.65,85.05c-1.59.28-.84-.43-1.11-1.26-3.1-9.29-4.54-18.56-5.24-28.34.79-.13.66,1.01.79,1.61,2.09,9.26,3.23,18.79,5.57,28Z"/><path class="cls-3" d="M63.68,109.29c.27.27,3.43,6.7,3.19,6.99-.83,1.01-1.14-.77-1.31-1.06-.7-1.19-2.6-4.14-2.88-5.18s.74-1.01,1-.75Z"/><path class="cls-8" d="M65.8,153.43c-1.43-.72-1.78-2.87-2.11-4.3,1.16.8,2.16,2.89,2.11,4.3Z"/><polygon class="cls-8" points="62.45 145.5 63.76 148.54 62.88 148.94 61.56 145.9 62.45 145.5"/><path class="cls-3" d="M68.98,111.44l-4.23-8.61c.98,1.05,2.12,3.17,2.73,4.49s1.43,2.72,1.5,4.12Z"/><path class="cls-7" d="M55.2,161.5c.07.08.23,1.68.27,2.15-1.81-.81-1.35-3.32-.27-2.15Z"/><path class="cls-3" d="M62.62,108.74c-1.41.33-1.68-2.38-2.11-3.22l2.11,3.22Z"/><ellipse class="cls-7" cx="53.62" cy="160.42" rx=".65" ry=".66"/><ellipse class="cls-7" cx="56.27" cy="164.72" rx=".65" ry=".66"/><path class="cls-8" d="M59.45,141.05c.25-.52,1.02,1.07.8,1.6-.57-.48-.97-.81-.8-1.6Z"/><path class="cls-8" d="M61.56,145.35c-.27.61-1.17-1.49-1.05-2.15.27-.61,1.17,1.49,1.05,2.15Z"/><path class="cls-3" d="M68.45,120.05c-.18.37-.9-.32-.52-1.07.18-.37.9.32.52,1.07Z"/><path class="cls-3" d="M67.13,116.82c.34.18.34.36,0,.54v-.54Z"/><path class="cls-3" d="M67.66,117.9c.34.18.34.36,0,.54v-.54Z"/><path class="cls-8" d="M59.18,139.97c.34.18.34.36,0,.54v-.54Z"/><path class="cls-7" d="M52.81,158.81c.34.18.34.36,0,.54v-.54Z"/><path class="cls-7" d="M57.06,165.81c.34.18.34.36,0,.54v-.54Z"/><path class="cls-15" d="M43.53,549.13c.17.1.32.43.53.54.33.97,1.15,1.17,2.12,1.08.97,1.23,1.63,2.04,2.65,3.23,1.53,1.79,3.6,3.52,3.98,5.91-4.74-5.18-10.45-9.62-16.15-13.75-.7-.51-1.22-.86-2.15-.79-.07-1.06,1.03-.44,1.55-.23,2.25.89,5.25,2.75,7.46,4Z"/><path class="cls-13" d="M44.59,537.82c-1.05-1.1-2.96-1.71-2.65-3.77,1.21,1.02,2.9,1.87,2.65,3.77Z"/><path class="cls-13" d="M40.88,532.98c-.73-.59-2.52-.36-2.12-2.69.7.77,2.18,1.15,2.12,2.69Z"/><path class="cls-2" d="M46.19,550.75c-.97.09-1.79-.1-2.12-1.08.68.36.91-.45,2.12,1.08Z"/><path class="cls-13" d="M47.25,541.05c-.97-1.23-.94-1.99-1.06-2.15.98.31,1.15,1.17,1.06,2.15Z"/><path class="cls-2" d="M64.21,565.28l.81,2.68c-.3-.89-3.5-2.66-.81-2.68Z"/><path class="cls-2" d="M59.18,564.2c.34.18.34.36,0,.54v-.54Z"/><path class="cls-13" d="M118.84,172.27c-.76,1.13-1.85,1.82,0,1.62-.15.27-1.97,1.18-1.06,2.15.69.74,2.14-2.06,3.18-1.61.13,3.82.22,7.76.54,11.57.79,9.42,2.93,19.62.53,28.81l1.05-.55c1.02,4.84-3.25,7.75-4.77,11.85.95.99,4.03-5.37,5.29-5.38l1.58,55.2,1.08,4.02c-2,3.24-5.02,6.36-7.23,9.62-1.71,2.52-6.93,10.3-7.61,12.73-.27.95.44,1.11,1.06.54,2.84-4.64,5.4-9.64,9-13.74,1.13-1.29,1.96-2.67,3.71-3.23.7,9.75,1.28,19.52,1.04,29.31l-3.14,4.88,2.38-1.35c.55,3.15-.66,6.7-.82,9.93-.59,12.17-1.06,24.46-1.59,36.61-.68,15.53,1.58,30.35,1.66,45.25.01,1.89-1.03,4.09-.57,6.19-2.6,3.02-4.97,6.22-7.95,8.89-.14,1.66,1.06.43,1.59.26,1.67-.54,6.08-3.51,6.81-1.26.16,6.99-.71,13.9-.45,20.91.16,4.06.68,8.81,1.06,12.92.48,5.18,1.46,10.4,2.16,15.56-5.47,2.89-9.82,6.48-13.3,11.64-.2.3-2.85,3.5-.8,2.69,1.07-.43,3.55-2.64,5.11-3.43,2.97-1.49,6.07-2.67,9.48-2.48l-7.42,4.3c-2.48,1.33-4.66,3.15-6.89,4.85-.84-1.48-1.42-.11-1.97.35-2.82,2.32-6.91,6.68-9.15,9.62-1.14,1.5-5.42,7.77-5.82,9.17-.28.98.71,1.06,1.03.78.11-.1.28-1.82.73-2.5,2.39-3.58,5.59-7.04,8.29-10.42-1.7,5.01-5.93,9.19-6.89,14.54-3.62,5-6.72,10.52-9.7,15.65-.28.49-.88,1.2-.11,1.58,6.99-10.75,15.23-25.46,29.96-24.23.25-1.54-.32-.89-1.23-1.15-5.55-1.55-9.57.44-14.15,3.3,4.37-5.36,10.47-6.07,16.57-3.21.58.27.35,1.03.4,1.05-.41-.39-1.55.29-1.06.53.55.27,1.33-.27,1.06-.53.6.34,1.61.16,2.77,1.1,4.52,3.65,7.5,11.32,3.59,16.39-3.4,4.41-11.38,3.7-9.01-2.95,1.09.33.71,2.01,1.6,2.95,2.14,2.26,5.62-2.6,6.35-4.57,1.32-3.59-1.31-7.46-4.46-9.19-9.4-5.16-17.76,4.25-23.39,10.8-4.94,5.75-11.33,15.7-12.98,23.16-1.88.49-.88-3.1-1.06-4.85,1.76-15.34,8.38-29.12,15.9-42.27-.74.33-2.02,1.62-2.54,2.24-2.27,2.7-4.88,6.25-6.89,9.18-.79,1.14-3.02,5.88-3.31,6.07-1.87,1.29-3.32-4.06-3.56-5.22-2.35-11.24-.52-25.37-.63-37.04-.16-16.75-.66-33.81-1.11-50.56-.27-10.04,2.62-13.38,7.35-21.65,3.15-5.5,6.61-11.09,10.17-16.33,1.26-1.86,3.45-3.49,3.98-5.91-1.51,1.79-3.05,3.56-4.51,5.37-3.39,4.21-6.51,8.64-9.76,12.97l-7.2,11.79c0-2.21-.22-4.12.41-6.31,1.47-5.1,7.71-12.13,10.18-17.11l-4.22,4.33-6.37,9.4-.5-70.22c5.18-13.08,14.76-23.4,22.23-35.03l-2.12,1.62-20.14,26.65c-.19-5.28.47-10.65-.56-15.86,1.67-20.51-2.16-44.53.02-64.63.51-4.67,4.61-10.42,5.84-15.06l-2.22,3.13-3.1,6.82-.49-5.08c4.24-10.69,9.92-20.65,15.34-30.73-.88.26-2.26,2.32-2.78,3.12-2.24,3.48-3.97,7.36-6.32,10.79l-6.27,12.2c0-9.5-.03-19.03,0-28.53l35-48.99c.22,1.82.33,3.74.53,5.65.67,6.19,1.93,12.32,1.59,18.58ZM113.01,193.81l-.28,1.6c.81-.55,1.32-1.7.28-1.6ZM112.47,195.96c-.85-1.02-1.13.79-1.31,1.07-7.3,11.37-15.56,21.85-19.89,35,.9-.68,1.81-2.17,2.45-3.16,2.6-3.98,5.09-8.19,7.52-12.29,1.2-2.03,11.98-19.72,11.24-20.62ZM97.36,198.11v.54c.34-.18.34-.36,0-.54ZM121.75,215.34v.54c.34-.18.34-.36,0-.54ZM91,217.5v.54c.34-.18.34-.36,0-.54ZM90.46,218.57v.54c.34-.18.34-.36,0-.54ZM89.93,219.65v.54c.34-.18.34-.36,0-.54ZM89.4,220.73v.54c.34-.18.34-.36,0-.54ZM88.87,221.8v.54c.34-.18.34-.36,0-.54ZM88.34,222.88v.54c.34-.18.34-.36,0-.54ZM111.15,223.42v.54c.34-.18.34-.36,0-.54ZM87.81,223.96v.54c.34-.18.34-.36,0-.54ZM111.02,225.02c0-.37-.29-.66-.65-.66s-.65.3-.65.66.29.66.65.66.65-.3.65-.66ZM107.17,229.34c-6.34,9.5-12.14,19.24-16.97,29.61-.32.69-2.64,3.67-2.12,4.3.84,1.02,2.4-3.33,2.65-3.77,5.62-9.88,11.33-19.73,16.97-29.61.37-.65,2.72-3.06,2.12-3.77-.83-.97-2.38,2.83-2.65,3.23ZM118.04,226.65v.54c.34-.18.34-.36,0-.54ZM101.07,228.26v.54c.34-.18.34-.36,0-.54ZM100.8,229.34c-.88-.95-1.43,1.24-1.33,2.14.48-.41,1.81-1.63,1.33-2.14ZM99.35,232.56c0-.37-.29-.66-.65-.66s-.65.3-.65.66.29.66.65.66.65-.3.65-.66ZM97.89,233.65v.54c.34-.18.34-.36,0-.54ZM97.76,235.25c0-.37-.29-.66-.65-.66s-.65.3-.65.66.29.66.65.66.65-.3.65-.66ZM96.3,236.34v.54c.34-.18.34-.36,0-.54ZM95.22,237.07l-.99,2.4,1.02.44.99-2.4-1.02-.44ZM94.18,240.11v.54c.34-.18.34-.36,0-.54ZM93.91,241.19h-1.06s0,1.61,0,1.61c.77-.18,1.22-.87,1.05-1.61ZM87.81,263.8v.54c.34-.18.34-.36,0-.54ZM87.28,264.87v.54c.34-.18.34-.36,0-.54ZM86.75,265.95v.54c.34-.18.34-.36,0-.54ZM111.68,274.02v.54c.34-.18.34-.36,0-.54ZM111.55,275.63c0-.37-.29-.66-.65-.66s-.65.3-.65.66.29.66.65.66.65-.3.65-.66ZM110.49,277.24c0-.37-.29-.66-.65-.66s-.65.3-.65.66.29.66.65.66.65-.3.65-.66ZM109.29,278.33l-16.43,22.61,3.08-3.03c3.82-5.43,8.08-10.58,11.66-16.18.61-.96,1.5-2.28,1.69-3.4ZM109.56,284.25v.54c.34-.18.34-.36,0-.54ZM107.69,288.56l1.34-3.22c-.41,1.02-4.13,3.27-1.34,3.22ZM106.77,289.63c0-.37-.29-.66-.65-.66s-.65.3-.65.66.29.66.65.66.65-.3.65-.66ZM104.78,291.25v.54c.34-.18.34-.36,0-.54ZM111.41,303.64c-1.03-1.06-1.8,2.18-1.58,2.69.94.16.31-.85.68-1.47.07-.12,1.83-.27.91-1.22ZM119.37,306.87l-1.34,3.22c.27-.45,2.76-2.86,1.34-3.22ZM108.76,307.41c-.74-.39-1.41.34-1.06.53.74.39,1.41-.34,1.06-.53ZM117.77,310.64l-13.78,18.84c1.03.24,1.26-.55,1.8-1.13,2.25-2.38,4.06-6.14,6.36-8.62l5.62-9.09ZM122.81,320.86v.54c.34-.18.34-.36,0-.54ZM103.45,331.63c.06-.06.37-1.31.27-1.6-2.4.68-1.03,2.37-.27,1.6ZM115.13,361.23c1,.22,1.43-.68,2.11-1.35-.57-.13-2.56,1.13-2.11,1.35ZM113.01,363.39c1,.22,1.43-.68,2.11-1.35-.57-.13-2.56,1.13-2.11,1.35ZM107.16,363.93c.38-.76-.34-1.44-.52-1.07-.38.76.34,1.44.52,1.07ZM99.41,380.28c3.64-4.55,7.71-8.91,11.45-13.41.61-.74,1.64-2.02,1.88-2.94-1.24,1.3-2.77,2.15-4.01,3.46-3.91,4.11-8.35,10.59-11.63,15.54-.32.48-1.02.34-1.05.38-.58.72.52,1.58,1.04,1.07.13-.13.12-1.27.51-1.76.59-.76,1.23-1.6,1.82-2.34ZM95.84,376.12c-.41.62-1.72,1.2-1.91,2.62l1.32-.81,10.6-13.46c-1.11,1.25-2.61,1.99-3.76,3.19-2.08,2.18-4.49,5.76-6.25,8.45ZM93.91,379.55c-.74-.39-1.41.34-1.06.53.74.39,1.41-.34,1.06-.53ZM96.03,384.93c-.83-.81-2.62,2.49-2.39,3.21.18-.38,2.7-2.91,2.39-3.21ZM115.11,410.23c.1-.1,1.21-2.52,1.07-2.69-.26.72-2.02,1.52-2.11,1.62-.56.73.5,1.58,1.04,1.06ZM113.38,410.26l-17.29,23.83,1.05.79,17.29-23.83-1.05-.79ZM118.31,419.92c.89.43,1.94-1.28,2.64-1.88-.61.02-3.01,1.71-2.64,1.88ZM116.98,421v.54c.34-.18.34-.36,0-.54ZM114.06,424.77c-.56-.57-2.74,1.92-3.19,2.41-1.97,2.09-4.25,5.02-6.03,7.34-3.48,4.53-7.3,9.57-9.08,15.01l18.3-24.75ZM115.65,427.46c.38-.76-.34-1.44-.52-1.07-.38.76.34,1.44.52,1.07ZM96.56,435c-.78-.93-1.16.71-1.37,1.01-.76,1.1-1.65,2.56-2.08,3.82.45-.78,4.1-4.05,3.45-4.83ZM92.59,440.38v.54c.34-.18.34-.36,0-.54ZM95.64,450.6c0-.37-.29-.66-.65-.66s-.65.3-.65.66.29.66.65.66.65-.3.65-.66ZM110.88,475.37l3.18-2.42,3.45-5.1c-1.53,2.03-4.01,3.81-5.58,5.64-.52.6-1.27.89-1.05,1.88ZM110.88,475.91c-1.26-1.27-4.65,5.36-4.95,5.74-.33.41-1.08.54-1.4.98-1.25,1.68-3.02,3.7-3.46,5.66,1.68-1.62,2.44-3.95,4.51-5.11l5.3-7.26ZM111.41,489.38c-.74-.39-1.41.34-1.06.53.74.39,1.41-.34,1.06-.53ZM96.3,511.98v.54c.34-.18.34-.36,0-.54ZM95.77,513.06v.54c.34-.18.34-.36,0-.54Z"/><path class="cls-5" d="M75.88,218.57c-1.46,66.34.52,132.75,2.67,198.9,1.32,40.57,2.09,81.09,6.34,121.42.18,1.74-.82,5.34,1.06,4.85-.2.89-.87,1.8-.55,2.93l2.67,18.06c.08,2.25.03,4.93,1.06,7,.24,5.3,1.5,11.45,2.28,16.8,5.1,35.01,12.73,69.65,19.47,104.33-1.5-4.46-4.29-9.69-6.36-14,1-.53.42-1.88.29-2.71-1.25-7.86-3.4-16.16-4.99-24.04-.2-.99.47-2.1-1.13-1.78.08-.49-.04-1.09,0-1.62,0-.06.74-.49.53-1.07-.3-.06-1,.08-1.06,0-.17-.23.1-2.5,0-3.23-.04-.25-.28-.48-.53-.54-2.99-20.71-7.41-41.23-10.61-61.91-.55-3.59-1.08-7.17-1.59-10.77-3.39-23.75-6.9-49.04-6.87-72.92,0-3.34-.22-6.29-.56-9.45-.08-8.35-.28-16.72-.51-25.08-.02-.69-.55-1.23-.55-1.3-.88-31.62-1.3-63.11-2.12-94.75-1.26-48.98-1.62-98.27,0-147.27.03-1.04-.54-2.16,1.06-1.86Z"/><path class="cls-14" d="M71.11,279.95c1.5,93.6-3.57,187.24,8.02,280.15,4,32.06,8.99,65.15,14.87,96.89.14.73.86,2.06-.09,2.51-2.29-3.68-4.89-10.38-9.55-10.77-1.77-18.89-4.83-37.68-6.89-56.53-.08-.7.08-1.45,0-2.15l10.08,54.37.55-1.9c-8.9-58.75-15.2-116.53-16.97-176.05-1.82-61.12-3.1-123.45-1.08-184.66.03-1.04-.54-2.16,1.06-1.86ZM89.13,648.73c-.27-.91-.06-3.4-1.05-3.77.03,1.28-.46,3.22,1.05,3.77Z"/><path class="cls-2" d="M97.09,530.83c12.15-7.4,24.28,10.5,22.66,21.66-.95,6.61-8.66,13.44-15.24,13.32l5.26-3.54c7.92-6.43,7.16-12.6,1.1-20.14-5.39-6.72-12.12-6.31-16.54,1.24-1.83,3.12-2.33,5.65-3.08,8.99-1.41,6.24-2.41,12.97-2.12,19.38-1.03-2.07-.98-4.75-1.06-7-.43-11.77.19-24.35,7.42-33.92l.27,1.61c.51-.43.78-1.28,1.33-1.61ZM117.77,549.13c-1.01-12.66-14.52-26.9-24.38-12.11,2.37-.89,3.65-3.47,6.22-3.92,5.77-1.01,13.2,5.17,15.6,10.28l2.56,5.74ZM92.85,539.44l.28-1.6c-.81.55-1.32,1.7-.28,1.6Z"/><path class="cls-8" d="M118.84,173.89c.86-1.53,1.12-3.35,3.18-3.23.24,11.04,1.9,22.09,2.65,33.11,1.66,24.52,2.08,49.18,3.18,73.74-.19,1.03-1.06,1.59-1.58,2.43l-1.08-4.02-1.58-55.2c-1.26,0-4.35,6.37-5.29,5.38,1.51-4.09,5.79-7.01,4.77-11.85l-1.05.55c2.4-9.19.26-19.39-.53-28.81-.32-3.81-.41-7.74-.54-11.57-1.03-.45-2.49,2.35-3.18,1.61-.91-.97.91-1.88,1.06-2.15Z"/><path class="cls-8" d="M116.71,144.28c-.19-1.53-1.2-3.93-1.44-5.81-1.59-12.57-2.52-25.13-3.34-37.8-1.11.02-3.29,4.75-4.23,3.77.02-1.97,2.3-3.37,2.62-5.14.23-1.28-.07-10.99-.51-11.55l-2.11.53c2.48-5.02.67-8.57-1.06-13.46.27-.33.36-1.79,1.33-2.14l.71.89c4.53,20.64,8.32,41.65,9.13,62.88.08,2.1.65,6.53-1.08,7.83Z"/><path class="cls-8" d="M127.32,420.46c-.98,3.05-.53,6.96-.53,10.23s0,6.47,0,9.69c0,3.45-.45,7.52.53,10.77.22,8.22,1.32,16.29,2.68,24.4l-15.94,10.05c3.48-5.16,7.83-8.75,13.3-11.64-.7-5.15-1.67-10.38-2.16-15.56-.38-4.11-.9-8.86-1.06-12.92-.27-7.01.61-13.91.45-20.91-.73-2.25-5.15.73-6.81,1.26,1.19-1.78,3.6-3.39,5.48-4.4.82-.44,3.63-2.34,4.07-.99Z"/><path class="cls-8" d="M85.96,543.75c1.66-7.46,8.04-17.4,12.98-23.16,5.63-6.55,13.99-15.96,23.39-10.8,3.14,1.73,5.78,5.6,4.46,9.19.43-6.67-5.49-9.8-11.4-9.15-8.63.95-15.36,13.68-18.29,21-.55.33-.82,1.19-1.33,1.61l-.27-1.61c-7.23,9.56-7.85,22.15-7.42,33.92l-2.67-18.06c-.32-1.13.35-2.04.55-2.93Z"/><path class="cls-10" d="M84.9,649.8c1.21-.07,1.37.81,1.92,1.55,6.29,8.5,18.89,30.8,21.97,40.69.25.82.91,2.26.24,2.98-1.79-1.51-2.94-3.49-4.2-5.43-5.27-8.07-10.84-18.72-15.16-27.41-2.27-4.56-3.52-7.44-4.77-12.38Z"/><path class="cls-9" d="M93.91,659.5c3.97,6.37,7.35,12.61,10.61,19.38,2.07,4.31,4.86,9.54,6.36,14,.7,2.09,1.2,4.79,1.59,7-1.04,1.12-5.63-5.41-6.26-6.29-3.52-4.84-6.58-10.47-9.39-15.77-2.6-4.93-5.38-10.38-7.15-15.62,4.32,8.69,9.89,19.34,15.16,27.41,1.26,1.93,2.41,3.91,4.2,5.43.67-.73,0-2.17-.24-2.98-3.08-9.88-15.68-32.19-21.97-40.69-.55-.74-.72-1.62-1.92-1.55-.06-.24-.55-.65-.53-1.08,4.65.39,7.25,7.09,9.55,10.77Z"/><path class="cls-15" d="M104.52,508.21c4.58-2.86,8.6-4.85,14.15-3.3.91.25,1.48-.39,1.23,1.15-14.73-1.23-22.97,13.47-29.96,24.23-.77-.38-.17-1.09.11-1.58,2.98-5.13,6.08-10.64,9.7-15.65,1.11-1.53,2.85-2.54,4.24-4.85h.53Z"/><path class="cls-6" d="M103.99,508.21c-1.39,2.31-3.13,3.31-4.24,4.85.96-5.34,5.19-9.53,6.89-14.54,3.26-4.08,2.55-3.71,6.89-7,2.24-1.69,4.41-3.51,6.89-4.85-4.42,4.11-8.73,8.21-12.1,13.29-1.72,2.6-2.87,5.8-4.34,8.24Z"/><path class="cls-6" d="M116.71,145.89l1.59-.81c.69,5.17,1.08,10.37,1.64,15.56.61,5.62,2.61,6.09-1.11,11.63.35-6.26-.92-12.39-1.59-18.58-.21-1.91-.31-3.83-.53-5.65-.09-.69.09-1.46,0-2.15Z"/><path class="cls-6" d="M91.26,552.36c.75-3.34,1.25-5.86,3.08-8.99,4.42-7.55,11.16-7.96,16.54-1.24-1.43-.26-2.17-1.46-3.51-2.09-9.24-4.35-13.21,5.24-16.11,12.32Z"/><path class="cls-7" d="M127.32,334.32c.08-3.84-.5-8.2.53-11.84,0,3.81.45,8.22-.53,11.84Z"/><path class="cls-8" d="M127.85,322.48c-1.03,3.64-.45,8.01-.53,11.84-.16,7.97-.93,16.03-1.08,23.94-.35,18.44-.09,37.16.51,55.51-.08,1.43-1.89,2.09-2.61,2.92-.46-2.1.58-4.3.57-6.19-.08-14.9-2.34-29.72-1.66-45.25.53-12.15,1.01-24.44,1.59-36.61.16-3.23,1.37-6.78.82-9.93l-2.38,1.35,3.14-4.88c.24-9.79-.34-19.56-1.04-29.31-1.75.56-2.58,1.94-3.71,3.23,1.36-2.92,3.89-5.56,6.36-7.54,0,13.63.02,27.29,0,40.92Z"/><path class="cls-1" d="M81.71,197.04c-.02,9.5.01,19.03,0,28.53l6.27-12.2c2.34-3.43,4.07-7.31,6.32-10.79.52-.81,1.9-2.86,2.78-3.12-5.41,10.08-11.1,20.04-15.34,30.73l.49,5.08,3.1-6.82,2.22-3.13c-1.24,4.64-5.34,10.4-5.84,15.06-2.18,20.1,1.65,44.11-.02,64.63,1.03,5.21.37,10.58.56,15.86l20.14-26.65,2.12-1.62c-7.47,11.63-17.04,21.95-22.23,35.03l.5,70.22,6.37-9.4,4.22-4.33c-2.47,4.99-8.71,12.01-10.18,17.11-.63,2.19-.41,4.1-.41,6.31l7.2-11.79c3.25-4.33,6.37-8.76,9.76-12.97l.53.54c-3.55,5.24-7.02,10.82-10.17,16.33-4.74,8.27-7.62,11.61-7.35,21.65.45,16.75.95,33.8,1.11,50.56.11,11.68-1.72,25.8.63,37.04.24,1.16,1.68,6.51,3.56,5.22.28-.19,2.52-4.93,3.31-6.07,2.01-2.93,4.62-6.47,6.89-9.18.52-.62,1.8-1.91,2.54-2.24-7.52,13.15-14.14,26.93-15.9,42.27-4.25-40.34-5.02-80.86-6.34-121.42-2.16-66.15-4.13-132.56-2.67-198.9.03-1.25-.03-2.52,0-3.77.04-2.07.46-5.03.53-7.54.04-1.61-.04-3.24,0-4.85.05-2.16.58-4.85.53-7.54-.01-.54.02-1.08,0-1.62,1.07-1.83.41-4.75.53-7,.03-.53-.04-1.08,0-1.62,1.12-15.96,3.18-32.28,4.24-48.45.88.56.53,2.04.54,2.95.24,19.34-.49,38.56-.54,57.88Z"/><path class="cls-8" d="M112.47,195.96c.75.9-10.04,18.6-11.24,20.62-2.43,4.1-4.92,8.31-7.52,12.29-.64.98-1.55,2.48-2.45,3.16,4.34-13.14,12.6-23.63,19.89-35,.18-.28.46-2.09,1.31-1.07Z"/><path class="cls-15" d="M107.7,229.88c-5.64,9.88-11.35,19.73-16.97,29.61l-.53-.54c4.83-10.37,10.63-20.11,16.97-29.61l.53.54Z"/><polygon class="cls-7" points="113.38 410.26 114.43 411.05 97.14 434.88 96.09 434.1 113.38 410.26"/><path class="cls-6" d="M109.29,278.33c-.19,1.11-1.08,2.44-1.69,3.4-3.58,5.6-7.84,10.75-11.66,16.18l-3.08,3.03,16.43-22.61Z"/><path class="cls-6" d="M117.77,310.64l-5.62,9.09c-2.3,2.48-4.1,6.24-6.36,8.62-.55.58-.77,1.36-1.8,1.13l13.78-18.84Z"/><path class="cls-7" d="M113.53,491.52c-4.35,3.28-3.63,2.91-6.89,7-2.7,3.38-5.9,6.84-8.29,10.42-.46.68-.62,2.4-.73,2.5-.32.28-1.31.2-1.03-.78.4-1.4,4.68-7.67,5.82-9.17,2.24-2.94,6.33-7.3,9.15-9.62.55-.46,1.14-1.83,1.97-.35Z"/><path class="cls-7" d="M99.41,380.28c-.59.74-1.23,1.58-1.82,2.34-.38.49-.37,1.63-.51,1.76-.52.51-1.63-.34-1.04-1.07.04-.04.73.1,1.05-.38,3.29-4.95,7.73-11.43,11.63-15.54,1.24-1.31,2.77-2.17,4.01-3.46-.23.92-1.26,2.2-1.88,2.94-3.74,4.49-7.81,8.85-11.45,13.41Z"/><path class="cls-7" d="M95.84,376.12c1.76-2.69,4.17-6.27,6.25-8.45,1.15-1.21,2.65-1.95,3.76-3.19l-10.6,13.46-1.32.81c.19-1.42,1.51-2,1.91-2.62Z"/><path class="cls-7" d="M110.88,475.91l-5.3,7.26c-2.07,1.16-2.83,3.49-4.51,5.11.45-1.95,2.21-3.97,3.46-5.66.32-.43,1.07-.56,1.4-.98.3-.38,3.69-7.01,4.95-5.74Z"/><path class="cls-7" d="M110.88,475.37c-.22-1,.54-1.28,1.05-1.88,1.56-1.83,4.05-3.61,5.58-5.64l-3.45,5.1-3.18,2.42Z"/><path class="cls-7" d="M90.73,259.49c-.25.44-1.8,4.79-2.65,3.77-.52-.63,1.8-3.62,2.12-4.3l.53.54Z"/><path class="cls-7" d="M107.17,229.34c.27-.4,1.82-4.19,2.65-3.23.6.7-1.75,3.12-2.12,3.77l-.53-.54Z"/><path class="cls-7" d="M96.56,435c.65.78-3,4.05-3.45,4.83.43-1.27,1.32-2.72,2.08-3.82.21-.3.59-1.94,1.37-1.01Z"/><polygon class="cls-7" points="95.22 237.07 96.25 237.51 95.25 239.91 94.23 239.47 95.22 237.07"/><path class="cls-6" d="M100.28,383.31l-.53-.54c1.46-1.81,3.01-3.59,4.51-5.37-.54,2.42-2.72,4.05-3.98,5.91Z"/><path class="cls-7" d="M96.03,384.93c.31.3-2.21,2.83-2.39,3.21-.23-.73,1.56-4.02,2.39-3.21Z"/><path class="cls-7" d="M100.8,229.34c.48.51-.84,1.73-1.33,2.14-.1-.9.45-3.09,1.33-2.14Z"/><path class="cls-7" d="M93.91,241.19c.16.74-.29,1.43-1.05,1.61v-1.61s1.05,0,1.05,0Z"/><ellipse class="cls-6" cx="94.98" cy="450.6" rx=".65" ry=".66"/><ellipse class="cls-7" cx="110.36" cy="225.02" rx=".65" ry=".66"/><ellipse class="cls-7" cx="98.7" cy="232.56" rx=".65" ry=".66"/><ellipse class="cls-7" cx="97.1" cy="235.25" rx=".65" ry=".66"/><ellipse class="cls-6" cx="110.89" cy="275.63" rx=".65" ry=".66"/><ellipse class="cls-6" cx="109.83" cy="277.24" rx=".65" ry=".66"/><path class="cls-4" d="M107.69,288.56c-2.79.05.93-2.2,1.34-3.22l-1.34,3.22Z"/><ellipse class="cls-4" cx="106.12" cy="289.63" rx=".65" ry=".66"/><path class="cls-6" d="M103.45,331.63c-.75.77-2.13-.92.27-1.6.09.29-.22,1.54-.27,1.6Z"/><path class="cls-7" d="M115.11,410.23c-.54.51-1.6-.33-1.04-1.06.08-.11,1.85-.9,2.11-1.62.14.17-.96,2.59-1.07,2.69Z"/><path class="cls-7" d="M115.13,361.23c-.45-.22,1.54-1.47,2.11-1.35-.68.66-1.1,1.56-2.11,1.35Z"/><path class="cls-8" d="M113.01,193.81c1.04-.1.53,1.05-.28,1.6l.28-1.6Z"/><path class="cls-15" d="M121.49,506.06c.28.26-.5.81-1.06.53-.49-.24.65-.92,1.06-.53Z"/><path class="cls-6" d="M119.37,306.87c1.42.36-1.07,2.77-1.34,3.22l1.34-3.22Z"/><path class="cls-7" d="M93.91,379.55c.36.19-.31.91-1.06.53-.36-.19.31-.91,1.06-.53Z"/><path class="cls-7" d="M113.01,363.39c-.45-.22,1.54-1.47,2.11-1.35-.68.66-1.1,1.56-2.11,1.35Z"/><path class="cls-6" d="M118.31,419.92c-.37-.18,2.03-1.86,2.64-1.88-.69.61-1.74,2.31-2.64,1.88Z"/><path class="cls-7" d="M107.16,363.93c-.18.37-.9-.32-.52-1.07.18-.37.9.32.52,1.07Z"/><path class="cls-6" d="M116.98,421c.34.18.34.36,0,.54v-.54Z"/><path class="cls-7" d="M92.59,440.38c.34.18.34.36,0,.54v-.54Z"/><path class="cls-6" d="M114.06,424.77l-18.3,24.75c1.77-5.43,5.59-10.47,9.08-15.01,1.78-2.31,4.06-5.25,6.03-7.34.45-.48,2.63-2.97,3.19-2.41Z"/><path class="cls-8" d="M122.81,320.86c.34.18.34.36,0,.54v-.54Z"/><path class="cls-1" d="M97.36,198.11c.34.18.34.36,0,.54v-.54Z"/><path class="cls-7" d="M96.3,511.98c.34.18.34.36,0,.54v-.54Z"/><path class="cls-7" d="M95.77,513.06c.34.18.34.36,0,.54v-.54Z"/><path class="cls-8" d="M121.75,215.34c.34.18.34.36,0,.54v-.54Z"/><path class="cls-1" d="M104.78,291.25c.34.18.34.36,0,.54v-.54Z"/><path class="cls-5" d="M91,217.5c.34.18.34.36,0,.54v-.54Z"/><path class="cls-5" d="M90.46,218.57c.34.18.34.36,0,.54v-.54Z"/><path class="cls-5" d="M89.93,219.65c.34.18.34.36,0,.54v-.54Z"/><path class="cls-5" d="M89.4,220.73c.34.18.34.36,0,.54v-.54Z"/><path class="cls-5" d="M88.87,221.8c.34.18.34.36,0,.54v-.54Z"/><path class="cls-5" d="M88.34,222.88c.34.18.34.36,0,.54v-.54Z"/><path class="cls-7" d="M111.15,223.42c.34.18.34.36,0,.54v-.54Z"/><path class="cls-5" d="M87.81,223.96c.34.18.34.36,0,.54v-.54Z"/><path class="cls-8" d="M118.04,226.65c.34.18.34.36,0,.54v-.54Z"/><path class="cls-7" d="M101.07,228.26c.34.18.34.36,0,.54v-.54Z"/><path class="cls-4" d="M109.56,284.25c.34.18.34.36,0,.54v-.54Z"/><path class="cls-7" d="M97.89,233.65c.34.18.34.36,0,.54v-.54Z"/><path class="cls-7" d="M96.3,236.34c.34.18.34.36,0,.54v-.54Z"/><path class="cls-7" d="M94.18,240.11c.34.18.34.36,0,.54v-.54Z"/><path class="cls-7" d="M87.81,263.8c.34.18.34.36,0,.54v-.54Z"/><path class="cls-7" d="M87.28,264.87c.34.18.34.36,0,.54v-.54Z"/><path class="cls-7" d="M86.75,265.95c.34.18.34.36,0,.54v-.54Z"/><path class="cls-6" d="M111.68,274.02c.34.18.34.36,0,.54v-.54Z"/><path class="cls-11" d="M83.31,110.36c-1.84-.5-.89,2.64-1.06,4.31-.04.35.03.72,0,1.08-2.04,21.38-3.74,43.22-5.32,64.85-.08,1.15-.32,3.21.55,4.06-.04.53.03,1.08,0,1.62-.3.05-.99-.09-1.06,0-.17.23-.07,4.81-.02,5.7.03.7.55,1.23.55,1.3.02.54-.01,1.08,0,1.62-.3.05-.99-.09-1.06,0-.23.31-.21,6.72.53,7.54-.04,1.61.04,3.24,0,4.85-.3.05-.99-.09-1.06,0-.23.31-.21,6.72.53,7.54-.03,1.25.03,2.52,0,3.77-1.6-.3-1.03.82-1.06,1.86-1.62,49-1.26,98.29,0,147.27-.88.56-.53,2.04-.54,2.95-.32,30.7.68,61.18,2.13,91.8.09,1.89.53,4.81.53,6.19v9.15c0,3.05.73,7.93,1.06,11.04s.56,6.1.56,9.45c-.03,23.88,3.48,49.18,6.87,72.92-1.36,3.16.64,7.59,1.06,10.77.15,1.08-.14,2.35,0,3.48,2.97,22.3,6.31,44.67,11.66,66.5.94.14.43-1.01.52-1.61,1.61-.32.93.79,1.13,1.78,1.59,7.88,3.74,16.18,4.99,24.04.13.82.71,2.18-.29,2.71-3.26-6.77-6.64-13.01-10.61-19.38.95-.45.23-1.77.09-2.51-5.89-31.74-10.87-64.83-14.87-96.89-11.59-92.91-6.53-186.55-8.02-280.15-.04-2.65-.46-5.13-.53-7.54,1.6.3,1.03-.82,1.06-1.86.1-2.95.05-5.96,0-8.91-.61-37.27,4.47-75.64,5.83-113.06.67-.63.5-1.36.53-2.15.06-1.51.12-3.37,0-4.85.57-2.3.88-5.42,1.06-7.81.96-13.17,1.56-26.42,2.66-39.56.17-2.07.9-4.94,1.08-7.25.08-1,.3-2.83-.55-3.52.1-1.18.43-2.37.53-3.77,1.52.19,1.04-.88,1.08-1.84.13-3.22-.58-7,.51-10,.45,14.2-.76,28.36-1.06,42.53Z"/><path class="cls-12" d="M76.41,136.74c1.84-.45.85,1.95,1.04,3.54.08.68.55,1.23.55,1.3.12,1.48.06,3.34,0,4.85-1.42-.45-1.54,1.23-.53,2.15-1.36,37.42-6.44,75.79-5.83,113.06-1.61-.3-1.02.82-1.06,1.86-.11,2.88-.09,6.02,0,8.91.08,2.41.49,4.88.53,7.54-1.6-.3-1.03.82-1.06,1.86-2.02,61.22-.74,123.54,1.08,184.66,1.77,59.52,8.07,117.3,16.97,176.05l-.55,1.9-10.08-54.37c-.04-.35.04-.73,0-1.08.87-.54.85-2.72,0-3.23-.06-.53.06-1.09,0-1.62l-.53-2.15c-.07-.7.07-1.45,0-2.15l-.53-1.62c-.07-.7.07-1.45,0-2.15-.03-.86.33-2.23-.53-2.69-14.14-137.78-12.98-273.32-1.59-411.31.69-8.4,1.33-16.91,2.12-25.3Z"/><path class="cls-5" d="M81.71,136.2c-1.06,16.17-3.12,32.49-4.24,48.45-.87-.86-.63-2.92-.55-4.06,1.58-21.62,3.28-43.46,5.32-64.85.88,2.03.65,5.08.55,7.29-.2,4.35-.8,8.8-1.08,13.17Z"/><path class="cls-15" d="M78,141.59c0-.07-.47-.62-.55-1.3-.19-1.6.8-3.99-1.04-3.54,1.34-14.2,3.26-28.36,4.77-42.53h.53c-1.1,13.15-1.7,26.39-2.66,39.56-.17,2.39-.49,5.51-1.06,7.81Z"/><path class="cls-1" d="M106.64,97.98c-1.18,3.44-2.56,7.34-4.15,10.59-3.65,7.51-8.87,16.55-13.09,23.87-.4.7.09,1.36-1.32,1.06l18.56-35.53Z"/><path class="cls-3" d="M89.66,166.35c-.66.57-1.58-.36-.84-1.12l14.63-22.56-13.79,23.68Z"/><path class="cls-3" d="M107.18,127.05c1.01.24-.89,3.43-1.16,3.93-2.57,4.84-5.61,9.8-8.66,14.35,1.96-6.7,6.25-12.44,9.82-18.29Z"/><path class="cls-7" d="M81.71,94.21h-.53c.38-3.59.75-7.16,1.06-10.77.85.69.63,2.52.55,3.52-.18,2.31-.91,5.18-1.08,7.25Z"/><path class="cls-5" d="M83.31,110.36c-.03,1.63.67,4.84-1.06,4.31.17-1.67-.78-4.8,1.06-4.31Z"/><path class="cls-1" d="M88.07,135.12c-.18.37-.9-.32-.52-1.07.18-.37.9.32.52,1.07Z"/><path class="cls-3" d="M106.38,138.37c-.16,1.33-1.31,2.73-2.13,3.75.16-1.33,1.31-2.73,2.13-3.75Z"/><path class="cls-3" d="M95.5,149.66c-1.04.1-.53-1.05.28-1.6l-.28,1.6Z"/><path class="cls-3" d="M88.07,168.5c-1.04.1-.53-1.05.28-1.6l-.28,1.6Z"/><path class="cls-8" d="M107.43,104.98c.34.18.34.36,0,.54v-.54Z"/><path class="cls-3" d="M96.83,145.89c.34.18.34.36,0,.54v-.54Z"/><path class="cls-3" d="M96.3,146.97c.34.18.34.36,0,.54v-.54Z"/><path class="cls-14" d="M77.47,588.97c-.11-1.05.11-2.18,0-3.23.85.51.87,2.69,0,3.23Z"/><path class="cls-14" d="M76.41,576.05c-.04-.42-.42-1.6-.53-2.69.86.46.5,1.83.53,2.69Z"/><path class="cls-14" d="M77.47,584.12c-.02-.15-.43-1.18-.53-2.15l.53,2.15Z"/><path class="cls-14" d="M76.94,579.82c0-.08-.42-.56-.53-1.62l.53,1.62Z"/><path class="cls-15" d="M97.62,643.88c.04.25.27.48.53.54.1.73-.17,3,0,3.23l.53,1.08c-.04.53.08,1.13,0,1.62-.1.6.41,1.75-.52,1.61-5.35-21.83-8.7-44.2-11.66-66.5-.15-1.14.14-2.4,0-3.48h.53c3.2,20.68,7.62,41.2,10.61,61.91Z"/><path class="cls-15" d="M76.94,462.45h-.53c-1.45-30.62-2.45-61.1-2.13-91.8,0-.91-.34-2.39.54-2.95.82,31.65,1.24,63.14,2.12,94.75Z"/><path class="cls-7" d="M78,488.83c-.33-3.11-1.06-7.99-1.06-11.04v-9.15c0-1.38-.44-4.3-.53-6.19h.53c0,.07.53.61.55,1.3.23,8.36.43,16.72.51,25.08Z"/><path class="cls-7" d="M87.02,581.97h-.53c-.43-3.17-2.42-7.61-1.06-10.77.51,3.6,1.04,7.18,1.59,10.77Z"/><path class="cls-11" d="M98.15,647.65c.06.08.75-.06,1.06,0,.22.58-.52,1.01-.53,1.07l-.53-1.08Z"/><path class="cls-11" d="M98.15,644.42c-.26-.05-.49-.29-.53-.54.26.06.49.29.53.54Z"/><path class="cls-12" d="M89.13,648.73c-1.51-.54-1.02-2.48-1.05-3.77.99.36.78,2.86,1.05,3.77Z"/><path class="cls-15" d="M117.77,549.13l-2.56-5.74c-2.41-5.11-9.84-11.3-15.6-10.28-2.57.45-3.85,3.03-6.22,3.92,9.86-14.8,23.37-.56,24.38,12.11Z"/><path class="cls-15" d="M92.85,539.44c-1.04.1-.53-1.05.28-1.6l-.28,1.6Z"/><path class="cls-5" d="M76.41,207.27c-.07,2.51-.49,5.47-.53,7.54-.74-.82-.76-7.23-.53-7.54.07-.09.76.05,1.06,0Z"/><path class="cls-5" d="M76.94,194.88c.05,2.69-.48,5.38-.53,7.54-.74-.82-.76-7.23-.53-7.54.07-.09.76.05,1.06,0Z"/><path class="cls-5" d="M77.47,186.27c-.12,2.25.54,5.17-.53,7,0-.07-.52-.61-.55-1.3-.04-.89-.15-5.47.02-5.7.07-.09.76.05,1.06,0Z"/><path class="cls-14" d="M71.64,261.64c.05,2.94.1,5.96,0,8.91-.03,1.04.54,2.16-1.06,1.86-.09-2.88-.11-6.02,0-8.91.04-1.04-.55-2.16,1.06-1.86Z"/><path class="cls-15" d="M78,146.43c-.03.8.14,1.53-.53,2.15-1.01-.93-.89-2.61.53-2.15Z"/></svg>