<?xml version="1.0" encoding="UTF-8"?>
<svg id="Layer_1" xmlns="http://www.w3.org/2000/svg" version="1.1" viewBox="0 0 130 700">
  <!-- Generator: Adobe Illustrator 29.3.1, SVG Export Plug-In . SVG Version: 2.1.0 Build 151)  -->
  <defs>
    <style>
      .st0 {
        fill: #a25831;
      }

      .st1 {
        fill: #cb8e3e;
      }

      .st2 {
        fill: #c07d4e;
      }

      .st3 {
        fill: #b17328;
      }

      .st4 {
        fill: #c37c32;
      }

      .st5 {
        fill: #a45c34;
      }

      .st6 {
        fill: #dfb376;
      }

      .st7 {
        fill: #a35a33;
      }

      .st8 {
        fill: #ab6521;
      }

      .st9 {
        fill: #513423;
      }

      .st10 {
        fill: #cf903a;
      }

      .st11 {
        fill: #f8ddc0;
      }

      .st12 {
        fill: #cc8f3d;
      }

      .st13 {
        fill: #e4bb84;
      }

      .st14 {
        fill: #e2b77d;
      }
    </style>
  </defs>
  <path class="st3" d="M95,578.7c-.9.8-2.8,1.2-3.7,2.2,0,0,.7.6,1.8.5,1,0,2.1-.7,3-1.1.2-.1.3-.4.5-.5-2.2.3.6-1.4-1.6-1.1h0Z"/>
  <path class="st1" d="M91.2,580.9c-1,0-2.3.3-3.2.8,2.8,2.1,5.7.3,8-1.3-.9.4-2,1-3,1.1-1.1,0-1.7-.5-1.8-.5Z"/>
  <path class="st13" d="M2.7,451.1c1-3.2.5-7.3.5-10.8-1,3.3-.4,7.3-.5,10.8Z"/>
  <path class="st13" d="M3.2,430.7c0-3.3.4-7.2-.5-10.2-.5,1.6,0,8.3.5,10.2Z"/>
  <path class="st12" d="M84.9,177.1l-.5.5c0,.2-.4.4-.5.5-3.3,6-8.5,11.4-11.9,17.8-2.5,4.8-9.3,19.7-9.8,24.5-.7,6.2,1.3,16.4,1.6,23.1.5,11,.5,22.1,1,33.1l9.6-16.3c3.7-4.7,6.7-10.1,10.3-14.8.3-.4.4-1.5,1.2-.4-7,12.1-14.8,23.7-21.2,36.1.5,8,.9,16.2,1.1,24.2s-.2,15.6,0,23.4c2.7-1.9,3.5-5.6,6.3-7.3-1.2,3.6-6.4,8.3-6.4,11.9s.8,3,.6,4.6c2.6-2.8,3.8-7.6,6.2-10.6.3-.4.4-1.5,1.2-.4-1.8,4.6-6.9,11.4-7.4,16.1-1.4,11.7.5,27.8.6,39.8,0,13.1-.2,26.2-.6,39.3-.1,4.4.1,8.8,0,13.2l10.3-20.5c8.8-17.4,18.9-33.8,30-49.5,4.2-6,8.2-12.2,13-17.8-3.4-33-5.9-66.7-10.4-99.8-1.5-11.3-3.5-23.2-5.9-34.4-.3-1.5-2.5-12.3-3.3-12.3l-8.2,8.6c.2-3.5,7.5-10.4,7.9-12.7s-.3-10.1-.5-12.9c-.5-6-1.3-12.6-2.1-18.6-2.6,2.2-5.4,4.4-8,6.7-.8.8-3.9,4.6-4.2,4.6h0ZM85.7,198.1v.5c-.3-.2-.3-.4,0-.5ZM84.4,199.2c.8-.8,2.1.9-.3,1.6,0-.3.2-1.5.3-1.6ZM82.8,201.4c2.9.3.2,1.1,0,1.4-.6.8,0,2.2-1.6,1.8l1.6-3.2h0ZM85.7,203.5v.5c-.3-.2-.3-.4,0-.5ZM84.4,204.6c2.8.2.2,1.1,0,1.5-3.6,6.1-7.3,12.3-11.7,17.9l1.7-3.9,10-15.4h0ZM80.9,205.1c0,.9-1.1,2-1.6,2.7-.1-1,1-2,1.6-2.7ZM90.7,211.6c-.4-.8.3-1.4.5-1.1.4.8-.3,1.4-.5,1.1ZM85.7,213.2c.5.4-.3.7-.5,1.1-.5-.4.2-.7.5-1.1ZM84.6,214.8v.5c-.3-.2-.3-.4,0-.5ZM83.3,215.9c2.8.2.2,1.1,0,1.5s-1.2,3.9-2.2,2.8l2.1-4.3ZM78.5,224.5l2.4-3.8-.5,1.9-1.9,1.8ZM101.1,273l.2.2-1.3,1.3-.2-.2,1.3-1.3ZM97.6,277.2c-.4.4-1.3,2.8-1.6,2.1-.3-1.3,1.1-1.5,1.6-2.1.3-.4.4-1.7,1.9-2.1.4,1.6-1.8,2-1.9,2.1ZM92.6,277.3l.2.2-1.8,1.9-.2-.2,1.8-1.9ZM79.6,298.8c-.6-.6,8.6-11.1,9.3-12.4,1.1-.5,5.6-7.4,6.6-6.5l-14,17.8c-.3.5-1.4,1.5-1.9,1.1h0ZM84.2,287.3c1.2-1.7,2.8-4.1,4.2-5.7.6-.7,1.5-.9,2.1-1.6-1.7,3.1-4.4,5.6-6.4,8.6l-1.8.9c.3-1,1.5-1.6,1.9-2.1h0ZM82,290.2c.5.4-.3.7-.5,1.1-.5-.4.2-.7.5-1.1ZM79,299.9c.3.3.3.7,0,.9s-.7.3-.9,0-.3-.7,0-.9.7-.3.9,0c0-.2.1-.6.3-.6.6,0,0,.8-.3.6ZM76.9,301.5c.8-.8,2.1.9-.3,1.6,0-.3.2-1.5.3-1.6ZM76.1,303.6v.5c-.3-.2-.3-.4,0-.5ZM108.7,314.4c-.4-.8.3-1.4.5-1.1.4.8-.3,1.4-.5,1.1ZM104.5,318.7c-.3.5-1,2.4-2.1,2.7,0-2,1.4-2.2,2.1-2.7,0-.1,0-.6.3-1.1.5-.8,2.6-1.6,3.2-2.7-.3.8-1.7,2.8-2.2,3.2-.6.5-1.1.4-1.3.5h0ZM99.9,324.3c-.5.5-1,2-1.8,1.7,1.4-1.4,1.5-3.2,3.4-4,.2,1.2-1.1,1.8-1.6,2.4h0ZM99,329.3c.5-.5.5-1.4,1-2,1.2-1.3,3.2-2.4,4.2-4.3-1.7,3.4-4.7,6.1-6.9,9.1-2.5-.4,1.3-2.4,1.7-2.9h0ZM74.8,324.6c.2.8-.2,1.1-.8,1.6-.2-.5.5-2.1.8-1.6ZM94.3,335.2c.3-.4,1.4-3.5,2.3-2.5.5.5-2.7,3-2.6,4l-1.1-.5c.3-.5,1.2-.6,1.4-1h0ZM102.9,338.1c-.2-.7.3-1.4,1-1.6v1.6h-1ZM91.8,337.5c2.7,0-.5,1.8-.8,2.7l.8-2.7ZM102.6,338.6v.5c-.3-.2-.3-.4,0-.5ZM88.3,357.7c-.5.5-1,2-1.8,1.7,4.5-6.9,9-14.1,15.1-19.6-.5,1.1-1.7,3-2.4,4-3.2,4.4-7.3,10-10.9,14h0ZM104,342.9c.7-.4,1.4.3,1.1.5-.7.4-1.4-.3-1.1-.5ZM76.4,383.3c.1-1.8,1.4-3.5,2.2-5,3-5.6,6.9-11.5,10.6-16.7,4.1-5.9,8.9-12,14-17l-26.8,38.8h0ZM86.2,360.2v.5c-.3-.2-.3-.4,0-.5Z"/>
  <path class="st12" d="M106.1,516.3c3.4-4.2,7.1-8,10.2-12.5,2.9-4.2,12.6-19.1,13.7-23.3,0-.3.2-.9-.2-.8l-4,3,3.6-8.5c-9.4-27.4-.5-55.5-3-83.5-.9-10.1-3.1-26.5-5.8-36.1-.2-.7,0-1.4-.8-1.8-8.5,12.1-18,23.7-26.2,36.1-8.5,12.7-16.8,28.3-22.5,42.5-3.9,9.8-4.3,12.4-5.1,22.9-1.1,14.6-2.1,29.3-3.2,43.9,2.3-1.4,3.9-5.9,5.8-7.3.7-.5,1.3-.5,1.1.5-1,1.3-7.4,9.6-7.4,10.2v8.3l9.1-14.7c1.4-1.2,2.3-4.2,4.1-4.4-3.2,5.1-6.8,10.1-9.6,15.5-5.7,11-5.5,20.6-6.3,32.9,0,.6-.3,2,.5,1.9,4.5-9.2,10-18.4,15.8-26.8,2.5-3.6,5.4-6.8,8.1-10.2.9-1.1,2-3.6,3.7-4.2-9.5,13.1-20.2,27-26.2,42.3-3.9,9.8-3.5,19.7-3.4,30.1l22.8-29.6c-.6.5-1.2,1-1.9,1.6-2.7,2.7-6,8.3-8.7,10.5-.4.3-1.1.5-1.1,0,7-11.3,16-21.4,24.7-31.5,6-6.9,12.1-14,18.3-20.7.4-.4,2.8-3.4,3.2-1.9-1-.1-1,.5-1.4,1-6.4,9.3-13.7,18.5-20.9,27,1,0,1.8-.8,2.4-1.6,2.7-3.4,3.9-5.6,7.6-8.1.1,0,.6,0,.9-.2.3-.2,0-.8.2-.9.1-.7.3-1.9,1.1-2.2.4-.1,1.1,0,1.1.5h0ZM110.7,397.1l1.2-1.1c-8.3,12.7-15.9,26-24.7,38.5-2.4,3.4-5.2,7.3-7.8,10.3-.5.5,0,1.4-1.4,1l3.5-6.4c9.1-14.5,18.9-28.6,29.2-42.3ZM110.7,425.1c.4-.4.4-1.1,1-1.4,0,.5-.7,2.6-.8,2.7-.3.3-1.3.2-1.1-.8.1-.5.6-.2.9-.5h0ZM108.8,426.9c1.7-.2,1,.7.4,1.8-3.8,6.6-13.3,19.9-18.4,25.5-.5.6-.6,1.5-1.7,1.2,0,0,19.6-28.5,19.6-28.5ZM93.1,433.9v.5c-.3-.2-.3-.4,0-.5ZM88.9,440.2c1.2-1.7,2.1-3.7,3.7-5.2l-3.5,6.5c-2.8-.3-.3-1.1-.2-1.3h0ZM87.8,442v.5c-.3-.2-.3-.4,0-.5ZM76.8,446.8c0-.4.3-.7.7-.7s.7.3.7.7-.3.7-.7.7-.7-.3-.7-.7ZM101.6,452.2v.5c-.3-.2-.3-.4,0-.5ZM99.8,454s1.3-.6,1.5-.4c-.6,1-.8,1.3-1.9,1.9-.2-.2.3-1.4.4-1.5ZM98.1,456c.8-.8,2.1.9-.3,1.6,0-.3.2-1.5.3-1.6ZM87.5,457.6c-.5-.6,1-2.2,1.6-1.6s-1,2.2-1.6,1.6ZM95.3,460.6c.4-.5,1.8-4.2,2.3-1.7l-12.7,15.9,1.6-2.8c3.1-3.7,5.8-7.6,8.8-11.4h0ZM123.3,479.7v.5c-.3-.2-.3-.4,0-.5ZM91.8,517.4c-5,6.7-9.9,13.4-14.8,20.2l-1.1-.5c3.7-4.7,6.9-9.9,10.4-14.8,5.1-7,10.6-13.9,16.1-20.5,2.6-3.1,4.1-4.8,6.9-7.5,3.4-3.4,6.6-7.4,10.1-10.5,1-.9,2.5-2.1,3.7-2.7-9.8,11-19.4,22.1-28.1,33.9l-3.2,2.4h0ZM125.7,485.1c-.4-.8.3-1.4.5-1.1.4.8-.3,1.4-.5,1.1ZM121.5,489.4c-.6.7-1.1,1.6-1.9,2.1l-.2-.2,2.1-1.9c.3-.4.3-.8,1.2-1.7.4-.5,1.8-1.7,2.5-1.8l-3.7,3.5ZM69.4,489.4c0-.4.3-.7.7-.7s.7.3.7.7-.3.7-.7.7-.7-.3-.7-.7ZM75.6,489.4v.5c-.3-.2-.3-.4,0-.5ZM101.9,510.9c-.4-.4,2.7-4,3.2-4.6,3.2-3.7,7.8-9.1,11.4-12.1.6-.5.9-1.3,1.9-1.1.2,1-.6,1.3-1.1,1.9-3.2,3.9-6.9,7.9-10.3,11.6-.6.6-4.4,4.9-5,4.3h0ZM98.4,498.5c.5.4-.3.7-.5,1.1-.5-.4.2-.7.5-1.1ZM97.3,500.1l.2.2-1.3,1.3-.2-.2,1.3-1.3ZM94.4,502.8c0,0,1.3-.4,1.6-.3-.7,2.4-2.3,1-1.6.3ZM93,505.1c0,0,1.3-.6,1.5-.4-1.2,1.7-2.8,3.4-3.7,5.3l-2.7,2.6,1.6-2.8c1.5-.8,2.4-3.7,3.3-4.6h0ZM101.6,511.5c0,1.4-1.2,2-2.1,2.7,0-1.4,1.2-2,2.1-2.7ZM86.6,513.7c0,0,1.2-.7,1.4-.4l-2.1,2.4c0-.7.2-1.5.7-2h0ZM98.4,514.7v.5c-.3-.2-.3-.4,0-.5ZM97.9,515.8v.5c-.3-.2-.3-.4,0-.5ZM74.7,538.9c0-.4.3-.7.7-.7s.7.3.7.7-.3.7-.7.7-.7-.3-.7-.7ZM68.7,555.6l.2.2-1.3,1.3-.2-.2,1.3-1.3Z"/>
  <path class="st3" d="M32.9,49c0,.2.6.9.5,1.3,0,.6-1,.3-1.1.3,0,0,0,1.5-.2,2.1-2.5,6.3-4.7,12.8-7.7,18.9.9,1.8,8.5,13.9,7.9,14.5-.8.9-1.2-.7-1.4-1-2.7-3.8-4.7-6.7-7.7-10.3-1.7,4.9-3.6,8.4-1.1,13.5l-2.1-.5c-.4.6-.7,10.3-.5,11.6.3,1.8,2.6,3.2,2.6,5.1-.9,1-3.1-3.8-4.2-3.8-.8,12.7-1.8,25.2-3.3,37.8-.2,1.9-1.2,4.3-1.4,5.8,0,.2.1.7,0,1.6,0,.7,0,1.5,0,2.1l35,49c0-19.3-.8-38.5-.5-57.9,0-.9-.3-2.4.5-2.9-.3-4.4-.9-8.8-1.1-13.2,0-2.2-.3-5.3.6-7.3,0-.3,0-.7,0-1.1-1.7.5-1-2.7-1.1-4.3-.3-14.2-1.5-28.3-1.1-42.5.2-6.9.6-15,1.7-21.7.5-3,1.3-6.8,2.2-9.6.2-.6.1-1.6.9-1.5-1,7.8-2.6,15.6-3.2,23.4-.5,7.1-.5,14.2,0,21.3,0,1.4.4,2.6.5,3.8.3,3.6.7,7.2,1.1,10.8,1.5,14.2,3.4,28.3,4.8,42.5.8,8.4,1.4,16.9,2.1,25.3.9,2.7,1.1,6,1.1,8.9l1.1.3,20.2-37.7c-3.2,14.8-13.1,26.3-19.1,39.8l-1.6-.5,3.7,40.4,6.6-14.5c3.6-6.3,7.8-12.4,12.7-17.8.9-1,2-2.5,3.5-2.7,0-.2.5-.4.5-.5,0-.2,0-.8,0-1.1.3,0,.5.6.5.6.3,0,3.4-3.8,4.2-4.6,2.5-2.3,5.3-4.5,8-6.7-4.5-34.6-18.6-58.6-30.1-90.3-7.9-22-13-44.9-11.8-68.5l-1.1.8.5-3.5c-1.8,2.8-4.8,5.6-6.8,8.4-6.1,8.7-12.8,25.8-14.9,36.2h0ZM44.6,63.5c-1.7-14.4-1.2-29.7,2.8-43.7.2-.6.1-1.6.9-1.5-1.1,8.1-2.8,16.2-3.2,24.5-.3,6.3.3,12.6,0,18.9,0,.7.4,2-.5,1.9ZM34,51.7c.7-.4,1.4.3,1.1.5-.7.4-1.4-.3-1.1-.5ZM49.4,85.1c2.3-9.2,3.5-18.7,5.6-28,.1-.6,0-1.7.8-1.6-.7,9.8-2.1,19.1-5.2,28.3-.3.8.5,1.5-1.1,1.3h0ZM32.4,86.7c1.6-.4,1.4,1.8,2.1,2.7-1.6.4-.7-.7-1.2-1.4-.2-.3-1.4,0-.9-1.2h0ZM23.4,98l18.6,35.5c-1.4.3-.9-.4-1.3-1.1-4.2-7.3-9.4-16.4-13.1-23.9-1.6-3.2-3-7.2-4.2-10.6h0ZM61,111.4c0-1.4.9-2.8,1.5-4.1s1.8-3.4,2.7-4.5l-4.2,8.6ZM22.6,105v.5c-.3-.2-.3-.4,0-.5ZM67.4,108.7l2.1-3.2c-.4.8-.7,3.6-2.1,3.2ZM66.3,109.3c.3-.3,1.3-.3,1,.8s-2.2,4-2.9,5.2c-.2.3-.5,2.1-1.3,1.1-.2-.3,2.9-6.7,3.2-7ZM62.9,116.8v.5c-.3-.2-.3-.4,0-.5ZM62.3,117.9v.5c-.3-.2-.3-.4,0-.5ZM61.6,120.1c-.4-.8.3-1.4.5-1.1.4.8-.3,1.4-.5,1.1ZM22.8,127.1c3.6,5.9,7.9,11.6,9.8,18.3-3.1-4.6-6.1-9.5-8.7-14.4-.3-.5-2.2-3.7-1.2-3.9h0ZM41.9,135.1c-.4-.8.3-1.4.5-1.1.4.8-.3,1.4-.5,1.1ZM23.6,138.4c.8,1,2,2.4,2.1,3.8-.8-1-2-2.4-2.1-3.8ZM70.8,140v.5c-.3-.2-.3-.4,0-.5ZM70.6,141.1c.2.8-.2,1.1-.8,1.6-.2-.5.5-2.1.8-1.6ZM40.3,166.4l-13.8-23.7,14.6,22.6c.7.8-.2,1.7-.8,1.1ZM68.4,145.4c-.1-.7.8-2.8,1-2.1.1.7-.8,2.8-1,2.1ZM67.6,145.5l.9.4-1.3,3-.9-.4,1.3-3ZM33.2,145.9v.5c-.3-.2-.3-.4,0-.5ZM33.7,147v.5c-.3-.2-.3-.4,0-.5ZM34.5,149.7l-.3-1.6c.8.6,1.3,1.7.3,1.6ZM64.2,153.4c0-1.4.9-3.5,2.1-4.3-.3,1.4-.7,3.6-2.1,4.3ZM77.2,158.8v.5c-.3-.2-.3-.4,0-.5ZM75.7,160.4c0-.4.3-.7.7-.7s.7.3.7.7-.3.7-.7.7-.7-.3-.7-.7ZM74.8,161.5c1.1-1.2,1.5,1.3-.3,2.1,0-.5.2-2.1.3-2.1ZM73.1,164.7c0-.4.3-.7.7-.7s.7.3.7.7-.3.7-.7.7-.7-.3-.7-.7ZM72.9,165.8v.5c-.3-.2-.3-.4,0-.5ZM41.9,168.5l-.3-1.6c.8.6,1.3,1.7.3,1.6Z"/>
  <path class="st5" d="M83.8,178.2c-1.4.2-2.5,1.7-3.5,2.7-4.9,5.4-9.1,11.4-12.7,17.8l-6.6,14.5-3.7-40.4,1.6.5c6-13.5,15.9-25.1,19.1-39.8l-20.2,37.7-1.1-.3c0-2.9-.2-6.1-1.1-8.9,11.4,138,12.5,273.5-1.6,411.3-.1,1.1-.5,2.3-.5,2.7,0,.7,0,1.5,0,2.2-.1,1-.5,1.5-.5,1.6,0,.7,0,1.5,0,2.2,0,1-.5,2-.5,2.2,0,.5,0,1.1,0,1.6-.1,1,.1,2.2,0,3.2,0,.3,0,.7,0,1.1,0,.7,0,1.5,0,2.2,2.1-1.7,3-4.3,4.8-6.5-1-.1.4-1.5.6-1.7,3.2-4,5.9-8.9,9.5-12.5,6.3-6.3,16-10.2,24.9-10,0-.8-1.9-.8-2.5-.9-1.8-.3-3.6-.5-5.4-.7-.2,0-.4,0-.5,0-1.9.8-4.1.9-6.1,1.6-2.1.7-4,1.9-6.1,2.7-.7-.7,6.2-8.4,7.1-9.2.8-.6,1.2-1.3,2.4-1.1,1-1.2,1.7-2,2.7-3.2,1.2-1.5,1.4-.7,2.1-1.1.2-.1.4-.4.5-.5,0-1.2.8-1.4,1.5-2,3.9-3.2,9-6,13.9-7.2.1-1-1.1-.4-1.6-.3-6.4,1.2-15,7.2-19.9,11.6-4,3.6-7.3,8.6-11.1,11.9-.6.5-.9,1.3-1.8,1.1-.6-.6,5.6-8.4,6.4-9.4,2.2-2.7,4.3-5.1,6.9-7.3,0-1.1.7-1.5,1.3-2.2,6.1-6.8,14.4-15.7,19.4-23.1.7-1,1.5-1.9,1.6-3.2-3.8,2.5-4.9,4.7-7.6,8.1-.6.8-1.4,1.5-2.4,1.6-.4.4-1.1,1-1.6,1.6.4,2.3-1.4,2.1-2.1,2.7-.5.4-.8.8-1.1,1.1.3,2-1.6,2.7-2.7,3.8-.5.5-1.5,1-1.6,1.1-.1.2,0,.9-1.1,2.2-1.1,1.4-1.6,1.2-2.1,1.6l-22.8,29.6c0-10.5-.4-20.3,3.4-30.1,6-15.2,16.8-29.1,26.2-42.3-1.7.6-2.8,3-3.7,4.2-2.7,3.4-5.6,6.7-8.1,10.2-5.8,8.4-11.3,17.6-15.8,26.8-.9.2-.6-1.3-.5-1.9.8-12.3.6-21.9,6.3-32.9,2.8-5.4,6.4-10.4,9.6-15.5-1.8.2-2.7,3.2-4.1,4.4l-9.1,14.7v-8.3c0-.6,6.5-8.9,7.4-10.2.2-1-.4-1-1.1-.5-1.9,1.4-3.5,5.9-5.8,7.3,1.1-14.6,2.1-29.3,3.2-43.9.8-10.4,1.1-13.1,5.1-22.9,5.7-14.3,14-29.8,22.5-42.5l13.3-23.1c-11.1,15.8-21.2,32.1-30,49.5l-10.3,20.5c0-4.4-.1-8.8,0-13.2.3-13.1.6-26.2.6-39.3,0-12-2-28.1-.6-39.8.6-4.8,5.6-11.5,7.4-16.1-.8-1.1-.9,0-1.2.4-2.4,3-3.6,7.8-6.2,10.6.2-1.6-.6-3.1-.6-4.6,0-3.5,5.2-8.3,6.4-11.9-2.8,1.6-3.7,5.3-6.3,7.3-.2-7.8.2-15.6,0-23.4s-.6-16.2-1.1-24.2c6.4-12.4,14.2-24,21.2-36.1-.8-1.1-.9,0-1.2.4-3.7,4.7-6.7,10-10.3,14.8l-9.6,16.3c-.5-11-.5-22.1-1-33.1-.3-6.7-2.3-16.9-1.6-23.1.5-4.9,7.2-19.7,9.8-24.5,3.4-6.4,8.7-11.8,11.9-17.8h0ZM70.8,564.2v.5c-.3-.2-.3-.4,0-.5ZM65.8,565.3c2.7,0-.5,1.8-.8,2.7l.8-2.7Z"/>
  <path class="st1" d="M119.9,558.3c-2.3,2-4.9,3.4-7.4,5.1,7.9,1.4,14.9-7.4,13.7-15-2-12.5-22.2-13.3-30.9-7.9l-.3-.8c9.3-8.9,18.5-17.9,26.5-28l8.5-11.6-24.6,24.8c-8.4,7.3-16.1,15.5-24.7,22.6-2.6,2.2-4.7,4.5-6.9,7.3-.8,1-7,8.8-6.4,9.4,1,.2,1.3-.6,1.8-1.1,3.8-3.2,7.2-8.3,11.1-11.9,4.9-4.4,13.5-10.4,19.9-11.6.5,0,1.7-.7,1.6.3-4.9,1.2-10,4-13.9,7.2-.7.6-1.6.8-1.5,2,2.2-1.2,5.2-3.1,7.5-4,.5-.2,1.6-.8,1.5.2-.9,0-1.4.3-2.2.8-5.7,4.1-11.4,8.6-16.2,13.8.4-2.4,2.5-4.1,4-5.9-1.2-.2-1.6.4-2.4,1.1-1,.8-7.8,8.5-7.1,9.2,2-.8,4-2,6.1-2.7,2.1-.7,4.2-.8,6.1-1.6-.5,0-1.1,0-1.6,0s-1.5.2-.8-.5c7.7-7.7,23.3-23.8,34.9-17.1,5.5,3.1,10.3,9.8,4.8,15.5-.5.5-1.1.4-1.3.6h0Z"/>
  <path class="st1" d="M84.4,559.9c1.8.2,3.6.4,5.4.7.7.1,2.6,0,2.5.9-8.9-.1-18.5,3.7-24.9,10-3.6,3.6-6.4,8.5-9.6,12.5-.2.3-1.5,1.6-.6,1.7.2-.2.4-.4.5-.5,1.8-2,3.2-3.4,6.2-3.7,5.3-.7,13.4,4.7,8.9,10.2-.9,1.1-1.3.7-1.8,1.1-.3.8.5,1.4-1.6,1.1-1.5.9-4.5-.5-5.8-1.6,1.5,5.8,8.7,4.2,11.9.5,6.3-7.5-1-15.1-8.7-16.7,0-.1.8-1.3,1.1-1.6l.5-.5c.2-.2.4-.3.5-.5,3-3.7,6.8-7.1,11.6-8.4,7.3-1.9,18.9.7,17.5,10.5.9,0,1-1.8,1.1-2.4.2-2,0-4.2-.3-6.2,2.6,2.5,1.9,6.1.8,9.1,3.9-4.9.8-12-4.4-14.6-3.9-2-7-1.6-11-1.5h0Z"/>
  <path class="st7" d="M54.7,4.3c.4-.7,2.4-3.8,1.1-4.3-1.1,2.3-3.4,4-5,6-6.5,8.2-12.4,19-16.1,28.9-.8,2.1-3.5,9.8-3.6,11.4,0,1,1.3,2,1.9,2.7,2.2-10.5,8.9-27.5,14.9-36.2,2-2.9,5.1-5.7,6.8-8.4h0Z"/>
  <path class="st7" d="M119.9,558.3c.1-.1.8,0,1.3-.6,5.5-5.7.6-12.4-4.8-15.5-11.6-6.7-27.2,9.5-34.9,17.1-.7.8.3.5.8.5,1.5-1.7,3.3-3.4,5-4.8,8.2-6.9,19.9-18.7,30.7-9.7,4.6,3.8,5.1,7.9,1.9,12.9h0Z"/>
  <path class="st7" d="M24.4,71.6c3-6.1,5.2-12.5,7.7-18.8.3-.7.2-2,.2-2.1-.6-1.2-.7-1.4-1.5-.2-1.6,2.4-7.2,15.2-7.8,18,0,.4-.3.8-.1,1.2.2.8,1.2,1.4,1.5,2h0Z"/>
  <path class="st7" d="M57.8,585.2c4.2-2.4,8.6-4.7,12.5-.3,2.6,2.9,1.9,4.7.7,7.9-.5.3-1.3.9-1.6,1.1,2.1.3,1.3-.3,1.6-1.1.5-.3,1,0,1.8-1.1,4.5-5.4-3.6-10.8-8.9-10.2-2.9.4-4.3,1.8-6.2,3.7h0Z"/>
  <path class="st1" d="M105,515.8c.4,1.4-.7,1.6-1.1,2.2,0,0,.1.7-.2.9-.3.3-.8,0-.9.2-.1,1.3-.9,2.2-1.6,3.2,1.6-1.3,3-3,4.3-4.6.4-.5.4-1.2.5-1.3,0-.6-.6-.7-1.1-.5h0Z"/>
  <path class="st5" d="M99.7,576c1.1-3,1.8-6.7-.8-9.1.3,2,.4,4.1.3,6.2,0,.6-.2,2.4-1.1,2.4,1.4-9.8-10.2-12.4-17.5-10.5-4.8,1.2-8.6,4.6-11.6,8.4,5.5-5.2,12-8.7,19.8-7.4,5.2.9,11.6,8.1,6.2,12.8,2.2-.3-.6,1.4,1.6,1.1,1.6-1.3,2.4-1.7,3.2-3.8h0Z"/>
  <path class="st5" d="M67.9,574.4c.2-.2.4-.3.5-.5l-.5.5Z"/>
  <path class="st14" d="M76.4,383.3l26.8-38.8c-5.1,5-9.8,11.2-14,17-3.7,5.2-7.6,11.1-10.6,16.7-.8,1.5-2.1,3.3-2.2,5h0Z"/>
  <path class="st14" d="M79.6,298.8c.4.4,1.5-.6,1.9-1.1l14-17.8c-1-1-5.5,6-6.6,6.5-.7,1.3-9.9,11.8-9.3,12.4h0Z"/>
  <path class="st6" d="M84.4,204.6l-10,15.4-1.7,3.9c4.4-5.6,8.1-11.8,11.7-17.9.2-.4,2.7-1.2,0-1.5h0Z"/>
  <path class="st6" d="M88.3,357.7c3.6-4,7.7-9.6,10.9-14,.7-1,1.9-2.9,2.4-4-6.1,5.5-10.6,12.8-15.1,19.6.8.3,1.3-1.1,1.8-1.7h0Z"/>
  <path class="st6" d="M84.2,287.3c-.4.5-1.6,1.1-1.9,2.1l1.8-.9c2-2.9,4.7-5.5,6.4-8.6-.5.7-1.5,1-2.1,1.6-1.4,1.6-3,4-4.2,5.7h0Z"/>
  <path class="st5" d="M99,329.3c-.4.5-4.2,2.5-1.7,2.9,2.2-3,5.2-5.7,6.9-9.1-1,1.9-3,3-4.2,4.3-.5.5-.5,1.4-1,2h0Z"/>
  <path class="st6" d="M97.6,277.2c.1-.1,2.3-.6,1.9-2.1-1.5.4-1.5,1.7-1.9,2.1Z"/>
  <path class="st5" d="M99.9,324.3c.5-.6,1.9-1.2,1.6-2.4-2,.9-2.1,2.6-3.4,4,.8.3,1.3-1.2,1.8-1.7h0Z"/>
  <path class="st5" d="M94.3,335.2c-.3.4-1.1.5-1.4,1l1.1.5c0-1,3.1-3.6,2.6-4-.9-.9-2,2.1-2.3,2.5h0Z"/>
  <path class="st3" d="M104.5,318.7c.2-.1.7,0,1.3-.5.5-.4,1.8-2.5,2.2-3.2-.6,1.1-2.7,1.9-3.2,2.7-.3.4-.2.9-.3,1.1h0Z"/>
  <path class="st5" d="M83.3,215.9l-2.1,4.3c1,1.1,2-2.5,2.2-2.8s2.7-1.3,0-1.5Z"/>
  <polygon class="st5" points="78.5 224.5 80.4 222.7 80.9 220.7 78.5 224.5"/>
  <path class="st6" d="M102.9,338.1h1.1v-1.6c-.8.2-1.2.9-1,1.6h0Z"/>
  <ellipse class="st6" cx="78.5" cy="300.4" rx=".7" ry=".7"/>
  <path class="st6" d="M76.9,301.5c0,0-.4,1.3-.3,1.6,2.4-.7,1-2.4.3-1.6Z"/>
  <path class="st6" d="M84.4,199.2c0,0-.4,1.3-.3,1.6,2.4-.7,1-2.4.3-1.6Z"/>
  <path class="st5" d="M104.5,318.7c-.8.5-2.1.7-2.1,2.7,1.1-.3,1.8-2.2,2.1-2.7Z"/>
  <path class="st6" d="M82.8,201.4l-1.6,3.2c1.6.4,1-1,1.6-1.8.2-.3,2.9-1.1,0-1.4h0Z"/>
  <path class="st5" d="M91.8,337.5l-.8,2.7c.3-.9,3.5-2.7.8-2.7Z"/>
  <path class="st14" d="M104,342.9c-.4.2.3.9,1.1.5.4-.2-.3-.9-1.1-.5Z"/>
  <path class="st5" d="M84.4,177.7l.5-.5s-.2-.5-.5-.6c0,.3,0,.9,0,1.1Z"/>
  <path class="st6" d="M80.9,205.1c-.6.6-1.7,1.7-1.6,2.7.5-.7,1.6-1.8,1.6-2.7Z"/>
  <path class="st5" d="M74.8,324.6c-.2-.5-1,1.1-.8,1.6.6-.5,1-.8.8-1.6Z"/>
  <path class="st3" d="M108.7,314.4c.2.4.9-.3.5-1.1-.2-.4-.9.3-.5,1.1Z"/>
  <path class="st14" d="M97.6,277.2c-.5.6-1.9.9-1.6,2.1.3.6,1.2-1.7,1.6-2.1Z"/>
  <polygon class="st6" points="101.1 273 99.7 274.3 100 274.5 101.3 273.2 101.1 273"/>
  <path class="st6" d="M86.2,360.2c-.3.2-.3.4,0,.5v-.5Z"/>
  <path class="st6" d="M102.6,338.6c-.3.2-.3.4,0,.5v-.5Z"/>
  <path class="st6" d="M85.7,198.1c-.3.2-.3.4,0,.5v-.5Z"/>
  <path class="st6" d="M85.7,203.5c-.3.2-.3.4,0,.5v-.5Z"/>
  <path class="st5" d="M85.7,213.2c-.3.3-1.1.7-.5,1.1.3-.3,1.1-.7.5-1.1Z"/>
  <path class="st6" d="M76.1,303.6c-.3.2-.3.4,0,.5v-.5Z"/>
  <path class="st14" d="M79,299.9c.3.2.9-.5.3-.6-.2,0-.4.4-.3.6Z"/>
  <path class="st5" d="M84.6,214.8c-.3.2-.3.4,0,.5v-.5Z"/>
  <path class="st6" d="M82,290.2c-.3.3-1.1.7-.5,1.1.3-.3,1.1-.7.5-1.1Z"/>
  <polygon class="st6" points="92.6 277.3 90.7 279.1 91 279.4 92.8 277.5 92.6 277.3"/>
  <path class="st14" d="M92.8,528.7c7.2-8.5,14.5-17.7,20.9-27,.4-.5.3-1.2,1.4-1-.4-1.6-2.8,1.5-3.2,1.9-6.2,6.7-12.3,13.8-18.3,20.7-8.7,10.1-17.6,20.2-24.7,31.5,0,.5.7.3,1.1,0,2.7-2.2,6-7.8,8.7-10.5.6-.6,1.3-1.1,1.9-1.6.5-.5,1-.2,2.1-1.6,0-1,0-1.8,1.1-2.2,0,0,1.1-.6,1.6-1.1-.2-1.9,1.4-2.8,2.7-3.8.3-.2.6-.7,1.1-1.1,0-1.5,1.4-1.9,2.1-2.7.5-.6,1.2-1.2,1.6-1.6h0Z"/>
  <path class="st7" d="M110.7,397.1c-10.3,13.6-20.1,27.8-29.2,42.3l-3.5,6.4c1.4.4.9-.5,1.4-1,2.7-3.1,5.5-7,7.8-10.3,8.8-12.4,16.4-25.8,24.7-38.5,0,0-1.2,1.1-1.2,1.1Z"/>
  <path class="st14" d="M102.4,501.8c-5.6,6.6-11.1,13.5-16.1,20.5-3.5,4.9-6.6,10-10.4,14.8l1.1.5c4.9-6.8,9.8-13.5,14.8-20.2,3.7-5,7.5-10,11.1-15.1l-.5-.5h0Z"/>
  <path class="st5" d="M109.3,494.2l-6.4,8.1c-3.6,5.1-7.4,10.1-11.1,15.1l3.2-2.4c8.7-11.8,18.3-23,28.1-33.9-1.2.6-2.7,1.8-3.7,2.7-3.4,3.1-6.6,7.1-10.1,10.5h0Z"/>
  <path class="st6" d="M108.8,426.9l-19.6,28.5c1.1.3,1.2-.6,1.7-1.2,5-5.6,14.6-18.9,18.4-25.5.6-1.1,1.3-2-.4-1.8Z"/>
  <path class="st5" d="M101.9,510.9c.6.6,4.4-3.7,5-4.3,3.5-3.7,7.1-7.7,10.3-11.6.5-.6,1.3-.9,1.1-1.9-1-.2-1.3.6-1.9,1.1-3.6,3.1-8.2,8.4-11.4,12.1-.5.5-3.6,4.2-3.2,4.6h0Z"/>
  <path class="st6" d="M102.4,501.8l.5.5,6.4-8.1c-2.8,2.7-4.3,4.4-6.9,7.5h0Z"/>
  <path class="st6" d="M95.3,460.6c-3,3.7-5.7,7.7-8.8,11.4l-1.6,2.8,12.7-15.9c-.5-2.5-1.9,1.2-2.3,1.7h0Z"/>
  <path class="st5" d="M101.6,511.5c-.9.7-2.2,1.2-2.1,2.7.9-.7,2.2-1.2,2.1-2.7Z"/>
  <path class="st3" d="M121.5,489.4l3.7-3.5c-.7,0-2.1,1.3-2.5,1.8-.9.9-.9,1.4-1.2,1.7Z"/>
  <path class="st6" d="M87.5,457.6c.5.5,2.1-1,1.6-1.6s-2.1,1-1.6,1.6Z"/>
  <path class="st5" d="M104,517.9c.4-.5,1.5-.8,1.1-2.2-.8.2-.9,1.5-1.1,2.2Z"/>
  <path class="st3" d="M88.9,440.2c0,.1-2.6,1,.2,1.3l3.5-6.5c-1.5,1.5-2.4,3.5-3.7,5.2h0Z"/>
  <ellipse class="st7" cx="77.4" cy="446.8" rx=".7" ry=".7"/>
  <path class="st6" d="M98.1,456c0,0-.4,1.3-.3,1.6,2.4-.7,1-2.4.3-1.6Z"/>
  <ellipse class="st5" cx="70" cy="489.4" rx=".7" ry=".7"/>
  <path class="st6" d="M94.4,502.8c-.8.8.9,2.2,1.6-.3-.3,0-1.5.2-1.6.3Z"/>
  <path class="st6" d="M93,505.1c-.9.9-1.8,3.8-3.3,4.6l-1.6,2.8,2.7-2.5c.8-1.9,2.5-3.5,3.7-5.3-.2-.2-1.4.3-1.5.4h0Z"/>
  <path class="st6" d="M86.6,513.7c-.5.5-.6,1.4-.7,2l2.1-2.4c-.2-.3-1.4.3-1.4.4h0Z"/>
  <ellipse class="st14" cx="75.3" cy="538.9" rx=".7" ry=".7"/>
  <path class="st6" d="M99.8,454s-.6,1.3-.4,1.5c1-.6,1.3-.9,1.9-1.9-.2-.2-1.4.3-1.5.4Z"/>
  <path class="st6" d="M110.7,425.1c-.3.3-.7,0-.9.5-.3,1,.8,1.1,1.1.8.1-.1.8-2.2.8-2.7-.5.3-.6,1-1,1.4h0Z"/>
  <path class="st3" d="M125.7,485.1c.2.4.9-.3.5-1.1-.2-.4-.9.3-.5,1.1Z"/>
  <path class="st3" d="M93.1,433.9c-.3.2-.3.4,0,.5v-.5Z"/>
  <path class="st3" d="M87.8,442c-.3.2-.3.4,0,.5v-.5Z"/>
  <path class="st6" d="M101.6,452.2c-.3.2-.3.4,0,.5v-.5Z"/>
  <path class="st5" d="M123.3,479.7c-.3.2-.3.4,0,.5v-.5Z"/>
  <path class="st5" d="M121.5,489.4l-2.1,1.9.2.2c.8-.6,1.3-1.4,1.9-2.1Z"/>
  <path class="st5" d="M75.6,489.4c-.3.2-.3.4,0,.5v-.5Z"/>
  <path class="st6" d="M98.4,498.5c-.3.3-1.1.7-.5,1.1.3-.3,1.1-.7.5-1.1Z"/>
  <polygon class="st6" points="97.3 500.1 96 501.5 96.3 501.7 97.6 500.4 97.3 500.1"/>
  <path class="st5" d="M98.4,514.7c-.3.2-.3.4,0,.5v-.5Z"/>
  <path class="st5" d="M97.9,515.8c-.3.2-.3.4,0,.5v-.5Z"/>
  <polygon class="st14" points="68.7 555.6 67.4 556.9 67.6 557.2 69 555.8 68.7 555.6"/>
  <path class="st0" d="M44.6,63.5c.9.1.5-1.2.5-1.9.3-6.3-.3-12.6,0-18.9.4-8.2,2.1-16.4,3.2-24.5-.8-.1-.7,1-.9,1.5-4,14-4.5,29.3-2.8,43.7Z"/>
  <path class="st2" d="M45.6,67.8c1.1,3,.4,6.8.5,10,0,1-.4,2,1.1,1.8-.5-7.1-.5-14.2,0-21.3.6-7.8,2.2-15.6,3.2-23.4-.8-.1-.7.9-.9,1.5-.9,2.8-1.7,6.7-2.2,9.6-1.1,6.8-1.4,14.8-1.7,21.7h0Z"/>
  <path class="st7" d="M49.4,85.1c1.6.3.8-.4,1.1-1.3,3.1-9.3,4.5-18.6,5.2-28.3-.8-.1-.7,1-.8,1.6-2.1,9.3-3.2,18.8-5.6,28h0Z"/>
  <path class="st2" d="M66.3,109.3c-.3.3-3.4,6.7-3.2,7,.8,1,1.1-.8,1.3-1.1.7-1.2,2.6-4.1,2.9-5.2s-.7-1-1-.8Z"/>
  <path class="st7" d="M64.2,153.4c1.4-.7,1.8-2.9,2.1-4.3-1.2.8-2.2,2.9-2.1,4.3Z"/>
  <polygon class="st7" points="67.6 145.5 66.2 148.5 67.1 148.9 68.4 145.9 67.6 145.5"/>
  <path class="st2" d="M61,111.4l4.2-8.6c-1,1.1-2.1,3.2-2.7,4.5s-1.4,2.7-1.5,4.1Z"/>
  <path class="st6" d="M74.8,161.5c0,0-.2,1.7-.3,2.1,1.8-.8,1.3-3.3.3-2.1Z"/>
  <path class="st2" d="M67.4,108.7c1.4.3,1.7-2.4,2.1-3.2l-2.1,3.2Z"/>
  <ellipse class="st6" cx="76.4" cy="160.4" rx=".7" ry=".7"/>
  <ellipse class="st6" cx="73.7" cy="164.7" rx=".7" ry=".7"/>
  <path class="st7" d="M70.6,141.1c-.2-.5-1,1.1-.8,1.6.6-.5,1-.8.8-1.6Z"/>
  <path class="st7" d="M68.4,145.4c.3.6,1.2-1.5,1-2.1-.3-.6-1.2,1.5-1,2.1Z"/>
  <path class="st2" d="M61.6,120.1c.2.4.9-.3.5-1.1-.2-.4-.9.3-.5,1.1Z"/>
  <path class="st2" d="M62.9,116.8c-.3.2-.3.4,0,.5v-.5Z"/>
  <path class="st2" d="M62.3,117.9c-.3.2-.3.4,0,.5v-.5Z"/>
  <path class="st7" d="M70.8,140c-.3.2-.3.4,0,.5v-.5Z"/>
  <path class="st6" d="M77.2,158.8c-.3.2-.3.4,0,.5v-.5Z"/>
  <path class="st6" d="M72.9,165.8c-.3.2-.3.4,0,.5v-.5Z"/>
  <path class="st14" d="M86.5,549.1c-.2,0-.3.4-.5.5-.3,1-1.2,1.2-2.1,1.1-1,1.2-1.6,2-2.7,3.2-1.5,1.8-3.6,3.5-4,5.9,4.7-5.2,10.5-9.6,16.2-13.8.7-.5,1.2-.9,2.2-.8,0-1.1-1-.4-1.5-.2-2.2.9-5.2,2.8-7.5,4h0Z"/>
  <path class="st12" d="M85.4,537.8c1-1.1,3-1.7,2.7-3.8-1.2,1-2.9,1.9-2.7,3.8Z"/>
  <path class="st12" d="M89.1,533c.7-.6,2.5-.4,2.1-2.7-.7.8-2.2,1.2-2.1,2.7Z"/>
  <path class="st1" d="M83.8,550.8c1,0,1.8,0,2.1-1.1-.7.4-.9-.5-2.1,1.1Z"/>
  <path class="st12" d="M82.8,541c1-1.2.9-2,1.1-2.2-1,.3-1.2,1.2-1.1,2.2Z"/>
  <path class="st1" d="M65.8,565.3l-.8,2.7c.3-.9,3.5-2.7.8-2.7Z"/>
  <path class="st1" d="M70.8,564.2c-.3.2-.3.4,0,.5v-.5Z"/>
  <path class="st12" d="M11.2,172.3c.8,1.1,1.8,1.8,0,1.6.2.3,2,1.2,1.1,2.1-.7.7-2.1-2.1-3.2-1.6-.1,3.8-.2,7.8-.5,11.6-.8,9.4-2.9,19.6-.5,28.8l-1.1-.6c-1,4.8,3.2,7.8,4.8,11.9-.9,1-4-5.4-5.3-5.4l-1.6,55.2-1.1,4c2,3.2,5,6.4,7.2,9.6,1.7,2.5,6.9,10.3,7.6,12.7.3,1-.4,1.1-1.1.5-2.8-4.6-5.4-9.6-9-13.7-1.1-1.3-2-2.7-3.7-3.2-.7,9.8-1.3,19.5-1,29.3l3.1,4.9-2.4-1.4c-.6,3.1.7,6.7.8,9.9.6,12.2,1.1,24.5,1.6,36.6.7,15.5-1.6,30.4-1.7,45.2,0,1.9,1,4.1.6,6.2,2.6,3,5,6.2,7.9,8.9.1,1.7-1.1.4-1.6.3-1.7-.5-6.1-3.5-6.8-1.3-.2,7,.7,13.9.4,20.9-.2,4.1-.7,8.8-1.1,12.9-.5,5.2-1.5,10.4-2.2,15.6,5.5,2.9,9.8,6.5,13.3,11.6.2.3,2.8,3.5.8,2.7-1.1-.4-3.6-2.6-5.1-3.4-3-1.5-6.1-2.7-9.5-2.5l7.4,4.3c2.5,1.3,4.7,3.1,6.9,4.9.8-1.5,1.4-.1,2,.4,2.8,2.3,6.9,6.7,9.2,9.6,1.1,1.5,5.4,7.8,5.8,9.2.3,1-.7,1.1-1,.8-.1-.1-.3-1.8-.7-2.5-2.4-3.6-5.6-7-8.3-10.4,1.7,5,5.9,9.2,6.9,14.5,3.6,5,6.7,10.5,9.7,15.7.3.5.9,1.2.1,1.6-7-10.8-15.2-25.5-30-24.2-.2-1.5.3-.9,1.2-1.1,5.6-1.5,9.6.4,14.2,3.3-4.4-5.4-10.5-6.1-16.6-3.2-.6.3-.3,1-.4,1,.4-.4,1.6.3,1.1.5-.6.3-1.3-.3-1.1-.5-.6.3-1.6.2-2.8,1.1-4.5,3.6-7.5,11.3-3.6,16.4,3.4,4.4,11.4,3.7,9-3-1.1.3-.7,2-1.6,3-2.1,2.3-5.6-2.6-6.3-4.6-1.3-3.6,1.3-7.5,4.5-9.2,9.4-5.2,17.8,4.2,23.4,10.8,4.9,5.8,11.3,15.7,13,23.2,1.9.5.9-3.1,1.1-4.8-1.8-15.3-8.4-29.1-15.9-42.3.7.3,2,1.6,2.5,2.2,2.3,2.7,4.9,6.2,6.9,9.2.8,1.1,3,5.9,3.3,6.1,1.9,1.3,3.3-4.1,3.6-5.2,2.3-11.2.5-25.4.6-37,.2-16.8.7-33.8,1.1-50.6.3-10-2.6-13.4-7.3-21.6-3.2-5.5-6.6-11.1-10.2-16.3-1.3-1.9-3.4-3.5-4-5.9,1.5,1.8,3.1,3.6,4.5,5.4,3.4,4.2,6.5,8.6,9.8,13l7.2,11.8c0-2.2.2-4.1-.4-6.3-1.5-5.1-7.7-12.1-10.2-17.1l4.2,4.3,6.4,9.4.5-70.2c-5.2-13.1-14.8-23.4-22.2-35l2.1,1.6,20.1,26.6c.2-5.3-.5-10.6.6-15.9-1.7-20.5,2.2-44.5,0-64.6-.5-4.7-4.6-10.4-5.8-15.1l2.2,3.1,3.1,6.8.5-5.1c-4.2-10.7-9.9-20.6-15.3-30.7.9.3,2.3,2.3,2.8,3.1,2.2,3.5,4,7.4,6.3,10.8l6.3,12.2c0-9.5,0-19,0-28.5l-35-49c-.2,1.8-.3,3.7-.5,5.6-.7,6.2-1.9,12.3-1.6,18.6h0ZM17,193.8l.3,1.6c-.8-.6-1.3-1.7-.3-1.6ZM17.5,196c.8-1,1.1.8,1.3,1.1,7.3,11.4,15.6,21.9,19.9,35-.9-.7-1.8-2.2-2.4-3.2-2.6-4-5.1-8.2-7.5-12.3-1.2-2-12-19.7-11.2-20.6h0ZM32.6,198.1v.5c-.3-.2-.3-.4,0-.5ZM8.3,215.3v.5c-.3-.2-.3-.4,0-.5ZM39,217.5v.5c-.3-.2-.3-.4,0-.5ZM39.5,218.6v.5c-.3-.2-.3-.4,0-.5ZM40.1,219.6v.5c-.3-.2-.3-.4,0-.5ZM40.6,220.7v.5c-.3-.2-.3-.4,0-.5ZM41.1,221.8v.5c-.3-.2-.3-.4,0-.5ZM41.7,222.9v.5c-.3-.2-.3-.4,0-.5ZM18.9,223.4v.5c-.3-.2-.3-.4,0-.5ZM42.2,224v.5c-.3-.2-.3-.4,0-.5ZM19,225c0-.4.3-.7.7-.7s.7.3.7.7-.3.7-.7.7-.7-.3-.7-.7ZM22.8,229.3c6.3,9.5,12.1,19.2,17,29.6.3.7,2.6,3.7,2.1,4.3-.8,1-2.4-3.3-2.7-3.8-5.6-9.9-11.3-19.7-17-29.6-.4-.6-2.7-3.1-2.1-3.8.8-1,2.4,2.8,2.7,3.2h0ZM12,226.6v.5c-.3-.2-.3-.4,0-.5ZM28.9,228.3v.5c-.3-.2-.3-.4,0-.5ZM29.2,229.3c.9-.9,1.4,1.2,1.3,2.1-.5-.4-1.8-1.6-1.3-2.1ZM30.7,232.6c0-.4.3-.7.7-.7s.7.3.7.7-.3.7-.7.7-.7-.3-.7-.7ZM32.1,233.6v.5c-.3-.2-.3-.4,0-.5ZM32.2,235.2c0-.4.3-.7.7-.7s.7.3.7.7-.3.7-.7.7-.7-.3-.7-.7ZM33.7,236.3v.5c-.3-.2-.3-.4,0-.5ZM34.8,237.1l1,2.4-1,.4-1-2.4,1-.4ZM35.8,240.1v.5c-.3-.2-.3-.4,0-.5ZM36.1,241.2h1.1v1.6c-.8-.2-1.2-.9-1.1-1.6h0ZM42.2,263.8v.5c-.3-.2-.3-.4,0-.5ZM42.7,264.9v.5c-.3-.2-.3-.4,0-.5ZM43.3,266v.5c-.3-.2-.3-.4,0-.5ZM18.3,274v.5c-.3-.2-.3-.4,0-.5ZM18.5,275.6c0-.4.3-.7.7-.7s.7.3.7.7-.3.7-.7.7-.7-.3-.7-.7ZM19.5,277.2c0-.4.3-.7.7-.7s.7.3.7.7-.3.7-.7.7-.7-.3-.7-.7ZM20.7,278.3l16.4,22.6-3.1-3c-3.8-5.4-8.1-10.6-11.7-16.2-.6-1-1.5-2.3-1.7-3.4h0ZM20.4,284.2v.5c-.3-.2-.3-.4,0-.5ZM22.3,288.6l-1.3-3.2c.4,1,4.1,3.3,1.3,3.2ZM23.2,289.6c0-.4.3-.7.7-.7s.7.3.7.7-.3.7-.7.7-.7-.3-.7-.7ZM25.2,291.2v.5c-.3-.2-.3-.4,0-.5ZM18.6,303.6c1-1.1,1.8,2.2,1.6,2.7-.9.2-.3-.9-.7-1.5,0-.1-1.8-.3-.9-1.2h0ZM10.6,306.9l1.3,3.2c-.3-.5-2.8-2.9-1.3-3.2ZM21.2,307.4c.7-.4,1.4.3,1.1.5-.7.4-1.4-.3-1.1-.5ZM12.2,310.6l13.8,18.8c-1,.2-1.3-.5-1.8-1.1-2.2-2.4-4.1-6.1-6.4-8.6,0,0-5.6-9.1-5.6-9.1ZM7.2,320.9v.5c-.3-.2-.3-.4,0-.5ZM26.6,331.6c0,0-.4-1.3-.3-1.6,2.4.7,1,2.4.3,1.6ZM14.9,361.2c-1,.2-1.4-.7-2.1-1.4.6-.1,2.6,1.1,2.1,1.4ZM17,363.4c-1,.2-1.4-.7-2.1-1.4.6-.1,2.6,1.1,2.1,1.4ZM22.8,363.9c-.4-.8.3-1.4.5-1.1.4.8-.3,1.4-.5,1.1ZM30.6,380.3c-3.6-4.5-7.7-8.9-11.4-13.4-.6-.7-1.6-2-1.9-2.9,1.2,1.3,2.8,2.1,4,3.5,3.9,4.1,8.3,10.6,11.6,15.5.3.5,1,.3,1.1.4.6.7-.5,1.6-1,1.1-.1-.1-.1-1.3-.5-1.8-.6-.8-1.2-1.6-1.8-2.3h0ZM34.2,376.1c.4.6,1.7,1.2,1.9,2.6l-1.3-.8-10.6-13.5c1.1,1.2,2.6,2,3.8,3.2,2.1,2.2,4.5,5.8,6.2,8.5h0ZM36.1,379.5c.7-.4,1.4.3,1.1.5-.7.4-1.4-.3-1.1-.5ZM34,384.9c.8-.8,2.6,2.5,2.4,3.2-.2-.4-2.7-2.9-2.4-3.2ZM14.9,410.2c0-.1-1.2-2.5-1.1-2.7.3.7,2,1.5,2.1,1.6.6.7-.5,1.6-1,1.1h0ZM16.6,410.3l17.3,23.8-1.1.8-17.3-23.8,1.1-.8ZM11.7,419.9c-.9.4-1.9-1.3-2.6-1.9.6,0,3,1.7,2.6,1.9ZM13,421v.5c-.3-.2-.3-.4,0-.5ZM15.9,424.8c.6-.6,2.7,1.9,3.2,2.4,2,2.1,4.2,5,6,7.3,3.5,4.5,7.3,9.6,9.1,15l-18.3-24.8h0ZM14.4,427.5c-.4-.8.3-1.4.5-1.1.4.8-.3,1.4-.5,1.1ZM33.4,435c.8-.9,1.2.7,1.4,1,.8,1.1,1.7,2.6,2.1,3.8-.4-.8-4.1-4-3.4-4.8h0ZM37.4,440.4v.5c-.3-.2-.3-.4,0-.5ZM34.4,450.6c0-.4.3-.7.7-.7s.7.3.7.7-.3.7-.7.7-.7-.3-.7-.7ZM19.1,475.4l-3.2-2.4-3.4-5.1c1.5,2,4,3.8,5.6,5.6.5.6,1.3.9,1,1.9ZM19.1,475.9c1.3-1.3,4.7,5.4,4.9,5.7.3.4,1.1.5,1.4,1,1.2,1.7,3,3.7,3.5,5.7-1.7-1.6-2.4-4-4.5-5.1l-5.3-7.3h0ZM18.6,489.4c.7-.4,1.4.3,1.1.5-.7.4-1.4-.3-1.1-.5ZM33.7,512v.5c-.3-.2-.3-.4,0-.5ZM34.2,513.1v.5c-.3-.2-.3-.4,0-.5Z"/>
  <path class="st4" d="M54.1,218.6c1.5,66.3-.5,132.8-2.7,198.9-1.3,40.6-2.1,81.1-6.3,121.4-.2,1.7.8,5.3-1.1,4.8.2.9.9,1.8.6,2.9l-2.7,18.1c0,2.2,0,4.9-1.1,7-.2,5.3-1.5,11.5-2.3,16.8-5.1,35-12.7,69.7-19.5,104.3,1.5-4.5,4.3-9.7,6.4-14-1-.5-.4-1.9-.3-2.7,1.2-7.9,3.4-16.2,5-24,.2-1-.5-2.1,1.1-1.8,0-.5,0-1.1,0-1.6,0,0-.7-.5-.5-1.1.3,0,1,0,1.1,0,.2-.2,0-2.5,0-3.2,0-.2.3-.5.5-.5,3-20.7,7.4-41.2,10.6-61.9.6-3.6,1.1-7.2,1.6-10.8,3.4-23.8,6.9-49,6.9-72.9,0-3.3.2-6.3.6-9.5,0-8.4.3-16.7.5-25.1,0-.7.6-1.2.6-1.3.9-31.6,1.3-63.1,2.1-94.8,1.3-49,1.6-98.3,0-147.3,0-1,.5-2.2-1.1-1.9h0Z"/>
  <path class="st13" d="M58.9,280c-1.5,93.6,3.6,187.2-8,280.1-4,32.1-9,65.2-14.9,96.9-.1.7-.9,2.1,0,2.5,2.3-3.7,4.9-10.4,9.6-10.8,1.8-18.9,4.8-37.7,6.9-56.5,0-.7,0-1.5,0-2.2l-10.1,54.4-.6-1.9c8.9-58.8,15.2-116.5,17-176,1.8-61.1,3.1-123.5,1.1-184.7,0-1,.5-2.2-1.1-1.9h0ZM40.9,648.7c.3-.9,0-3.4,1.1-3.8,0,1.3.5,3.2-1.1,3.8Z"/>
  <path class="st1" d="M32.9,530.8c-12.2-7.4-24.3,10.5-22.7,21.7.9,6.6,8.7,13.4,15.2,13.3l-5.3-3.5c-7.9-6.4-7.2-12.6-1.1-20.1,5.4-6.7,12.1-6.3,16.5,1.2,1.8,3.1,2.3,5.7,3.1,9,1.4,6.2,2.4,13,2.1,19.4,1-2.1,1-4.8,1.1-7,.4-11.8-.2-24.3-7.4-33.9l-.3,1.6c-.5-.4-.8-1.3-1.3-1.6h0ZM12.2,549.1c1-12.7,14.5-26.9,24.4-12.1-2.4-.9-3.7-3.5-6.2-3.9-5.8-1-13.2,5.2-15.6,10.3l-2.6,5.7h0ZM37.2,539.4l-.3-1.6c.8.5,1.3,1.7.3,1.6Z"/>
  <path class="st7" d="M11.2,173.9c-.9-1.5-1.1-3.4-3.2-3.2-.2,11-1.9,22.1-2.7,33.1-1.7,24.5-2.1,49.2-3.2,73.7.2,1,1.1,1.6,1.6,2.4l1.1-4,1.6-55.2c1.3,0,4.3,6.4,5.3,5.4-1.5-4.1-5.8-7-4.8-11.9l1.1.6c-2.4-9.2-.3-19.4.5-28.8.3-3.8.4-7.7.5-11.6,1-.4,2.5,2.4,3.2,1.6.9-1-.9-1.9-1.1-2.1h0Z"/>
  <path class="st7" d="M13.3,144.3c.2-1.5,1.2-3.9,1.4-5.8,1.6-12.6,2.5-25.1,3.3-37.8,1.1,0,3.3,4.8,4.2,3.8,0-2-2.3-3.4-2.6-5.1-.2-1.3,0-11,.5-11.6l2.1.5c-2.5-5-.7-8.6,1.1-13.5-.3-.3-.4-1.8-1.3-2.1l-.7.9c-4.5,20.6-8.3,41.7-9.1,62.9,0,2.1-.7,6.5,1.1,7.8h0Z"/>
  <path class="st7" d="M2.7,420.5c1,3,.5,7,.5,10.2v9.7c0,3.5.4,7.5-.5,10.8-.2,8.2-1.3,16.3-2.7,24.4l15.9,10c-3.5-5.2-7.8-8.8-13.3-11.6.7-5.1,1.7-10.4,2.2-15.6.4-4.1.9-8.9,1.1-12.9.3-7-.6-13.9-.4-20.9.7-2.2,5.2.7,6.8,1.3-1.2-1.8-3.6-3.4-5.5-4.4-.8-.4-3.6-2.3-4.1-1h0Z"/>
  <path class="st7" d="M44,543.8c-1.7-7.5-8-17.4-13-23.2-5.6-6.5-14-16-23.4-10.8-3.1,1.7-5.8,5.6-4.5,9.2-.4-6.7,5.5-9.8,11.4-9.1,8.6,1,15.4,13.7,18.3,21,.6.3.8,1.2,1.3,1.6l.3-1.6c7.2,9.6,7.8,22.2,7.4,33.9l2.7-18.1c.3-1.1-.3-2-.6-2.9h0Z"/>
  <path class="st9" d="M45.1,649.8c-1.2,0-1.4.8-1.9,1.5-6.3,8.5-18.9,30.8-22,40.7-.2.8-.9,2.3-.2,3,1.8-1.5,2.9-3.5,4.2-5.4,5.3-8.1,10.8-18.7,15.2-27.4,2.3-4.6,3.5-7.4,4.8-12.4Z"/>
  <path class="st8" d="M36.1,659.5c-4,6.4-7.3,12.6-10.6,19.4-2.1,4.3-4.9,9.5-6.4,14-.7,2.1-1.2,4.8-1.6,7,1,1.1,5.6-5.4,6.3-6.3,3.5-4.8,6.6-10.5,9.4-15.8,2.6-4.9,5.4-10.4,7.2-15.6-4.3,8.7-9.9,19.3-15.2,27.4-1.3,1.9-2.4,3.9-4.2,5.4-.7-.7,0-2.2.2-3,3.1-9.9,15.7-32.2,22-40.7.6-.7.7-1.6,1.9-1.5,0-.2.6-.7.5-1.1-4.7.4-7.2,7.1-9.6,10.8h0Z"/>
  <path class="st14" d="M25.5,508.2c-4.6-2.9-8.6-4.9-14.2-3.3-.9.2-1.5-.4-1.2,1.1,14.7-1.2,23,13.5,30,24.2.8-.4.2-1.1-.1-1.6-3-5.1-6.1-10.6-9.7-15.7-1.1-1.5-2.8-2.5-4.2-4.9h-.5Z"/>
  <path class="st5" d="M26,508.2c1.4,2.3,3.1,3.3,4.2,4.9-1-5.3-5.2-9.5-6.9-14.5-3.3-4.1-2.6-3.7-6.9-7-2.2-1.7-4.4-3.5-6.9-4.9,4.4,4.1,8.7,8.2,12.1,13.3,1.7,2.6,2.9,5.8,4.3,8.2h0Z"/>
  <path class="st5" d="M13.3,145.9l-1.6-.8c-.7,5.2-1.1,10.4-1.6,15.6-.6,5.6-2.6,6.1,1.1,11.6-.3-6.3.9-12.4,1.6-18.6.2-1.9.3-3.8.5-5.6,0-.7,0-1.5,0-2.1h0Z"/>
  <path class="st5" d="M38.7,552.4c-.8-3.3-1.2-5.9-3.1-9-4.4-7.5-11.2-8-16.5-1.2,1.4-.3,2.2-1.5,3.5-2.1,9.2-4.3,13.2,5.2,16.1,12.3Z"/>
  <path class="st6" d="M2.7,334.3c0-3.8.5-8.2-.5-11.8,0,3.8-.5,8.2.5,11.8Z"/>
  <path class="st7" d="M2.2,322.5c1,3.6.4,8,.5,11.8.2,8,.9,16,1.1,23.9.3,18.4,0,37.2-.5,55.5,0,1.4,1.9,2.1,2.6,2.9.5-2.1-.6-4.3-.6-6.2,0-14.9,2.3-29.7,1.7-45.2-.5-12.1-1-24.4-1.6-36.6-.2-3.2-1.4-6.8-.8-9.9l2.4,1.4-3.1-4.9c-.2-9.8.3-19.6,1-29.3,1.8.6,2.6,1.9,3.7,3.2-1.4-2.9-3.9-5.6-6.4-7.5,0,13.6,0,27.3,0,40.9h0Z"/>
  <path class="st0" d="M48.3,197c0,9.5,0,19,0,28.5l-6.3-12.2c-2.3-3.4-4.1-7.3-6.3-10.8-.5-.8-1.9-2.9-2.8-3.1,5.4,10.1,11.1,20,15.3,30.7l-.5,5.1-3.1-6.8-2.2-3.1c1.2,4.6,5.3,10.4,5.8,15.1,2.2,20.1-1.7,44.1,0,64.6-1,5.2-.4,10.6-.6,15.9l-20.1-26.6-2.1-1.6c7.5,11.6,17,22,22.2,35l-.5,70.2-6.4-9.4-4.2-4.3c2.5,5,8.7,12,10.2,17.1.6,2.2.4,4.1.4,6.3l-7.2-11.8c-3.2-4.3-6.4-8.8-9.8-13l-.5.5c3.6,5.2,7,10.8,10.2,16.3,4.7,8.3,7.6,11.6,7.3,21.6-.4,16.8-.9,33.8-1.1,50.6-.1,11.7,1.7,25.8-.6,37-.2,1.2-1.7,6.5-3.6,5.2-.3-.2-2.5-4.9-3.3-6.1-2-2.9-4.6-6.5-6.9-9.2-.5-.6-1.8-1.9-2.5-2.2,7.5,13.1,14.1,26.9,15.9,42.3,4.2-40.3,5-80.9,6.3-121.4,2.2-66.1,4.1-132.6,2.7-198.9,0-1.2,0-2.5,0-3.8,0-2.1-.5-5-.5-7.5,0-1.6,0-3.2,0-4.9,0-2.2-.6-4.9-.5-7.5,0-.5,0-1.1,0-1.6-1.1-1.8-.4-4.8-.5-7,0-.5,0-1.1,0-1.6-1.1-16-3.2-32.3-4.2-48.4-.9.6-.5,2-.5,2.9-.2,19.3.5,38.6.5,57.9h0Z"/>
  <path class="st7" d="M17.5,196c-.8.9,10,18.6,11.2,20.6,2.4,4.1,4.9,8.3,7.5,12.3.6,1,1.6,2.5,2.4,3.2-4.3-13.1-12.6-23.6-19.9-35-.2-.3-.5-2.1-1.3-1.1h0Z"/>
  <path class="st14" d="M22.3,229.9c5.6,9.9,11.3,19.7,17,29.6l.5-.5c-4.8-10.4-10.6-20.1-17-29.6l-.5.5h0Z"/>
  <polygon class="st6" points="16.6 410.3 15.6 411 32.9 434.9 33.9 434.1 16.6 410.3"/>
  <path class="st5" d="M20.7,278.3c.2,1.1,1.1,2.4,1.7,3.4,3.6,5.6,7.8,10.8,11.7,16.2l3.1,3-16.4-22.6h0Z"/>
  <path class="st5" d="M12.2,310.6l5.6,9.1c2.3,2.5,4.1,6.2,6.4,8.6.6.6.8,1.4,1.8,1.1,0,0-13.8-18.8-13.8-18.8Z"/>
  <path class="st6" d="M16.5,491.5c4.3,3.3,3.6,2.9,6.9,7,2.7,3.4,5.9,6.8,8.3,10.4.5.7.6,2.4.7,2.5.3.3,1.3.2,1-.8-.4-1.4-4.7-7.7-5.8-9.2-2.2-2.9-6.3-7.3-9.2-9.6-.6-.5-1.1-1.8-2-.4Z"/>
  <path class="st6" d="M30.6,380.3c.6.7,1.2,1.6,1.8,2.3.4.5.4,1.6.5,1.8.5.5,1.6-.3,1-1.1,0,0-.7.1-1.1-.4-3.3-5-7.7-11.4-11.6-15.5-1.2-1.3-2.8-2.2-4-3.5.2.9,1.3,2.2,1.9,2.9,3.7,4.5,7.8,8.9,11.4,13.4h0Z"/>
  <path class="st6" d="M34.2,376.1c-1.8-2.7-4.2-6.3-6.2-8.5-1.2-1.2-2.7-2-3.8-3.2l10.6,13.5,1.3.8c-.2-1.4-1.5-2-1.9-2.6h0Z"/>
  <path class="st6" d="M19.1,475.9l5.3,7.3c2.1,1.2,2.8,3.5,4.5,5.1-.4-2-2.2-4-3.5-5.7-.3-.4-1.1-.6-1.4-1-.3-.4-3.7-7-4.9-5.7h0Z"/>
  <path class="st6" d="M19.1,475.4c.2-1-.5-1.3-1.1-1.9-1.6-1.8-4.1-3.6-5.6-5.6l3.4,5.1s3.2,2.4,3.2,2.4Z"/>
  <path class="st6" d="M39.3,259.5c.2.4,1.8,4.8,2.7,3.8.5-.6-1.8-3.6-2.1-4.3l-.5.5h0Z"/>
  <path class="st6" d="M22.8,229.3c-.3-.4-1.8-4.2-2.7-3.2-.6.7,1.8,3.1,2.1,3.8l.5-.5h0Z"/>
  <path class="st6" d="M33.4,435c-.7.8,3,4,3.4,4.8-.4-1.3-1.3-2.7-2.1-3.8-.2-.3-.6-1.9-1.4-1h0Z"/>
  <polygon class="st6" points="34.8 237.1 33.8 237.5 34.8 239.9 35.8 239.5 34.8 237.1"/>
  <path class="st5" d="M29.7,383.3l.5-.5c-1.5-1.8-3-3.6-4.5-5.4.5,2.4,2.7,4,4,5.9Z"/>
  <path class="st6" d="M34,384.9c-.3.3,2.2,2.8,2.4,3.2.2-.7-1.6-4-2.4-3.2Z"/>
  <path class="st6" d="M29.2,229.3c-.5.5.8,1.7,1.3,2.1,0-.9-.4-3.1-1.3-2.1Z"/>
  <path class="st6" d="M36.1,241.2c-.2.7.3,1.4,1.1,1.6v-1.6h-1.1Z"/>
  <ellipse class="st5" cx="35" cy="450.6" rx=".7" ry=".7"/>
  <ellipse class="st6" cx="19.6" cy="225" rx=".7" ry=".7"/>
  <ellipse class="st6" cx="31.3" cy="232.6" rx=".7" ry=".7"/>
  <ellipse class="st6" cx="32.9" cy="235.2" rx=".7" ry=".7"/>
  <ellipse class="st5" cx="19.1" cy="275.6" rx=".7" ry=".7"/>
  <ellipse class="st5" cx="20.2" cy="277.2" rx=".7" ry=".7"/>
  <path class="st3" d="M22.3,288.6c2.8,0-.9-2.2-1.3-3.2l1.3,3.2Z"/>
  <ellipse class="st3" cx="23.9" cy="289.6" rx=".7" ry=".7"/>
  <path class="st5" d="M26.6,331.6c.8.8,2.1-.9-.3-1.6,0,.3.2,1.5.3,1.6Z"/>
  <path class="st6" d="M14.9,410.2c.5.5,1.6-.3,1-1.1,0-.1-1.8-.9-2.1-1.6-.1.2,1,2.6,1.1,2.7h0Z"/>
  <path class="st6" d="M14.9,361.2c.4-.2-1.5-1.5-2.1-1.4.7.7,1.1,1.6,2.1,1.4Z"/>
  <path class="st7" d="M17,193.8c-1-.1-.5,1.1.3,1.6l-.3-1.6Z"/>
  <path class="st14" d="M8.5,506.1c-.3.3.5.8,1.1.5.5-.2-.7-.9-1.1-.5Z"/>
  <path class="st5" d="M10.6,306.9c-1.4.4,1.1,2.8,1.3,3.2l-1.3-3.2Z"/>
  <path class="st6" d="M36.1,379.5c-.4.2.3.9,1.1.5.4-.2-.3-.9-1.1-.5Z"/>
  <path class="st6" d="M17,363.4c.4-.2-1.5-1.5-2.1-1.4.7.7,1.1,1.6,2.1,1.4Z"/>
  <path class="st5" d="M11.7,419.9c.4-.2-2-1.9-2.6-1.9.7.6,1.7,2.3,2.6,1.9Z"/>
  <path class="st6" d="M22.8,363.9c.2.4.9-.3.5-1.1-.2-.4-.9.3-.5,1.1Z"/>
  <path class="st5" d="M13,421c-.3.2-.3.4,0,.5v-.5Z"/>
  <path class="st6" d="M37.4,440.4c-.3.2-.3.4,0,.5v-.5Z"/>
  <path class="st5" d="M15.9,424.8l18.3,24.8c-1.8-5.4-5.6-10.5-9.1-15-1.8-2.3-4.1-5.2-6-7.3-.4-.5-2.6-3-3.2-2.4h0Z"/>
  <path class="st7" d="M7.2,320.9c-.3.2-.3.4,0,.5v-.5Z"/>
  <path class="st0" d="M32.6,198.1c-.3.2-.3.4,0,.5v-.5Z"/>
  <path class="st6" d="M33.7,512c-.3.2-.3.4,0,.5v-.5Z"/>
  <path class="st6" d="M34.2,513.1c-.3.2-.3.4,0,.5v-.5Z"/>
  <path class="st7" d="M8.3,215.3c-.3.2-.3.4,0,.5v-.5Z"/>
  <path class="st0" d="M25.2,291.2c-.3.2-.3.4,0,.5v-.5Z"/>
  <path class="st4" d="M39,217.5c-.3.2-.3.4,0,.5v-.5Z"/>
  <path class="st4" d="M39.5,218.6c-.3.2-.3.4,0,.5v-.5Z"/>
  <path class="st4" d="M40.1,219.6c-.3.2-.3.4,0,.5v-.5Z"/>
  <path class="st4" d="M40.6,220.7c-.3.2-.3.4,0,.5v-.5Z"/>
  <path class="st4" d="M41.1,221.8c-.3.2-.3.4,0,.5v-.5Z"/>
  <path class="st4" d="M41.7,222.9c-.3.2-.3.4,0,.5v-.5Z"/>
  <path class="st6" d="M18.9,223.4c-.3.2-.3.4,0,.5v-.5Z"/>
  <path class="st4" d="M42.2,224c-.3.2-.3.4,0,.5v-.5Z"/>
  <path class="st7" d="M12,226.6c-.3.2-.3.4,0,.5v-.5Z"/>
  <path class="st6" d="M28.9,228.3c-.3.2-.3.4,0,.5v-.5Z"/>
  <path class="st3" d="M20.4,284.2c-.3.2-.3.4,0,.5v-.5Z"/>
  <path class="st6" d="M32.1,233.6c-.3.2-.3.4,0,.5v-.5Z"/>
  <path class="st6" d="M33.7,236.3c-.3.2-.3.4,0,.5v-.5Z"/>
  <path class="st6" d="M35.8,240.1c-.3.2-.3.4,0,.5v-.5Z"/>
  <path class="st6" d="M42.2,263.8c-.3.2-.3.4,0,.5v-.5Z"/>
  <path class="st6" d="M42.7,264.9c-.3.2-.3.4,0,.5v-.5Z"/>
  <path class="st6" d="M43.3,266c-.3.2-.3.4,0,.5v-.5Z"/>
  <path class="st5" d="M18.3,274c-.3.2-.3.4,0,.5v-.5Z"/>
  <path class="st10" d="M46.7,110.4c1.8-.5.9,2.6,1.1,4.3,0,.3,0,.7,0,1.1,2,21.4,3.7,43.2,5.3,64.9,0,1.1.3,3.2-.6,4.1,0,.5,0,1.1,0,1.6.3,0,1,0,1.1,0,.2.2,0,4.8,0,5.7,0,.7-.6,1.2-.6,1.3,0,.5,0,1.1,0,1.6.3,0,1,0,1.1,0,.2.3.2,6.7-.5,7.5,0,1.6,0,3.2,0,4.9.3,0,1,0,1.1,0,.2.3.2,6.7-.5,7.5,0,1.2,0,2.5,0,3.8,1.6-.3,1,.8,1.1,1.9,1.6,49,1.3,98.3,0,147.3.9.6.5,2,.5,3,.3,30.7-.7,61.2-2.1,91.8,0,1.9-.5,4.8-.5,6.2v9.1c0,3-.7,7.9-1.1,11s-.6,6.1-.6,9.5c0,23.9-3.5,49.2-6.9,72.9,1.4,3.2-.6,7.6-1.1,10.8-.2,1.1.1,2.3,0,3.5-3,22.3-6.3,44.7-11.7,66.5-.9.1-.4-1-.5-1.6-1.6-.3-.9.8-1.1,1.8-1.6,7.9-3.7,16.2-5,24-.1.8-.7,2.2.3,2.7,3.3-6.8,6.6-13,10.6-19.4-.9-.5-.2-1.8,0-2.5,5.9-31.7,10.9-64.8,14.9-96.9,11.6-92.9,6.5-186.5,8-280.1,0-2.6.5-5.1.5-7.5-1.6.3-1-.8-1.1-1.9,0-3,0-6,0-8.9.6-37.3-4.5-75.6-5.8-113.1-.7-.6-.5-1.4-.5-2.1,0-1.5-.1-3.4,0-4.9-.6-2.3-.9-5.4-1.1-7.8-1-13.2-1.6-26.4-2.7-39.6-.2-2.1-.9-4.9-1.1-7.2,0-1-.3-2.8.6-3.5,0-1.2-.4-2.4-.5-3.8-1.5.2-1-.9-1.1-1.8-.1-3.2.6-7-.5-10-.4,14.2.8,28.4,1.1,42.5h0Z"/>
  <path class="st11" d="M53.6,136.7c-1.8-.4-.8,1.9-1,3.5,0,.7-.6,1.2-.6,1.3-.1,1.5,0,3.3,0,4.9,1.4-.4,1.5,1.2.5,2.1,1.4,37.4,6.4,75.8,5.8,113.1,1.6-.3,1,.8,1.1,1.9.1,2.9,0,6,0,8.9,0,2.4-.5,4.9-.5,7.5,1.6-.3,1,.8,1.1,1.9,2,61.2.7,123.5-1.1,184.7-1.8,59.5-8.1,117.3-17,176.1l.6,1.9,10.1-54.4c0-.3,0-.7,0-1.1-.9-.5-.8-2.7,0-3.2,0-.5,0-1.1,0-1.6l.5-2.2c0-.7,0-1.5,0-2.2l.5-1.6c0-.7,0-1.5,0-2.2,0-.9-.3-2.2.5-2.7,14.1-137.8,13-273.3,1.6-411.3-.7-8.4-1.3-16.9-2.1-25.3h0Z"/>
  <path class="st4" d="M48.3,136.2c1.1,16.2,3.1,32.5,4.2,48.4.9-.9.6-2.9.6-4.1-1.6-21.6-3.3-43.5-5.3-64.8-.9,2-.7,5.1-.6,7.3.2,4.3.8,8.8,1.1,13.2Z"/>
  <path class="st14" d="M52,141.6c0,0,.5-.6.6-1.3.2-1.6-.8-4,1-3.5-1.3-14.2-3.3-28.4-4.8-42.5h-.5c1.1,13.2,1.7,26.4,2.7,39.6.2,2.4.5,5.5,1.1,7.8h0Z"/>
  <path class="st0" d="M23.4,98c1.2,3.4,2.6,7.3,4.2,10.6,3.7,7.5,8.9,16.6,13.1,23.9.4.7,0,1.4,1.3,1.1l-18.6-35.5h0Z"/>
  <path class="st2" d="M40.3,166.4c.7.6,1.6-.4.8-1.1l-14.6-22.6,13.8,23.7Z"/>
  <path class="st2" d="M22.8,127.1c-1,.2.9,3.4,1.2,3.9,2.6,4.8,5.6,9.8,8.7,14.4-2-6.7-6.2-12.4-9.8-18.3h0Z"/>
  <path class="st6" d="M48.3,94.2h.5c-.4-3.6-.8-7.2-1.1-10.8-.8.7-.6,2.5-.6,3.5.2,2.3.9,5.2,1.1,7.2Z"/>
  <path class="st4" d="M46.7,110.4c0,1.6-.7,4.8,1.1,4.3-.2-1.7.8-4.8-1.1-4.3Z"/>
  <path class="st0" d="M41.9,135.1c.2.4.9-.3.5-1.1-.2-.4-.9.3-.5,1.1Z"/>
  <path class="st2" d="M23.6,138.4c.2,1.3,1.3,2.7,2.1,3.8-.2-1.3-1.3-2.7-2.1-3.8Z"/>
  <path class="st2" d="M34.5,149.7c1,.1.5-1.1-.3-1.6l.3,1.6Z"/>
  <path class="st2" d="M41.9,168.5c1,.1.5-1.1-.3-1.6l.3,1.6Z"/>
  <path class="st7" d="M22.6,105c-.3.2-.3.4,0,.5v-.5Z"/>
  <path class="st2" d="M33.2,145.9c-.3.2-.3.4,0,.5v-.5Z"/>
  <path class="st2" d="M33.7,147c-.3.2-.3.4,0,.5v-.5Z"/>
  <path class="st13" d="M52.5,589c.1-1-.1-2.2,0-3.2-.8.5-.9,2.7,0,3.2Z"/>
  <path class="st13" d="M53.6,576c0-.4.4-1.6.5-2.7-.9.5-.5,1.8-.5,2.7Z"/>
  <path class="st13" d="M52.5,584.1c0-.2.4-1.2.5-2.2l-.5,2.2Z"/>
  <path class="st13" d="M53.1,579.8c0,0,.4-.6.5-1.6l-.5,1.6Z"/>
  <path class="st14" d="M32.4,643.9c0,.2-.3.5-.5.5,0,.7.2,3,0,3.2l-.5,1.1c0,.5,0,1.1,0,1.6,0,.6-.4,1.8.5,1.6,5.3-21.8,8.7-44.2,11.7-66.5.2-1.1-.1-2.4,0-3.5h-.5c-3.2,20.7-7.6,41.2-10.6,61.9h0Z"/>
  <path class="st14" d="M53.1,462.5h.5c1.4-30.6,2.4-61.1,2.1-91.8,0-.9.3-2.4-.5-3-.8,31.6-1.2,63.1-2.1,94.8Z"/>
  <path class="st6" d="M52,488.8c.3-3.1,1.1-8,1.1-11v-9.1c0-1.4.4-4.3.5-6.2h-.5c0,0-.5.6-.6,1.3-.2,8.4-.4,16.7-.5,25.1h0Z"/>
  <path class="st6" d="M43,582h.5c.4-3.2,2.4-7.6,1.1-10.8-.5,3.6-1,7.2-1.6,10.8Z"/>
  <path class="st10" d="M31.9,647.7c0,0-.8,0-1.1,0-.2.6.5,1,.5,1.1l.5-1.1h0Z"/>
  <path class="st10" d="M31.9,644.4c.3,0,.5-.3.5-.5-.3,0-.5.3-.5.5Z"/>
  <path class="st11" d="M40.9,648.7c1.5-.5,1-2.5,1.1-3.8-1,.4-.8,2.9-1.1,3.8Z"/>
  <path class="st14" d="M12.2,549.1l2.6-5.7c2.4-5.1,9.8-11.3,15.6-10.3,2.6.5,3.8,3,6.2,3.9-9.9-14.8-23.4-.6-24.4,12.1h0Z"/>
  <path class="st14" d="M37.2,539.4c1,0,.5-1-.3-1.6l.3,1.6Z"/>
  <path class="st4" d="M53.6,207.3c0,2.5.5,5.5.5,7.5.7-.8.8-7.2.5-7.5,0,0-.8,0-1.1,0Z"/>
  <path class="st4" d="M53.1,194.9c0,2.7.5,5.4.5,7.5.7-.8.8-7.2.5-7.5,0,0-.8,0-1.1,0Z"/>
  <path class="st4" d="M52.5,186.3c.1,2.2-.5,5.2.5,7,0,0,.5-.6.6-1.3,0-.9.2-5.5,0-5.7,0,0-.8,0-1.1,0Z"/>
  <path class="st13" d="M58.4,261.6c0,2.9,0,6,0,8.9,0,1-.5,2.2,1.1,1.9,0-2.9.1-6,0-8.9,0-1,.6-2.2-1.1-1.9Z"/>
  <path class="st14" d="M52,146.4c0,.8-.1,1.5.5,2.1,1-.9.9-2.6-.5-2.1Z"/>
</svg>